<?xml version="1.0" encoding="utf-8"?>
<!-- Generator: Adobe Illustrator 17.1.0, SVG Export Plug-In . SVG Version: 6.00 Build 0)  -->
<!DOCTYPE svg PUBLIC "-//W3C//DTD SVG 1.1//EN" "http://www.w3.org/Graphics/SVG/1.1/DTD/svg11.dtd">
<svg version="1.1" id="Layer_1" xmlns="http://www.w3.org/2000/svg" xmlns:xlink="http://www.w3.org/1999/xlink" x="0px" y="0px"
	 viewBox="0 0 2350 1000" enable-background="new 0 0 2350 1000" xml:space="preserve">
<rect fill="#CFCECE" width="2350" height="1000"/>
<polygon fill="#562162" points="194.5,338.8 -1.4,169.4 194.5,0 586.5,0 782.4,169.4 586.5,338.8 "/>
<polygon fill="#562162" points="978.3,338.8 782.4,169.4 978.3,0 1370.1,0 1566,169.4 1370.1,338.8 "/>
<polygon fill="#562162" points="1761.9,338.8 1566,169.4 1761.9,0 2153.7,0 2349.6,169.4 2153.7,338.8 "/>
<polygon fill="#562162" points="195.4,677.6 -0.5,508.2 195.4,338.8 587.4,338.8 783.3,508.2 587.4,677.6 "/>
<polygon fill="#562162" points="979.2,677.6 783.3,508.2 979.2,338.8 1371,338.8 1566.9,508.2 1371,677.6 "/>
<polygon fill="#562162" points="1762.8,677.6 1566.9,508.2 1762.8,338.8 2154.6,338.8 2350.5,508.2 2154.6,677.6 "/>
<polygon fill="#562162" points="195.5,1016.4 -0.4,847 195.5,677.6 587.5,677.6 783.4,847 587.5,1016.4 "/>
<polygon fill="#562162" points="979.3,1016.4 783.4,847 979.3,677.6 1371.1,677.6 1567,847 1371.1,1016.4 "/>
<polygon fill="#562162" points="1762.9,1016.4 1567,847 1762.9,677.6 2154.7,677.6 2350.6,847 2154.7,1016.4 "/>
</svg>
