<?xml version="1.0" encoding="utf-8"?>
<!-- Generator: Adobe Illustrator 17.1.0, SVG Export Plug-In . SVG Version: 6.00 Build 0)  -->
<!DOCTYPE svg PUBLIC "-//W3C//DTD SVG 1.1//EN" "http://www.w3.org/Graphics/SVG/1.1/DTD/svg11.dtd">
<svg version="1.1" id="Layer_1" xmlns="http://www.w3.org/2000/svg" xmlns:xlink="http://www.w3.org/1999/xlink" x="0px" y="0px"
	 viewBox="0 0 2350 1000" enable-background="new 0 0 2350 1000" xml:space="preserve">
<rect fill="#CFCECE" width="2350" height="1000"/>
<g>
	<g>
		<g>
			<g>
				<path fill="#8F2046" d="M397.1,174.5c-0.1,0.1-0.2,0.1-0.3,0.2c-0.1,0-0.1,0-0.2,0c-0.1,0-0.1,0-0.3-0.1
					c-0.1-0.1-0.2-0.1-0.3-0.2c-0.1,0-0.1-0.1-0.2-0.1c-0.1-0.1-0.2-0.1-0.2-0.2c-0.2-0.1-0.3-0.3-0.5-0.4c-0.2-0.2-0.4-0.4-0.7-0.7
					c-1-1-2.3-2.5-4-4.7c-1.7-2.2-3.7-5.1-5.8-8.6c-4.3-7-9.3-16.6-13.4-27.1c-4.2-10.5-7.4-21.9-8.9-31.6c-0.4-2.4-0.7-4.7-0.9-6.9
					c-0.2-2.1-0.3-4.1-0.3-5.8c0-1.9,0-3.9,0.1-5.8c0-1,0.1-1.9,0.2-2.9c0.1-0.9,0.2-1.9,0.3-2.8c0.9-7.4,3.2-14,6.2-19.1
					c3-5.1,6.5-8.7,9.2-10.9c0.7-0.5,1.3-1,1.8-1.4c0.5-0.4,1-0.7,1.4-1c0.8-0.5,1.2-0.8,1.2-0.8s3.9,2.7,10,6.6
					c6.1,3.9,14.5,8.9,23.4,13.6c8.8,4.7,18.1,9,25.3,12.1c7.1,3.1,12,4.9,12,4.9s-0.3-0.1-0.9-0.3c-0.6-0.2-1.5-0.5-2.7-0.8
					c-2.4-0.6-6-1.3-10.5-1.1c-4.4,0.2-9.8,1.2-15.1,3.7c-0.7,0.3-1.3,0.6-2,1c-0.7,0.3-1.3,0.5-2,0.9c-0.6,0.4-1.4,0.7-2,1.3
					l-1,0.8l-0.9,0.9c-2.5,2.5-4.7,6-6.6,10.2c-3.8,8.3-6.1,19-7.2,29.2c-1.2,10.3-1.3,20.1-1.4,27.7c0,3.8-0.1,7.1-0.2,9.8
					c-0.1,2.7-0.4,4.7-0.7,6.3c-0.3,1.5-0.7,2.5-1,3.1C397.3,174.2,397.1,174.5,397.1,174.5z"/>
				<path fill="#8F2046" d="M330.9,245.1c-0.9-0.1-4.2-2.6-9.2-8c-5.1-5.5-11.9-14-19-25.5c-7.1-11.4-14.5-25.6-20.8-41.3
					c-6.3-15.7-11.5-32.9-14.6-49.7c-0.8-4.2-1.4-8.4-1.9-12.5c-0.5-4.1-0.8-8.2-1-12.1c-0.2-4-0.3-8-0.2-12c0-2,0.2-3.9,0.2-5.9
					c0.2-1.9,0.3-3.9,0.5-5.8c0.8-7.6,2.2-14.9,4.2-21.6c2-6.7,4.6-12.8,7.4-18.2c5.8-10.8,12.8-18.3,18.2-22.9
					c0.7-0.6,1.3-1.1,1.9-1.6c0.6-0.5,1.2-0.9,1.7-1.4c1.1-0.9,2-1.6,2.8-2.1c1.5-1.1,2.4-1.7,2.4-1.7s3.3,3.2,8.5,7.7
					c5.3,4.6,12.6,10.5,20.4,16.1c7.8,5.6,16.1,11,22.5,14.8c3.2,1.9,5.9,3.5,7.9,4.6c1.9,1.1,3,1.7,3,1.7s-0.6,0.3-1.8,0.8
					c-0.6,0.3-1.3,0.6-2.2,1c-0.8,0.4-1.8,0.9-2.9,1.5c-4.2,2.3-10.1,6-16.1,11.9c-6,5.8-12.1,13.8-17.1,23.6
					c-0.7,1.2-1.2,2.5-1.9,3.8c-0.6,1.3-1.2,2.5-1.8,3.8c-0.5,1.3-1.1,2.7-1.6,4.1c-0.3,0.7-0.5,1.4-0.8,2.2l-0.7,2.2
					c-1.9,6-3.4,12.8-4.5,20c-2.1,14.3-2.5,30.1-1.5,45c1,15,3.3,29.1,6,40.9c2.7,11.8,5.7,21.1,8,27.3c1.1,3.1,2.1,5.4,2.7,7
					C330.6,244.3,330.9,245.1,330.9,245.1z"/>
				<path fill="#8F2046" d="M264.7,315.8c-1.3-0.5-7.5-5.7-15.7-14.7c-8.2-9-18.2-21.8-28.1-37.6c-19.8-31.6-39.3-75.2-48.4-123.2
					c-1.2-6-2.1-12.1-2.9-18.1c-0.7-6.1-1.4-12.2-1.7-18.4c-0.3-6.1-0.6-12.2-0.5-18.1c0-3,0.2-6,0.2-8.9c0.2-2.9,0.3-5.9,0.6-8.7
					c0.5-5.8,1.3-11.4,2.2-16.9c1-5.5,2.1-10.8,3.5-15.9c2.7-10.2,6.3-19.6,10.2-27.9c3.9-8.3,8.4-15.5,12.7-21.5
					c4.3-6.1,8.6-10.9,12.2-14.7c0.9-0.9,1.8-1.8,2.6-2.7c0.8-0.8,1.6-1.6,2.4-2.3c1.5-1.4,2.7-2.6,3.8-3.5c2.1-1.8,3.3-2.8,3.3-2.8
					s3.5,4,8.9,9.7c2.7,2.8,5.9,6.2,9.4,9.6c1.7,1.7,3.5,3.4,5.4,5.2c0.9,0.9,1.9,1.8,2.8,2.7l1.4,1.3l1.3,1.2
					c3.4,3.3,6.9,6.6,10.3,9.5c3.4,3,6.7,5.7,9.5,8.1c2.9,2.3,5.3,4.2,7,5.5c1.7,1.3,2.7,2.1,2.7,2.1s-0.2,0.2-0.7,0.5
					c-0.4,0.3-1.2,0.8-2,1.4c-0.9,0.6-1.9,1.4-3.2,2.4c-1.2,1-2.6,2.1-4.1,3.4c-6,5.2-14.2,13.4-21.6,24.9
					c-7.5,11.5-14.4,26.3-19.1,43.5c-4.8,17.1-7.5,36.7-8,57.1c-0.5,20.3,1.1,41.1,4.3,60.8c3.2,19.7,8,38.1,13.4,54
					c5.4,15.9,11.7,29.2,16.8,38.6c2.6,4.7,4.8,8.4,6.4,10.9C263.9,314.4,264.7,315.8,264.7,315.8z"/>
				<path fill="#8F2046" d="M198.6,386.4c-0.5-0.2-1.3-0.9-2.6-2c-0.6-0.5-1.4-1.2-2.2-1.9c-0.8-0.7-1.8-1.6-2.7-2.5
					c-1-0.9-2-1.9-3.1-3c-0.6-0.5-1.1-1.1-1.7-1.7c-0.6-0.6-1.2-1.2-1.8-1.8c-1.2-1.3-2.5-2.6-3.9-4c-1.3-1.4-2.7-2.9-4.1-4.5
					c-5.6-6.2-11.8-13.7-18.1-22c-6.3-8.4-12.8-17.7-19.1-27.8c-6.4-10.1-12.6-21-18.6-32.7c-6-11.6-11.7-24-17.1-37
					c-10.7-26-19.8-54.7-25.8-85.9C76.2,152,75,144,73.9,136c-1-8.1-1.9-16.3-2.4-24.7c-0.5-8.2-0.8-16.3-0.8-24.3
					c0-4,0.1-8,0.2-11.9c0.2-3.9,0.4-7.8,0.7-11.7c0.6-7.7,1.5-15.3,2.6-22.7c1.1-7.4,2.5-14.5,4.1-21.4c3.2-13.8,7.4-26.6,11.9-38
					c4.6-11.4,9.7-21.5,14.6-30c4.9-8.6,9.8-15.6,13.9-21.2c1-1.4,2-2.7,3-4c0.9-1.2,1.9-2.3,2.7-3.4c1.7-2.1,3.1-3.9,4.4-5.3
					c2.4-2.8,3.7-4.3,3.7-4.3s3.3,4.7,8.4,11.5c2.5,3.4,5.6,7.3,8.9,11.4c3.3,4.1,6.9,8.4,10.5,12.6c3.6,4.2,7.4,8.3,10.9,12.1
					c3.5,3.8,6.9,7.2,9.8,10.1c2.9,2.9,5.4,5.3,7.1,6.9c1.8,1.6,2.8,2.6,2.8,2.6s-0.3,0.3-0.9,0.8c-0.6,0.5-1.4,1.3-2.5,2.3
					c-1.1,1-2.4,2.3-3.9,3.9c-1.5,1.6-3.2,3.4-5.1,5.4c-3.7,4.2-7.9,9.5-12.4,15.9c-4.4,6.4-9,14-13.3,22.7
					c-8.6,17.3-16.1,39-20.5,63.5c-0.6,3.1-1,6.2-1.5,9.3c-0.5,3.2-0.9,6.4-1.3,9.7c-0.3,3.2-0.7,6.5-1,9.8
					c-0.1,1.6-0.3,3.3-0.4,4.9c-0.1,1.6-0.2,3.3-0.3,4.9c-0.8,13.2-0.8,26.4-0.3,39.5c1.1,26.3,4.7,52.2,10,76.5
					c5.4,24.3,12.6,47.1,20.9,67.1c4.1,10,8.5,19.3,12.9,27.7c4.4,8.4,8.8,15.9,12.8,22.1c4.1,6.3,7.6,11.3,10.2,14.8
					C197.2,384.6,198.6,386.4,198.6,386.4z"/>
				<path fill="#8F2046" d="M132.4,457.1c-0.6-0.4-1.7-1.3-3.4-2.7c-0.8-0.7-1.8-1.6-2.9-2.5c-1.1-1-2.3-2.1-3.5-3.3
					c-1.2-1.2-2.6-2.5-4.1-3.9c-0.7-0.7-1.5-1.5-2.3-2.2c-0.7-0.8-1.5-1.5-2.3-2.3c-1.6-1.6-3.2-3.4-5-5.2c-1.7-1.8-3.4-3.7-5.2-5.7
					c-7.2-8-15-17.4-22.8-27.8c-7.9-10.4-15.8-21.8-23.5-34.2c-7.8-12.3-15.3-25.5-22.5-39.5c-7.2-14-14.1-28.8-20.6-44.4
					C1.5,252.1-9.5,217.6-17.1,179.4c-1.9-9.5-3.5-19.4-4.9-29.4c-1.3-10.1-2.4-20.4-3.2-31c-0.2-2.7-0.3-5.1-0.5-7.7
					c-0.1-2.5-0.3-5.1-0.3-7.6c-0.2-5.1-0.3-10.1-0.3-15.1c0-5,0.1-10,0.2-14.9c0.2-4.9,0.4-9.8,0.8-14.7
					c2.6-38.9,11-74.5,21.5-103.5c5.2-14.5,11-27.4,16.5-38.5c5.5-11.1,11-20.3,15.6-27.8c1.2-1.9,2.3-3.6,3.3-5.3
					c1-1.6,2.1-3.1,3-4.5c1.9-2.8,3.5-5.2,4.9-7.1c2.7-3.8,4.2-5.8,4.2-5.8s3.1,5.4,7.9,13.2c2.4,3.9,5.3,8.5,8.3,13.2
					c3.1,4.7,6.5,9.8,10,14.6c3.4,4.9,7,9.7,10.4,14.1c3.3,4.4,6.6,8.5,9.4,11.9c2.8,3.4,5.1,6.2,6.8,8.2c1.7,2,2.6,3.1,2.6,3.1
					s-0.3,0.4-0.9,1.1c-0.6,0.8-1.6,1.9-2.7,3.3c-1.2,1.5-2.6,3.4-4.3,5.5c-1.6,2.2-3.5,4.8-5.6,7.7c-4,5.9-8.8,13.2-13.7,22
					c-4.9,8.8-10,19-14.6,30.6c-9.5,23.2-17.5,51.7-21.5,83.6c-0.6,4-1,8-1.4,12.1c-0.4,4.1-0.7,8.4-1,12.6
					c-0.2,4.2-0.5,8.5-0.6,12.6c-0.1,2.1-0.1,4.2-0.2,6.3c0,2.1-0.1,4.2-0.1,6.3c-0.2,16.7,0.5,33.2,1.8,49.3
					c2.7,32.3,8.2,63.3,15.8,92.3c7.5,29,17.3,56.1,28.3,80.3c5.5,12.1,11.4,23.4,17.3,33.7c5.9,10.3,11.9,19.6,17.3,27.4
					c1.4,2,2.8,3.9,4,5.6c0.6,0.9,1.3,1.7,1.9,2.6c0.6,0.8,1.2,1.7,1.8,2.4c1.2,1.6,2.3,3,3.3,4.4c0.5,0.7,1,1.3,1.5,1.9
					c0.5,0.6,1,1.2,1.4,1.8C130.5,454.7,132.4,457.1,132.4,457.1z"/>
			</g>
		</g>
	</g>
</g>
<g>
	<g>
		<g>
			<g>
				<path fill="#8F2046" d="M900,580c0-0.8,0.5-3.1,1.6-6.8c0.5-1.9,1.2-4,2-6.6c0.8-2.6,1.7-5.6,2.7-8.8c1.1-3.4,2.2-7,3.5-11
					c0.6-2,1.3-4.1,2-6.3c0.7-2.3,1.4-4.6,2.2-7c0.7-2.4,1.5-4.9,2.3-7.4c0.8-2.7,1.6-5.4,2.4-8.2c1.7-5.5,3.4-11.8,5.1-18.2
					c0.2-0.8,0.4-1.6,0.7-2.4c0.2-0.8,0.4-1.7,0.7-2.5c0.4-1.7,0.9-3.4,1.3-5.2c0.4-1.7,0.9-3.5,1.3-5.3c0.2-0.9,0.4-1.8,0.7-2.7
					c0.2-0.9,0.4-1.9,0.6-2.8c0.8-3.8,1.7-7.6,2.6-11.5c0.4-1.9,0.8-4,1.2-6c0.4-2,0.8-4.1,1.2-6.2c0.4-2.1,0.8-4.2,1.2-6.2
					c0.3-2.2,0.7-4.3,1-6.5c0.3-2.2,0.7-4.4,1-6.6c0.3-2.2,0.7-4.4,1-6.7c0.5-4.6,1.1-9.2,1.6-13.8c0.3-2.3,0.4-4.7,0.6-7.1
					c0.2-2.4,0.4-4.8,0.6-7.2c0.2-2.4,0.4-4.8,0.5-7.2c0.1-2.4,0.2-4.9,0.3-7.3c0.1-2.4,0.2-4.9,0.3-7.4c0-1.2,0.1-2.5,0.1-3.7
					c0-1.2,0-2.5,0-3.7c0-4.9-0.1-9.9-0.1-14.9c-0.2-4.9-0.4-9.9-0.7-14.8l-0.2-3.7c-0.1-1.3-0.1-2.5-0.3-3.7
					c-0.2-2.4-0.4-4.9-0.6-7.3c-0.2-2.5-0.4-4.9-0.7-7.4l-0.4-3.7l-0.4-3.2c-0.5-4.3-1.1-8.6-1.6-12.9c-0.5-4.3-1.2-8.6-1.9-12.9
					l-1-6.4c-0.3-2.1-0.7-4.3-1.1-6.4c-0.7-4.3-1.5-8.6-2.2-12.8c-0.9-4.3-1.7-8.5-2.6-12.8c-0.4-2.1-0.9-4.2-1.3-6.3
					c-0.5-2.1-1-4.2-1.5-6.3c-1-4.2-2-8.4-2.9-12.6c-1.1-4.2-2.2-8.3-3.3-12.5c-0.5-2.1-1.1-4.1-1.6-6.2c-0.6-2.1-1.2-4.1-1.8-6.2
					c-1.2-4.1-2.4-8.2-3.6-12.2c-9.9-32.3-22.5-62.8-36.1-89.2c-1.7-3.3-3.4-6.5-5-9.7c-0.8-1.6-1.7-3.1-2.6-4.7
					c-0.9-1.5-1.8-3.1-2.6-4.6c-3.5-6-6.7-11.7-10.3-17.1c-1.8-2.7-3.4-5.3-5.1-7.8c-0.8-1.3-1.6-2.5-2.4-3.7
					c-0.8-1.2-1.5-2.4-2.4-3.5c-3.4-4.7-6.5-8.9-9.3-12.7c-1.4-1.9-2.8-3.7-4.1-5.4c-1.4-1.7-2.7-3.3-3.9-4.8
					c-2.5-2.9-4.5-5.5-6.2-7.5c-3.4-4-5.2-6.2-5.2-6.2s1.7-0.2,4.5-0.6c2.9-0.3,7.1-0.8,12.1-1.2c5.1-0.5,11-0.9,17.5-1.2
					c3.2-0.2,6.6-0.3,10-0.4c3.3-0.1,6.7-0.2,10.1-0.3c6.8-0.1,13.7-0.1,20.3,0c6.5,0.1,12.8,0.4,17.8,0.6c5.1,0.2,9.5,0.5,12.5,0.7
					c3,0.2,4.8,0.3,4.8,0.3s1.3,2.7,3.9,7.7c0.6,1.3,1.3,2.7,2.1,4.2c0.7,1.5,1.4,3.2,2.3,5c1.6,3.6,3.4,7.7,5.4,12.3
					c1,2.3,2,4.7,3.1,7.2c1,2.5,2,5.1,3,7.8c2.1,5.4,4.2,11.3,6.5,17.5c2,6.1,4.1,12.6,6.3,19.5c0.5,1.7,1.1,3.5,1.6,5.2
					c0.5,1.7,1,3.5,1.4,5.2c1,3.5,1.9,7.1,2.9,10.8c7.7,29.3,13.6,62.2,17,96.2c3.3,34,4.1,69,2.6,103.9l-0.3,7.5l-0.3,7.6l-0.4,7.6
					c-0.2,2.5-0.4,5.1-0.6,7.7c-0.4,5.1-0.8,10.2-1.3,15.2c-0.6,5.1-1.2,10.2-1.9,15.2c-0.6,5-1.5,10.1-2.3,15
					c-0.4,2.5-0.9,5-1.3,7.4c-0.2,1.2-0.4,2.5-0.7,3.7c-0.3,1.2-0.5,2.4-0.8,3.6c-1,4.9-2,9.7-3.1,14.4c-1.1,4.7-2.3,9.3-3.5,13.9
					c-0.6,2.3-1.2,4.6-1.8,6.8c-0.7,2.2-1.3,4.4-2,6.5c-0.7,2.2-1.3,4.3-2,6.5c-0.7,2.1-1.3,4.3-2,6.3c-1.4,4.1-2.8,8.1-4.2,12
					c-0.3,1-0.7,2-1,2.9c-0.4,0.9-0.7,1.9-1.1,2.8c-0.7,1.9-1.4,3.7-2.2,5.5c-0.7,1.8-1.4,3.6-2.1,5.5c-0.4,0.9-0.7,1.8-1.1,2.7
					c-0.4,0.9-0.7,1.7-1.1,2.5c-1.5,3.4-2.9,6.7-4.3,9.9c-1.4,3.3-2.8,6.2-4.2,9.2c-1.4,2.9-2.8,5.8-4.1,8.7c-1.3,2.7-2.7,5.3-4,7.9
					c-0.6,1.3-1.3,2.5-1.9,3.8c-0.3,0.6-0.6,1.2-0.9,1.9c-0.3,0.6-0.6,1.2-0.9,1.7c-1.2,2.3-2.4,4.5-3.6,6.7
					c-0.6,1.1-1.2,2.1-1.7,3.2c-0.3,0.5-0.6,1-0.8,1.6c-0.3,0.5-0.5,1-0.8,1.5c-2.2,3.8-4.2,7.4-6.1,10.8c-1.8,3.2-3.5,6.1-5.1,8.7
					c-0.8,1.3-1.5,2.5-2.2,3.7c-0.7,1.1-1.3,2.2-1.9,3.1c-1.2,1.9-2.2,3.6-3,4.9C900.8,578.6,900,580,900,580z"/>
				<path fill="#8F2046" d="M808.2,549.3c0-0.7,0.5-3.1,1.5-6.7c0.5-1.8,1.2-4,1.9-6.5c0.8-2.5,1.7-5.4,2.6-8.5
					c3.9-12.7,9.8-30.3,15.9-52.7c3-11.2,6.1-23.5,8.5-37c0.3-1.7,0.6-3.4,1-5.1c0.3-1.7,0.6-3.5,0.8-5.2c0.5-3.5,1.2-7,1.6-10.6
					c0.4-3.6,0.9-7.3,1.3-10.9c0.4-3.7,0.6-7.4,1-11.2c0.1-1.9,0.3-3.8,0.4-5.7c0.1-1.9,0.2-3.8,0.2-5.7c0.1-1.9,0.1-3.9,0.2-5.8
					l0.1-2.9l0-2.9c0-3.9,0-7.8,0-11.7c-0.1-3.9-0.3-7.8-0.5-11.8c-0.1-4-0.5-7.9-0.8-11.8c-0.2-2-0.3-3.9-0.5-5.9l-0.3-2.9
					l-0.3-2.8c-0.4-3.7-0.9-7.4-1.3-11.2c-0.5-3.7-1.1-7.4-1.6-11.2l-0.8-5.6c-0.3-1.9-0.6-3.7-0.9-5.6c-0.6-3.7-1.3-7.4-1.9-11.1
					c-0.7-3.7-1.5-7.3-2.2-11c-0.4-1.8-0.7-3.7-1.1-5.5c-0.4-1.8-0.8-3.6-1.2-5.4c-0.8-3.6-1.7-7.2-2.5-10.8
					c-0.9-3.6-1.8-7.1-2.8-10.7c-0.5-1.8-0.9-3.5-1.4-5.3c-0.5-1.8-1-3.5-1.5-5.2c-1-3.5-2-6.9-3-10.3
					c-8.3-27.3-18.7-52.5-29.5-73.6c-1.4-2.6-2.7-5.2-4-7.8c-1.3-2.5-2.8-5-4.1-7.3c-2.8-4.8-5.2-9.3-8-13.4
					c-2.7-4.2-5.2-8.1-7.6-11.7c-2.6-3.5-4.9-6.8-7.1-9.7c-1.1-1.5-2.1-2.8-3.1-4.1c-1-1.3-2-2.5-2.9-3.6c-1.8-2.2-3.4-4.1-4.6-5.6
					c-2.5-3-3.9-4.7-3.9-4.7s1.5-0.4,4.1-1c2.6-0.7,6.4-1.6,11-2.6c4.6-1,10-2.1,15.9-3.1c2.9-0.5,6-1,9.1-1.5
					c3.1-0.5,6.2-0.9,9.3-1.3c6.3-0.8,12.7-1.5,18.7-2.1c6-0.5,11.8-0.9,16.5-1.2c4.8-0.3,8.8-0.4,11.7-0.5c2.8-0.1,4.5-0.1,4.5-0.1
					s1,2.2,3,6.4c0.5,1,1,2.2,1.6,3.5c0.6,1.3,1.1,2.6,1.7,4.1c1.2,3,2.6,6.4,4.2,10.2c0.8,1.9,1.6,3.9,2.4,6
					c0.8,2.1,1.5,4.3,2.3,6.6c1.6,4.6,3.3,9.5,5,14.7c1.6,5.2,3.2,10.7,4.8,16.5c0.4,1.4,0.8,2.9,1.2,4.4c0.4,1.5,0.7,3,1.1,4.5
					c0.7,3,1.5,6.1,2.2,9.2c5.9,25.1,10.3,53.5,12.5,83.2c2.2,29.7,2.1,60.5,0.1,91c-0.3,4.1-0.6,8.3-0.9,12.4l-0.5,6.2
					c-0.2,2.1-0.5,4.2-0.7,6.2c-0.5,4.1-1,8.3-1.5,12.4c-0.7,4.1-1.3,8.2-1.9,12.3c-2.8,16.2-6.4,31.9-11,46.5
					c-0.5,1.8-1.1,3.6-1.6,5.4c-0.6,1.8-1.2,3.5-1.8,5.3c-1.2,3.5-2.3,7-3.6,10.3c-1.3,3.3-2.5,6.6-3.8,9.8
					c-1.2,3.3-2.6,6.3-3.9,9.3c-0.6,1.5-1.3,3-1.9,4.5c-0.3,0.7-0.6,1.5-1,2.2c-0.3,0.7-0.7,1.4-1,2.1c-1.3,2.8-2.6,5.6-3.9,8.4
					c-1.3,2.8-2.6,5.3-3.9,7.9c-1.3,2.5-2.5,5-3.8,7.5c-2.5,4.7-4.9,9.3-7.2,13.5c-2.3,4.1-4.5,8.1-6.6,11.8c-2.1,3.6-4,7-5.8,10.1
					c-1.8,3-3.5,5.8-5,8.3C811.6,543.7,808.2,549.3,808.2,549.3z"/>
				<path fill="#8F2046" d="M716.4,518.6c0-0.7,0.5-3,1.5-6.7c0.5-1.8,1.2-4,1.9-6.4c0.8-2.4,1.6-5.2,2.5-8.2
					c3.8-12.1,9.1-28.5,14.2-47.1c2.5-9.3,5-19.2,6.9-29.4c1.9-10.3,3.6-20.9,4.3-31.9c0.1-1.4,0.3-2.8,0.3-4.1
					c0.1-1.4,0.1-2.8,0.2-4.2c0.1-1.4,0.1-2.8,0.2-4.2l0.1-2.1l0-2.1c0-2.8,0-5.7,0-8.6c-0.1-2.9-0.2-5.8-0.4-8.7
					c-0.1-2.9-0.3-5.8-0.6-8.8c-0.1-1.5-0.2-2.9-0.4-4.4l-0.2-2.2l-0.3-2.3c-0.4-3.1-0.7-6.3-1.1-9.4c-0.4-3.1-0.9-6.3-1.3-9.4
					l-0.7-4.7c-0.2-1.6-0.5-3.1-0.8-4.7c-0.5-3.1-1.1-6.2-1.6-9.3c-0.6-3.1-1.2-6.2-1.8-9.2c-0.3-1.5-0.6-3.1-0.9-4.6
					c-0.3-1.5-0.7-3-1-4.5c-0.7-3-1.4-6-2-9c-0.8-3-1.5-5.9-2.3-8.8c-0.4-1.5-0.7-2.9-1.1-4.4c-0.4-1.5-0.8-2.9-1.2-4.3
					c-0.8-2.8-1.6-5.7-2.5-8.5c-6.7-22.3-14.9-42.1-22.9-58.1c-1-2-2-3.9-3-5.8c-1-1.9-2-3.6-3-5.4c-2-3.5-3.8-6.9-5.8-9.8
					c-1.9-2.9-3.6-5.8-5.3-8.3c-1.8-2.4-3.4-4.7-4.8-6.7c-0.7-1-1.4-2-2.1-2.9c-0.7-0.8-1.3-1.6-1.9-2.4c-1.2-1.5-2.2-2.7-3-3.7
					c-1.6-2-2.5-3.1-2.5-3.1s1.3-0.6,3.6-1.5c2.3-1,5.7-2.3,9.8-3.9c4.1-1.5,9-3.3,14.3-5c2.6-0.9,5.4-1.8,8.2-2.6
					c2.8-0.8,5.6-1.6,8.5-2.4c5.7-1.5,11.6-2.9,17.1-4.1c5.5-1.2,10.9-2.2,15.3-3c4.5-0.8,8.2-1.3,10.9-1.7c2.6-0.4,4.2-0.6,4.2-0.6
					s0.7,1.7,2.1,5c0.3,0.8,0.7,1.7,1.1,2.7c0.4,1,0.8,2.1,1.2,3.3c0.9,2.4,1.8,5.1,2.9,8.2c0.5,1.5,1.1,3.1,1.7,4.8
					c0.6,1.7,1.1,3.5,1.6,5.3c1.1,3.7,2.3,7.7,3.6,11.9c1.1,4.2,2.2,8.8,3.4,13.5c0.3,1.2,0.6,2.4,0.9,3.6c0.3,1.2,0.5,2.5,0.8,3.7
					c0.5,2.5,1,5,1.6,7.6c4.1,20.8,7,44.8,8.1,70.1c1.1,25.3,0.2,52-2.3,78.1c-0.4,3.3-0.8,6.5-1.2,9.7l-0.6,4.8
					c-0.2,1.6-0.5,3.2-0.8,4.8c-0.5,3.2-1.1,6.3-1.6,9.5c-0.7,3.1-1.3,6.2-2,9.3c-2.9,12.3-6.2,23.9-10.3,34.9
					c-0.5,1.4-1,2.7-1.5,4.1c-0.5,1.3-1.1,2.7-1.6,4c-1.1,2.7-2.1,5.3-3.2,7.8c-2.3,5.1-4.4,10.1-6.8,14.9
					c-4.5,9.6-9.4,18.5-13.9,26.6c-9.2,16.3-17.5,29.9-23.4,39.7C719.8,513.1,716.4,518.6,716.4,518.6z"/>
				<path fill="#8F2046" d="M624.6,487.9c0-0.7,0.5-3,1.5-6.6c0.5-1.8,1.1-4,1.9-6.4c0.7-2.3,1.5-5,2.4-7.9
					c3.6-11.6,8.5-26.7,12.6-41.6c0.1-0.5,0.3-1,0.4-1.4c0.1-0.5,0.2-0.9,0.3-1.4c0.2-0.9,0.5-1.8,0.7-2.7c0.2-0.9,0.5-1.9,0.7-2.8
					c0.1-0.5,0.2-0.9,0.4-1.4c0.1-0.4,0.2-0.9,0.3-1.3c0.4-1.8,0.8-3.6,1.3-5.5c0.2-0.9,0.4-1.8,0.6-2.7c0.2-0.9,0.3-1.8,0.5-2.7
					c0.2-0.9,0.4-1.8,0.6-2.7c0.1-0.9,0.3-1.7,0.4-2.6c0.1-0.9,0.3-1.7,0.4-2.6c0.1-0.9,0.3-1.8,0.4-2.6c0.2-1.7,0.4-3.4,0.7-5.2
					c0.2-0.9,0.2-1.7,0.3-2.6c0.1-0.9,0.2-1.7,0.2-2.6c0.1-0.9,0.2-1.7,0.2-2.6c0-0.9,0.1-1.7,0.1-2.6c0-0.9,0.1-1.7,0.1-2.6
					l0.1-1.3l0-1.3c0-1.8,0-3.6,0.1-5.4c-0.1-1.9-0.1-3.7-0.2-5.6l0-1.4c0-0.5,0-0.9-0.1-1.4l-0.2-2.9l-0.2-3l-0.1-1.5l-0.2-1.9
					c-0.3-2.5-0.6-5.1-0.9-7.7c-0.3-2.6-0.7-5.1-1-7.7l-0.5-3.8c-0.2-1.3-0.4-2.5-0.6-3.8c-0.4-2.5-0.8-5.1-1.2-7.6
					c-0.5-2.5-1-5-1.5-7.5c-0.2-1.2-0.5-2.5-0.7-3.7c-0.3-1.2-0.5-2.4-0.8-3.6c-0.5-2.4-1.1-4.8-1.6-7.2c-0.6-2.3-1.2-4.7-1.8-7
					c-0.3-1.2-0.6-2.3-0.9-3.5c-0.3-1.2-0.6-2.2-1-3.4c-0.6-2.2-1.3-4.4-1.9-6.6c-5.1-17.4-11.1-31.8-16.3-42.5
					c-0.7-1.3-1.3-2.7-1.9-3.9c-0.3-0.7-0.6-1.2-1-1.8c-0.3-0.6-0.6-1.1-0.9-1.7c-1.2-2.2-2.3-4.5-3.5-6.1c-1.1-1.7-2.1-3.5-3-4.9
					c-1-1.3-1.8-2.5-2.6-3.6c-0.4-0.6-0.7-1.1-1-1.6c-0.3-0.4-0.7-0.8-0.9-1.1c-0.6-0.7-1.1-1.3-1.4-1.9c-0.8-1-1.1-1.6-1.1-1.6
					s1.2-0.7,3.2-2c2.1-1.3,5-3.1,8.6-5.2c3.6-2.1,7.9-4.5,12.7-6.9c2.4-1.2,4.8-2.5,7.4-3.6c2.5-1.1,5.1-2.3,7.7-3.4
					c5.2-2.2,10.5-4.3,15.6-6.2c5-1.9,9.9-3.6,14-4.8c4.1-1.3,7.6-2.2,10-2.9c2.4-0.7,3.8-1,3.8-1s0.4,1.3,1.2,3.7
					c0.2,0.6,0.4,1.3,0.7,2c0.2,0.7,0.5,1.6,0.7,2.5c0.5,1.8,1.1,3.9,1.7,6.2c0.3,1.1,0.7,2.3,1,3.6c0.3,1.3,0.6,2.7,1,4.1
					c0.6,2.8,1.3,5.9,2.1,9.1c0.6,3.3,1.3,6.8,2,10.6c0.2,0.9,0.4,1.8,0.5,2.8c0.1,1,0.3,2,0.4,2.9c0.3,2,0.6,4,0.9,6.1
					c2.3,16.5,3.7,36.1,3.7,57.1c-0.1,21-1.7,43.5-4.8,65.2c-0.1,0.7-0.2,1.2-0.3,1.8l-0.4,1.8l-0.7,3.5l-0.7,3.5
					c-0.3,1.1-0.6,2.2-0.9,3.4c-0.6,2.2-1.2,4.4-1.8,6.6c-0.7,2.1-1.4,4.2-2.1,6.3c-2.9,8.3-6,16-9.7,23.3c-0.4,0.9-0.9,1.8-1.3,2.7
					c-0.5,0.9-1,1.8-1.4,2.7c-1,1.8-1.8,3.6-2.8,5.4c-1,1.8-2,3.6-3,5.3l-0.7,1.3l-0.8,1.3c-0.5,0.9-1,1.8-1.5,2.7
					c-0.5,0.9-1,1.7-1.5,2.6l-0.7,1.3c-0.3,0.4-0.5,0.9-0.8,1.3c-1.1,1.8-2.1,3.5-3.1,5.2c-2.2,3.5-4.2,7-6.3,10.2
					c-9.2,14.8-16.8,27.1-22.2,35.7C627.9,482.5,624.6,487.9,624.6,487.9z"/>
				<path fill="#8F2046" d="M532.8,457.2c0-0.7,0.5-3,1.5-6.6c0.5-1.8,1.1-3.9,1.9-6.3c0.7-2.2,1.5-4.8,2.3-7.6
					c3.4-11,7.9-24.9,11-36.1c0.1-0.4,0.2-0.7,0.3-1.1l0.2-1c0.2-0.6,0.3-1.3,0.5-1.9c0.2-0.6,0.3-1.3,0.5-2l0.3-1l0.2-0.9
					c0.3-1.1,0.5-2.3,0.8-3.4c0.2-0.6,0.2-1.1,0.3-1.6c0.1-0.5,0.2-1,0.3-1.5c0.1-0.5,0.2-1,0.3-1.5c0.1-0.4,0.1-0.9,0.2-1.3
					c0.1-0.4,0.2-0.9,0.2-1.3c0.1-0.4,0.2-0.9,0.2-1.2c0.1-0.8,0.2-1.5,0.4-2.3c0.1-0.4,0.1-0.7,0.1-1.1c0-0.4,0.1-0.7,0.1-1.1
					c0-0.4,0.1-0.7,0.2-1.1c0-0.3,0-0.7,0-1c0-0.3,0.1-0.7,0.1-1c0-0.2,0.1-0.3,0.1-0.5l0-0.6c0-0.7,0-1.5,0.1-2.2
					c0-0.8-0.1-1.7,0-2.5l0-0.6l0-0.3l0-0.4c0-0.5-0.1-1-0.1-1.5c0-0.5,0-1-0.1-1.5l0-0.8l-0.2-1.5c-0.2-2-0.4-3.9-0.6-5.9
					c-0.2-2-0.5-3.9-0.8-5.9l-0.4-3c-0.1-1-0.3-2-0.5-2.9c-0.3-2-0.6-3.9-0.9-5.9c-0.4-1.9-0.7-3.8-1.1-5.7c-0.2-1-0.3-1.9-0.5-2.8
					c-0.2-0.9-0.4-1.8-0.6-2.7c-0.4-1.8-0.8-3.7-1.1-5.5c-0.4-1.7-0.9-3.5-1.3-5.2c-0.2-0.9-0.4-1.7-0.6-2.6
					c-0.2-0.8-0.5-1.6-0.7-2.4c-0.5-1.6-0.9-3.2-1.3-4.8c-3.5-12.4-7.2-21.4-9.7-26.9c-0.3-0.7-0.6-1.3-0.9-2
					c-0.1-0.4-0.3-0.6-0.4-0.8c-0.1-0.2-0.3-0.5-0.4-0.7c-0.5-0.9-0.9-2-1.2-2.4c-0.2-0.3-0.3-0.5-0.4-0.8c-0.1-0.1-0.1-0.3-0.2-0.4
					c0-0.1-0.1-0.3-0.1-0.3c-0.2-0.2-0.2-0.4-0.3-0.6c0-0.1,0-0.2,0-0.3c0,0,0,0.1,0,0.1l0,0c0,0,0,0,0.1-0.1l0.5-0.4
					c0.3-0.3,0.6-0.5,0.9-0.7c0.6-0.5,1.1-1,1.7-1.4c1.1-0.9,2-1.7,2.9-2.5c1.7-1.5,3-2.7,3.9-3.6c0.9-0.8,1.3-1.3,1.3-1.3
					s-0.6,0.6-1.7,1.6c-0.5,0.5-1.2,1.1-1.9,1.8l-0.3,0.3l-0.1,0.1l0,0l0.1-0.1l0.1-0.1c0.3-0.3,0.7-0.6,1-0.9
					c0.7-0.6,1.5-1.2,2.2-1.9c3.2-2.6,6.9-5.7,11.1-8.8c2.1-1.6,4.2-3.2,6.5-4.7c2.2-1.5,4.5-3,6.9-4.4c4.7-2.9,9.4-5.7,14-8.3
					c4.6-2.5,8.9-4.9,12.7-6.6c3.8-1.8,7-3.2,9.2-4.1c2.3-1,3.5-1.5,3.5-1.5s0.1,0.8,0.3,2.3c0.1,0.4,0.1,0.8,0.2,1.3
					c0.1,0.5,0.1,1.1,0.2,1.7c0.1,1.2,0.3,2.6,0.5,4.1c0.1,0.8,0.2,1.6,0.3,2.4c0.1,0.9,0.2,1.9,0.3,2.8c0.2,1.9,0.4,4.1,0.6,6.3
					c0.2,2.4,0.3,4.9,0.5,7.6c0,0.7,0.1,1.3,0.1,2c0,0.7,0.1,1.4,0.1,2.2c0.1,1.5,0.1,2.9,0.2,4.5c0.5,12.2,0.4,27.4-0.8,44.1
					c-1.2,16.7-3.6,35-7.3,52.3l-0.1,0.4c0,0.1-0.1,0.2-0.1,0.3l-0.2,0.5l-0.5,1.1l-0.9,2.1l-0.8,2.1c-0.3,0.7-0.7,1.3-1,1.9
					c-0.6,1.2-1.3,2.5-1.9,3.7c-0.7,1.1-1.4,2.3-2.1,3.3c-0.6,1.1-1.4,2.1-2.2,3.1l-1.1,1.5c-0.2,0.2-0.3,0.5-0.5,0.7l-0.6,0.7
					c-0.8,1-1.5,1.9-2.3,2.8c-0.8,1-1.6,1.9-2.4,2.8c-1.6,2-3.3,3.9-4.8,5.8c-0.9,1-1.7,2.1-2.5,3.1c-0.9,1.1-1.8,2.2-2.6,3.3
					c-0.4,0.6-0.9,1.1-1.3,1.7c-0.5,0.6-0.9,1.2-1.3,1.8c-0.9,1.2-1.8,2.4-2.7,3.6c-0.5,0.6-0.9,1.3-1.4,1.9c-0.5,0.7-1,1.3-1.4,2
					c-0.9,1.3-1.9,2.6-2.8,3.9c-1,1.4-1.9,2.8-2.9,4.2c-0.5,0.7-0.9,1.3-1.4,2c-0.5,0.7-0.9,1.4-1.4,2.1c-1,1.4-1.9,2.8-2.8,4.2
					c-0.5,0.7-0.9,1.3-1.3,2c-0.2,0.3-0.4,0.7-0.7,1c-0.2,0.4-0.5,0.7-0.7,1.1c-1.8,2.8-3.6,5.5-5.1,7.9c-1.7,2.7-3.2,5.1-4.6,7.3
					c-0.7,1.1-1.4,2.2-2,3.1c-0.7,1.1-1.3,2.1-1.8,3c-1.1,1.9-2.1,3.4-2.9,4.7C533.6,455.9,532.8,457.2,532.8,457.2z"/>
			</g>
		</g>
	</g>
</g>
<g>
	<g>
		<g>
			<g>
				<path fill="#8F2046" d="M550.8,810.6c0.1-0.1,0.2-0.1,0.4-0.1c0.1,0,0.1,0,0.2,0c0.1,0,0.1,0,0.3,0.1c0.1,0.1,0.2,0.1,0.3,0.2
					c0.1,0,0.1,0.1,0.2,0.1c0.1,0.1,0.1,0.1,0.2,0.2c0.2,0.1,0.3,0.3,0.5,0.5c0.2,0.2,0.4,0.5,0.6,0.7c0.9,1.1,2.1,2.7,3.6,5
					c1.5,2.3,3.3,5.4,5.1,9c3.7,7.3,7.9,17.3,11.1,28.1c3.3,10.8,5.5,22.5,6.3,32.2c0.2,2.5,0.3,4.7,0.3,6.9c0,2.1,0,4.1-0.1,5.8
					c-0.1,1.9-0.3,3.9-0.6,5.8c-0.1,1-0.3,1.9-0.4,2.8c-0.2,0.9-0.3,1.9-0.6,2.8c-1.5,7.3-4.4,13.7-7.8,18.5
					c-3.4,4.9-7.2,8.1-10,10.1c-0.7,0.5-1.3,0.9-1.9,1.3c-0.6,0.4-1.1,0.7-1.5,0.9c-0.8,0.4-1.2,0.7-1.2,0.7s-3.6-3-9.4-7.4
					c-5.8-4.4-13.7-10.1-22.2-15.5c-8.4-5.4-17.3-10.5-24.2-14.1c-6.9-3.6-11.6-5.9-11.6-5.9s0.3,0.1,0.9,0.4c0.6,0.3,1.5,0.6,2.7,1
					c2.3,0.8,5.9,1.8,10.4,1.9c4.4,0.2,9.9-0.4,15.3-2.5c0.7-0.3,1.4-0.5,2.1-0.8c0.7-0.3,1.4-0.4,2.1-0.7c0.7-0.3,1.4-0.6,2.1-1.1
					l1-0.7l1-0.8c2.7-2.3,5.2-5.6,7.4-9.6c4.4-8,7.6-18.4,9.6-28.6c2-10.2,3-19.9,3.7-27.5c0.4-3.8,0.7-7.1,1-9.7
					c0.3-2.7,0.7-4.7,1.2-6.2c0.4-1.4,0.9-2.5,1.3-3.1C550.6,810.9,550.8,810.6,550.8,810.6z"/>
				<path fill="#8F2046" d="M622.5,745.5c0.9,0.2,3.9,2.9,8.6,8.8c4.6,5.9,10.7,15,16.9,26.9c6.2,11.9,12.4,26.7,17.4,42.8
					c5,16.1,8.8,33.7,10.5,50.7c0.4,4.3,0.7,8.5,0.9,12.6c0.1,4.1,0.2,8.2,0,12.2c-0.1,4-0.4,8-0.8,11.9c-0.2,2-0.5,3.9-0.7,5.8
					c-0.3,1.9-0.6,3.8-1,5.7c-1.4,7.5-3.4,14.7-5.9,21.2c-2.5,6.5-5.6,12.4-8.9,17.5c-6.6,10.3-14.3,17.2-20,21.4
					c-0.7,0.5-1.4,1-2,1.5c-0.6,0.5-1.3,0.8-1.8,1.2c-1.1,0.8-2.1,1.4-3,1.9c-1.6,1-2.5,1.5-2.5,1.5s-3-3.4-7.9-8.4
					c-4.9-5-11.7-11.5-19-17.7c-7.3-6.3-15.2-12.3-21.3-16.6c-3-2.2-5.6-3.9-7.5-5.2c-1.8-1.2-2.9-1.9-2.9-1.9s0.7-0.2,1.9-0.6
					c0.6-0.2,1.3-0.5,2.2-0.8c0.9-0.3,1.9-0.7,3-1.2c4.4-1.9,10.6-5.2,17-10.6c6.4-5.3,13.2-12.7,18.9-22.2c0.8-1.2,1.4-2.4,2.2-3.6
					c0.7-1.2,1.4-2.4,2.1-3.6c0.6-1.3,1.4-2.6,2-3.9c0.3-0.7,0.6-1.4,1-2.1l0.9-2.2c2.4-5.9,4.4-12.5,6.1-19.5
					c3.3-14.1,4.9-29.8,5.1-44.7c0.2-15-0.9-29.3-2.7-41.2c-1.7-12-4-21.5-5.7-27.9c-0.9-3.2-1.6-5.6-2.1-7.2
					C622.8,746.4,622.5,745.5,622.5,745.5z"/>
				<path fill="#8F2046" d="M694.2,680.5c1.3,0.6,7,6.3,14.4,15.9c7.4,9.6,16.4,23.2,25,39.8c17.2,33.1,33.1,78.2,38.2,126.8
					c0.7,6.1,1.1,12.2,1.4,18.3c0.2,6.2,0.4,12.3,0.2,18.5c-0.1,6.1-0.4,12.2-1,18.1c-0.2,3-0.6,5.9-1,8.8c-0.4,2.9-0.8,5.8-1.3,8.7
					c-0.9,5.7-2.2,11.3-3.5,16.7c-1.4,5.4-3,10.6-4.8,15.6c-3.5,10-7.8,19-12.4,27c-4.6,8-9.6,14.8-14.4,20.4
					c-4.8,5.7-9.4,10.1-13.4,13.7c-1,0.9-1.9,1.7-2.8,2.5c-0.9,0.8-1.8,1.4-2.6,2.1c-1.6,1.3-3,2.4-4.1,3.2
					c-2.3,1.7-3.5,2.5-3.5,2.5s-3.2-4.3-8.1-10.4c-2.4-3-5.4-6.7-8.6-10.3c-1.6-1.9-3.2-3.7-5-5.7c-0.9-1-1.7-1.9-2.6-2.9l-1.3-1.4
					l-1.2-1.3c-3.1-3.5-6.4-7.1-9.5-10.4c-3.1-3.2-6.2-6.3-8.8-8.8c-2.7-2.5-4.9-4.6-6.5-6.1c-1.6-1.5-2.6-2.3-2.6-2.3
					s0.2-0.1,0.7-0.4c0.5-0.3,1.2-0.7,2.1-1.2c0.9-0.6,2-1.3,3.3-2.1c1.3-0.9,2.8-1.9,4.4-3c6.4-4.7,15.2-12.2,23.6-23.1
					c8.4-10.9,16.5-25.1,22.6-41.8c6.2-16.6,10.5-36,12.6-56.2c2.2-20.2,2.3-41.1,0.7-60.9c-1.6-19.8-4.8-38.6-9-54.9
					c-4.1-16.3-9.3-30-13.6-39.8c-2.2-4.9-4.1-8.7-5.5-11.4C695,681.9,694.2,680.5,694.2,680.5z"/>
				<path fill="#8F2046" d="M765.9,615.5c0.4,0.3,1.3,1,2.4,2.2c0.6,0.6,1.3,1.3,2,2.1c0.8,0.8,1.6,1.7,2.5,2.7
					c0.9,1,1.8,2.1,2.9,3.2c0.5,0.6,1,1.2,1.6,1.8c0.5,0.6,1.1,1.3,1.6,1.9c1.1,1.4,2.3,2.8,3.5,4.3c1.2,1.5,2.4,3.1,3.7,4.8
					c5.1,6.7,10.7,14.6,16.3,23.4c5.6,8.8,11.3,18.6,16.8,29.2c5.5,10.6,10.9,22,15.9,34.1c5,12.1,9.8,24.9,14,38.3
					c8.5,26.8,15.2,56.2,18.7,87.7c0.9,7.9,1.5,15.9,1.9,24c0.4,8.2,0.6,16.4,0.4,24.8c-0.2,8.2-0.5,16.3-1.2,24.3
					c-0.3,4-0.8,7.9-1.2,11.9c-0.5,3.9-1,7.8-1.7,11.6c-1.2,7.7-2.7,15.1-4.4,22.4c-1.7,7.3-3.7,14.3-5.9,21
					c-4.3,13.5-9.5,25.9-15,36.9c-5.5,11-11.4,20.6-17,28.7c-5.6,8.2-11,14.7-15.6,20c-1.2,1.3-2.2,2.6-3.3,3.7
					c-1,1.2-2.1,2.2-3,3.2c-1.9,2-3.4,3.6-4.8,4.9c-2.6,2.6-4,4-4,4s-2.9-5-7.4-12.1c-2.2-3.5-5-7.8-7.9-12.1
					c-2.9-4.3-6.2-8.9-9.5-13.4c-3.3-4.4-6.7-8.9-9.9-12.9c-3.2-4-6.3-7.8-9-10.9c-2.7-3.1-4.9-5.7-6.5-7.5
					c-1.6-1.8-2.5-2.8-2.5-2.8s0.3-0.2,0.9-0.7c0.6-0.5,1.5-1.1,2.7-2.1c1.1-1,2.5-2.1,4.2-3.5c1.6-1.4,3.4-3.1,5.5-5
					c4-3.9,8.7-8.8,13.6-14.8c4.9-6,10.1-13.2,15.1-21.5c10-16.5,19.2-37.6,25.6-61.7c0.8-3,1.5-6.1,2.3-9.2c0.7-3.1,1.4-6.3,2-9.5
					c0.6-3.2,1.2-6.4,1.8-9.7c0.3-1.6,0.5-3.2,0.8-4.9c0.2-1.6,0.5-3.2,0.7-4.9c1.9-13.1,3-26.2,3.5-39.4c1-26.3-0.4-52.4-3.8-77.1
					c-3.4-24.7-8.7-48-15.3-68.6c-3.3-10.3-6.9-19.9-10.6-28.7c-3.7-8.7-7.5-16.5-10.9-23.1c-3.5-6.6-6.7-11.9-9-15.5
					C767.2,617.4,765.9,615.5,765.9,615.5z"/>
				<path fill="#8F2046" d="M837.6,550.4c0.5,0.4,1.6,1.4,3.1,3c0.8,0.8,1.7,1.7,2.6,2.8c1,1.1,2.1,2.3,3.2,3.5
					c1.1,1.3,2.4,2.7,3.7,4.3c0.7,0.8,1.4,1.6,2.1,2.4c0.7,0.8,1.4,1.7,2.1,2.5c1.4,1.8,2.9,3.6,4.5,5.6c1.5,1.9,3.1,4,4.7,6.1
					c6.5,8.6,13.5,18.5,20.5,29.5c7,11,14,23.1,20.7,36c6.7,12.9,13.2,26.7,19.3,41.2c6.1,14.5,11.8,29.8,16.9,45.9
					c10.3,32.2,18.5,67.4,22.9,106.2c1.1,9.7,1.9,19.7,2.5,29.7c0.5,10.2,0.8,20.5,0.6,31.2c0,2.7-0.1,5.2-0.2,7.7
					c-0.1,2.5-0.1,5.1-0.3,7.6c-0.2,5.1-0.6,10.1-1,15.1c-0.4,5-0.9,9.9-1.5,14.9c-0.6,4.9-1.2,9.8-2,14.6
					c-5.7,38.5-17,73.4-29.8,101.4c-6.4,14.1-13.2,26.4-19.6,37c-6.4,10.6-12.6,19.3-17.8,26.4c-1.3,1.8-2.6,3.4-3.7,5
					c-1.2,1.6-2.3,2.9-3.4,4.3c-2.1,2.6-3.9,4.9-5.5,6.6c-3,3.5-4.6,5.4-4.6,5.4s-2.6-5.7-6.8-13.8c-2-4.1-4.6-8.9-7.2-13.8
					c-2.7-4.9-5.7-10.3-8.7-15.4c-3-5.1-6.2-10.3-9.2-14.9c-3-4.7-5.9-9-8.4-12.7c-2.5-3.7-4.6-6.6-6.1-8.7
					c-1.5-2.1-2.4-3.3-2.4-3.3s0.4-0.4,1-1.1c0.7-0.7,1.7-1.7,3-3.1c1.3-1.4,2.9-3.1,4.7-5.2c1.8-2.1,3.9-4.5,6.2-7.2
					c4.5-5.5,9.8-12.4,15.4-20.8c5.6-8.4,11.5-18.2,17.1-29.3c11.3-22.3,21.6-50.1,28.3-81.6c0.9-3.9,1.6-7.9,2.4-11.9
					c0.7-4.1,1.4-8.3,2-12.5c0.6-4.1,1.2-8.4,1.7-12.5c0.2-2.1,0.5-4.2,0.7-6.3c0.2-2.1,0.4-4.1,0.6-6.2c1.6-16.7,2.2-33.1,2.2-49.3
					c-0.1-32.4-3-63.7-8.2-93.3c-5.2-29.5-12.6-57.3-21.7-82.3c-4.5-12.5-9.4-24.2-14.5-35c-5-10.7-10.3-20.5-15-28.7
					c-1.2-2.1-2.4-4.1-3.5-5.9c-0.6-0.9-1.1-1.8-1.6-2.7c-0.6-0.9-1.1-1.8-1.6-2.6c-1.1-1.7-2.1-3.2-3-4.6c-0.5-0.7-0.9-1.4-1.3-2
					c-0.4-0.7-0.9-1.3-1.3-1.9C839.4,553,837.6,550.4,837.6,550.4z"/>
			</g>
		</g>
	</g>
</g>
<g>
	<g>
		<g>
			<g>
				<path fill="#8F2046" d="M82.6,365.4c0,0.8-0.8,3-2.1,6.6c-0.7,1.8-1.5,3.9-2.5,6.4c-1,2.5-2.2,5.4-3.5,8.6
					c-1.3,3.3-2.8,6.8-4.4,10.7c-0.8,2-1.6,4-2.5,6.1c-0.9,2.2-1.8,4.5-2.7,6.8c-0.9,2.3-1.9,4.8-2.9,7.2c-1,2.6-2,5.3-3.1,8
					c-2.1,5.3-4.3,11.5-6.6,17.7c-0.3,0.8-0.6,1.6-0.9,2.4c-0.3,0.8-0.6,1.7-0.9,2.5c-0.6,1.7-1.1,3.4-1.7,5.1
					c-0.6,1.7-1.2,3.4-1.8,5.2c-0.3,0.9-0.6,1.7-0.9,2.6c-0.3,0.9-0.6,1.8-0.9,2.7c-1.1,3.7-2.3,7.4-3.5,11.2
					c-0.6,1.9-1.1,3.9-1.7,5.9c-0.6,2-1.1,4-1.7,6c-0.6,2-1.1,4.1-1.7,6.1c-0.5,2.1-1,4.3-1.6,6.4c-0.5,2.1-1,4.3-1.6,6.5
					c-0.5,2.2-1.1,4.3-1.5,6.6c-0.9,4.5-1.8,9.1-2.7,13.7c-0.5,2.3-0.8,4.7-1.2,7c-0.4,2.4-0.8,4.7-1.1,7.1
					c-0.4,2.4-0.8,4.8-1.1,7.2c-0.3,2.4-0.6,4.8-0.9,7.3c-0.3,2.4-0.6,4.9-0.9,7.3c-0.1,1.2-0.3,2.4-0.4,3.7
					c-0.1,1.2-0.2,2.5-0.3,3.7c-0.4,4.9-0.7,9.9-1.1,14.8c-0.2,4.9-0.4,9.9-0.5,14.9l-0.1,3.7c0,1.3-0.1,2.5,0,3.7
					c0,2.5,0,4.9,0,7.4c0,2.5,0,4.9,0.1,7.4l0,3.7l0.1,3.2c0.2,4.3,0.3,8.7,0.5,13c0.2,4.3,0.5,8.7,0.8,13l0.4,6.5
					c0.2,2.2,0.4,4.3,0.6,6.5c0.4,4.3,0.8,8.6,1.2,13c0.5,4.3,1,8.6,1.5,12.9c0.3,2.1,0.5,4.3,0.8,6.4c0.3,2.1,0.6,4.3,0.9,6.4
					c0.6,4.3,1.3,8.5,1.9,12.8c0.7,4.3,1.5,8.5,2.2,12.7c0.4,2.1,0.8,4.2,1.1,6.3c0.4,2.1,0.9,4.2,1.3,6.3c0.9,4.2,1.7,8.3,2.6,12.4
					c7.3,33,17.3,64.4,28.7,91.8c1.4,3.4,2.9,6.8,4.2,10.1c0.7,1.6,1.5,3.3,2.2,4.9c0.8,1.6,1.5,3.2,2.3,4.8
					c3,6.3,5.7,12.2,8.9,17.9c1.5,2.8,3,5.6,4.4,8.2c0.7,1.3,1.4,2.6,2.1,3.9c0.7,1.3,1.3,2.5,2.1,3.7c3,4.9,5.7,9.4,8.3,13.5
					c1.3,2,2.5,3.9,3.6,5.7c1.3,1.8,2.4,3.5,3.5,5.1c2.2,3.1,4.1,5.8,5.6,8c3.1,4.3,4.7,6.6,4.7,6.6s-1.7,0.1-4.6,0.2
					c-2.9,0.1-7.1,0.2-12.2,0.3c-5.1,0-11,0-17.5-0.2c-3.2-0.1-6.6-0.2-10-0.4c-3.3-0.1-6.7-0.3-10.1-0.5c-6.8-0.4-13.7-1-20.2-1.7
					c-6.5-0.6-12.7-1.4-17.7-2c-5.1-0.6-9.4-1.2-12.4-1.7c-3-0.5-4.7-0.7-4.7-0.7s-1.1-2.8-3.2-8c-0.5-1.3-1.1-2.8-1.7-4.4
					c-0.6-1.6-1.2-3.3-1.8-5.1c-1.3-3.7-2.8-7.9-4.4-12.7c-0.8-2.4-1.6-4.9-2.5-7.5c-0.8-2.6-1.6-5.2-2.4-8
					c-1.6-5.6-3.3-11.6-5.1-18c-1.5-6.3-3.1-12.9-4.7-19.9c-0.4-1.7-0.8-3.5-1.2-5.3c-0.3-1.8-0.7-3.5-1-5.3c-0.7-3.6-1.3-7.3-2-11
					c-5.3-29.9-8.5-63.1-9.1-97.2c-0.6-34.1,1.6-69.1,5.9-103.8l0.9-7.4l0.9-7.5l1-7.5c0.4-2.5,0.8-5.1,1.2-7.6
					c0.8-5.1,1.7-10.1,2.6-15.1c1-5,2.1-10.1,3.1-15c1-5,2.3-9.9,3.5-14.8c0.6-2.4,1.3-4.9,1.9-7.3c0.3-1.2,0.6-2.4,1-3.6
					c0.4-1.2,0.7-2.4,1.1-3.6c1.4-4.8,2.8-9.5,4.3-14.1c1.5-4.6,3.1-9.1,4.6-13.5c0.8-2.2,1.6-4.4,2.4-6.6c0.8-2.1,1.7-4.3,2.5-6.4
					c0.8-2.1,1.7-4.2,2.5-6.3c0.8-2.1,1.6-4.2,2.5-6.1c1.7-3.9,3.5-7.8,5.1-11.7c0.4-1,0.9-1.9,1.3-2.9c0.4-0.9,0.9-1.8,1.3-2.7
					c0.9-1.8,1.7-3.6,2.6-5.4c0.9-1.8,1.7-3.5,2.6-5.3c0.4-0.9,0.9-1.7,1.3-2.6c0.4-0.8,0.9-1.6,1.3-2.4c1.7-3.2,3.4-6.4,5.1-9.6
					c1.7-3.2,3.3-6,4.9-8.8c1.6-2.8,3.2-5.6,4.8-8.3c1.6-2.6,3.1-5.1,4.6-7.5c0.7-1.2,1.5-2.4,2.2-3.6c0.4-0.6,0.7-1.2,1.1-1.8
					c0.4-0.6,0.7-1.1,1.1-1.7c1.4-2.2,2.8-4.3,4.1-6.4c0.7-1,1.3-2,2-3.1c0.3-0.5,0.6-1,1-1.5c0.3-0.5,0.6-0.9,0.9-1.4
					c2.5-3.7,4.8-7.1,6.9-10.2c2.1-3,4-5.8,5.8-8.2c0.9-1.2,1.7-2.4,2.5-3.5c0.8-1.1,1.5-2,2.1-3c1.3-1.8,2.4-3.4,3.3-4.7
					C81.6,366.8,82.6,365.4,82.6,365.4z"/>
				<path fill="#8F2046" d="M171.6,403.5c0,0.7-0.7,3-2.1,6.6c-0.7,1.8-1.5,3.9-2.5,6.3c-1,2.5-2.1,5.2-3.3,8.3
					c-5,12.3-12.2,29.4-20.1,51.2c-3.9,10.9-8,22.9-11.5,36.2c-0.5,1.6-0.9,3.3-1.4,5c-0.4,1.7-0.8,3.4-1.3,5.1
					c-0.8,3.4-1.7,6.9-2.5,10.4c-0.7,3.6-1.5,7.2-2.2,10.8c-0.7,3.6-1.2,7.4-1.9,11.1c-0.3,1.9-0.6,3.7-0.9,5.6
					c-0.2,1.9-0.5,3.8-0.7,5.7c-0.2,1.9-0.5,3.8-0.7,5.7l-0.3,2.9l-0.2,2.9c-0.3,3.9-0.6,7.8-0.9,11.7c-0.2,3.9-0.3,7.8-0.5,11.8
					c-0.2,4-0.1,7.9-0.1,11.8c0,2,0,3.9,0,5.9l0,3l0.1,2.8c0.1,3.7,0.3,7.5,0.4,11.2c0.2,3.8,0.4,7.5,0.7,11.2l0.4,5.6
					c0.1,1.9,0.3,3.7,0.5,5.6c0.3,3.7,0.7,7.5,1,11.2c0.4,3.7,0.9,7.4,1.3,11.1c0.2,1.9,0.4,3.7,0.6,5.5c0.3,1.8,0.5,3.7,0.8,5.5
					c0.5,3.7,1.1,7.3,1.6,11c0.6,3.6,1.3,7.3,1.9,10.8c0.3,1.8,0.6,3.6,0.9,5.4c0.3,1.8,0.7,3.6,1.1,5.3c0.7,3.5,1.5,7.1,2.2,10.5
					c6.1,27.9,14.4,53.8,23.4,75.8c1.1,2.7,2.3,5.4,3.4,8.1c1.1,2.6,2.4,5.2,3.5,7.7c2.4,5,4.5,9.7,6.9,14.1
					c2.4,4.4,4.5,8.5,6.7,12.2c2.3,3.7,4.4,7.2,6.3,10.2c1,1.5,1.9,3,2.7,4.4c0.9,1.3,1.8,2.6,2.6,3.8c1.6,2.3,3,4.3,4.2,6
					c2.3,3.2,3.5,5,3.5,5s-1.5,0.3-4.2,0.7c-2.7,0.4-6.5,1-11.1,1.7c-4.6,0.6-10.1,1.3-16.1,1.8c-3,0.3-6.1,0.5-9.2,0.8
					c-3.1,0.2-6.2,0.4-9.4,0.6c-6.3,0.3-12.7,0.5-18.8,0.5c-6,0-11.8,0-16.6-0.2c-4.8-0.1-8.8-0.3-11.7-0.4
					c-2.8-0.1-4.5-0.2-4.5-0.2s-0.9-2.3-2.5-6.6c-0.4-1.1-0.8-2.3-1.3-3.6c-0.5-1.3-0.9-2.7-1.4-4.3c-1-3.1-2.1-6.6-3.3-10.5
					c-0.6-2-1.2-4-1.9-6.2c-0.6-2.2-1.2-4.4-1.8-6.7c-1.2-4.7-2.5-9.7-3.8-15.1c-1.1-5.3-2.3-10.9-3.5-16.8c-0.3-1.5-0.6-3-0.9-4.5
					c-0.2-1.5-0.5-3-0.7-4.5c-0.5-3.1-1-6.2-1.5-9.4c-3.8-25.4-5.9-54.2-5.7-83.9c0.2-29.7,2.8-60.5,7.3-90.7
					c0.6-4.1,1.3-8.2,1.9-12.3l1-6.1c0.4-2.1,0.8-4.1,1.2-6.2c0.8-4.1,1.6-8.2,2.5-12.2c1-4,2-8.1,2.9-12.1
					c4.2-15.9,9-31.3,14.7-45.4c0.7-1.8,1.4-3.5,2.1-5.3c0.7-1.7,1.5-3.4,2.2-5.1c1.5-3.4,2.9-6.8,4.4-10c1.5-3.2,3.1-6.3,4.6-9.5
					c1.5-3.1,3.1-6,4.6-9c0.8-1.5,1.5-2.9,2.3-4.3c0.4-0.7,0.8-1.4,1.1-2.1c0.4-0.7,0.8-1.4,1.2-2.1c1.5-2.7,3.1-5.4,4.6-8
					c1.5-2.7,3-5.1,4.5-7.5c1.5-2.4,2.9-4.8,4.4-7.1c2.9-4.5,5.6-8.9,8.3-12.8c2.7-3.9,5.2-7.7,7.5-11.2c2.4-3.4,4.6-6.6,6.6-9.6
					c2-2.9,3.9-5.5,5.6-7.9C167.7,408.8,171.6,403.5,171.6,403.5z"/>
				<path fill="#8F2046" d="M260.6,441.5c0,0.7-0.7,3-2.1,6.5c-0.7,1.8-1.5,3.9-2.4,6.3c-0.9,2.4-2,5-3.2,8
					c-4.7,11.8-11.4,27.7-18,45.8c-3.2,9.1-6.5,18.7-9.2,28.8c-2.8,10.1-5.3,20.6-6.9,31.5c-0.2,1.4-0.5,2.7-0.7,4.1
					c-0.2,1.4-0.3,2.8-0.5,4.1c-0.2,1.4-0.3,2.8-0.5,4.2l-0.3,2.1l-0.2,2.1c-0.2,2.8-0.5,5.7-0.7,8.5c-0.1,2.9-0.2,5.8-0.4,8.7
					c-0.2,2.9-0.1,5.9-0.1,8.8c0,1.5,0,3,0,4.4l0,2.2l0.1,2.4c0.1,3.2,0.2,6.3,0.3,9.5c0.1,3.2,0.4,6.3,0.5,9.5l0.3,4.7
					c0.1,1.6,0.3,3.2,0.4,4.7c0.3,3.1,0.5,6.3,0.8,9.4c0.4,3.1,0.7,6.2,1.1,9.3c0.2,1.6,0.3,3.1,0.5,4.7c0.2,1.5,0.4,3.1,0.7,4.6
					c0.4,3.1,0.9,6.1,1.3,9.2c0.5,3,1,6,1.5,9c0.3,1.5,0.5,3,0.8,4.5c0.3,1.5,0.6,2.9,0.9,4.4c0.6,2.9,1.2,5.8,1.8,8.7
					c4.9,22.8,11.4,43.2,18.1,59.7c0.8,2.1,1.7,4.1,2.5,6.1c0.8,2,1.7,3.8,2.6,5.6c1.7,3.6,3.2,7.2,4.9,10.2
					c1.7,3.1,3.2,6.1,4.6,8.7c1.5,2.6,3,4.9,4.3,7c0.6,1.1,1.2,2.1,1.8,3c0.6,0.9,1.2,1.7,1.7,2.5c1.1,1.6,2,2.9,2.7,4
					c1.5,2.2,2.3,3.3,2.3,3.3s-1.4,0.4-3.8,1.2c-2.4,0.8-5.9,1.9-10.1,3.1c-4.2,1.2-9.2,2.5-14.6,3.8c-2.7,0.6-5.6,1.3-8.4,1.9
					c-2.8,0.6-5.7,1.1-8.7,1.7c-5.8,1-11.8,2-17.4,2.7c-5.6,0.7-11,1.3-15.5,1.7c-4.5,0.4-8.3,0.7-11,0.8c-2.7,0.2-4.2,0.2-4.2,0.2
					s-0.6-1.8-1.7-5.2c-0.3-0.8-0.6-1.8-0.9-2.8c-0.3-1-0.6-2.2-0.9-3.4c-0.7-2.4-1.4-5.3-2.3-8.4c-0.4-1.6-0.9-3.2-1.3-4.9
					c-0.4-1.7-0.8-3.6-1.2-5.4c-0.8-3.8-1.7-7.8-2.6-12.2c-0.7-4.3-1.5-8.9-2.3-13.8c-0.2-1.2-0.4-2.4-0.6-3.7
					c-0.2-1.2-0.3-2.5-0.5-3.8c-0.3-2.5-0.6-5.1-0.9-7.7c-2.4-21-3.3-45.2-2.3-70.5c1-25.3,4-51.9,8.7-77.7c0.6-3.2,1.3-6.4,2-9.6
					l1-4.8c0.4-1.6,0.8-3.2,1.2-4.7c0.8-3.1,1.6-6.2,2.4-9.3c0.9-3,1.8-6.1,2.8-9.1c3.9-12,8.1-23.4,13.1-34
					c0.6-1.3,1.2-2.6,1.8-3.9c0.6-1.3,1.3-2.6,1.9-3.9c1.3-2.6,2.5-5.1,3.8-7.5c2.7-4.9,5.2-9.7,8-14.3c5.3-9.2,10.9-17.6,16-25.4
					c10.5-15.5,19.9-28.4,26.6-37.6C256.8,446.8,260.6,441.5,260.6,441.5z"/>
				<path fill="#8F2046" d="M349.6,479.6c0,0.7-0.7,3-2,6.5c-0.7,1.8-1.5,3.8-2.4,6.2c-0.9,2.3-1.9,4.8-3.1,7.7
					c-4.5,11.2-10.7,25.9-15.9,40.5c-0.2,0.5-0.3,0.9-0.5,1.4c-0.2,0.4-0.3,0.9-0.5,1.3c-0.3,0.9-0.6,1.8-0.9,2.7
					c-0.3,0.9-0.6,1.8-0.9,2.7c-0.2,0.5-0.3,0.9-0.5,1.4c-0.1,0.4-0.3,0.9-0.4,1.3c-0.6,1.8-1.1,3.5-1.7,5.3
					c-0.3,0.9-0.5,1.8-0.8,2.6c-0.2,0.9-0.5,1.7-0.7,2.6c-0.3,0.9-0.5,1.8-0.8,2.6c-0.2,0.8-0.4,1.7-0.6,2.6
					c-0.2,0.9-0.4,1.7-0.6,2.6c-0.2,0.9-0.5,1.7-0.6,2.6c-0.3,1.7-0.7,3.4-1.1,5.1c-0.2,0.9-0.3,1.7-0.5,2.5
					c-0.1,0.8-0.3,1.7-0.4,2.6c-0.1,0.9-0.3,1.7-0.5,2.6c-0.1,0.9-0.2,1.7-0.3,2.6c-0.1,0.9-0.2,1.7-0.4,2.6l-0.2,1.3l-0.1,1.3
					c-0.1,1.8-0.3,3.6-0.5,5.4c-0.1,1.9-0.2,3.7-0.3,5.6l-0.1,1.4c0,0.5-0.1,0.9,0,1.4l0,3l0,3l0,1.5l0.1,1.9
					c0.1,2.6,0.2,5.1,0.2,7.7c0.1,2.6,0.3,5.1,0.4,7.7l0.2,3.9c0.1,1.3,0.2,2.6,0.3,3.8c0.2,2.6,0.4,5.1,0.6,7.7
					c0.3,2.5,0.6,5.1,0.8,7.6c0.1,1.3,0.3,2.5,0.4,3.8c0.2,1.2,0.3,2.5,0.5,3.7c0.3,2.5,0.7,4.9,1,7.4c0.4,2.4,0.8,4.8,1.2,7.1
					c0.2,1.2,0.4,2.4,0.6,3.5c0.2,1.2,0.5,2.3,0.7,3.4c0.4,2.3,0.9,4.5,1.3,6.8c3.7,17.7,8.4,32.6,12.8,43.7
					c0.5,1.4,1.1,2.7,1.6,4.1c0.2,0.7,0.5,1.2,0.8,1.8c0.3,0.6,0.5,1.2,0.8,1.7c1.1,2.3,1.9,4.6,3,6.3c1,1.8,1.8,3.6,2.6,5.1
					c0.9,1.4,1.6,2.7,2.2,3.8c0.3,0.6,0.6,1.1,0.9,1.7c0.3,0.4,0.6,0.8,0.9,1.2c0.5,0.8,0.9,1.4,1.3,2c0.7,1.1,1,1.7,1,1.7
					s-1.2,0.6-3.4,1.8c-2.1,1.1-5.2,2.7-9,4.5c-3.8,1.8-8.3,3.8-13.2,5.9c-2.4,1-5,2.1-7.6,3c-2.6,0.9-5.3,1.9-7.9,2.8
					c-5.4,1.8-10.8,3.4-16,4.9c-5.2,1.4-10.2,2.7-14.3,3.6c-4.2,0.9-7.7,1.6-10.2,2.1c-2.5,0.5-3.9,0.7-3.9,0.7s-0.3-1.3-0.9-3.8
					c-0.2-0.6-0.3-1.3-0.5-2c-0.2-0.8-0.3-1.6-0.5-2.5c-0.3-1.8-0.8-3.9-1.2-6.3c-0.2-1.2-0.5-2.4-0.7-3.7c-0.2-1.3-0.4-2.7-0.6-4.1
					c-0.4-2.9-0.9-5.9-1.3-9.2c-0.3-3.4-0.7-6.9-1.1-10.7c-0.1-0.9-0.2-1.9-0.3-2.8c-0.1-1-0.1-2-0.2-3c-0.1-2-0.2-4-0.4-6.1
					c-0.9-16.6-0.8-36.3,1-57.2c1.8-20.9,5.3-43.2,10.1-64.6c0.1-0.7,0.3-1.2,0.5-1.8l0.5-1.7l1-3.4l1-3.4c0.4-1.1,0.8-2.2,1.2-3.3
					c0.8-2.1,1.5-4.3,2.3-6.4c0.9-2.1,1.7-4.1,2.6-6.1c3.6-8,7.3-15.4,11.5-22.5c0.5-0.9,1-1.7,1.5-2.6c0.6-0.9,1.1-1.7,1.7-2.6
					c1.1-1.7,2.1-3.4,3.2-5.1c1.1-1.7,2.3-3.4,3.4-5.1l0.8-1.2l0.9-1.3c0.6-0.8,1.2-1.7,1.8-2.5c0.6-0.8,1.1-1.7,1.7-2.5l0.8-1.2
					l0.9-1.3c1.2-1.7,2.4-3.3,3.5-4.9c2.4-3.4,4.8-6.6,7.1-9.7c10.4-14,19-25.6,25-33.8C345.8,484.8,349.6,479.6,349.6,479.6z"/>
				<path fill="#8F2046" d="M438.6,517.7c0,0.7-0.7,2.9-2,6.4c-0.6,1.7-1.5,3.8-2.4,6.1c-0.9,2.2-1.9,4.7-2.9,7.4
					c-4.3,10.7-9.9,24.2-13.9,35.1c-0.1,0.4-0.3,0.7-0.4,1.1l-0.3,1c-0.2,0.6-0.4,1.3-0.6,1.9c-0.2,0.6-0.5,1.3-0.7,1.9l-0.4,1
					l-0.3,0.8c-0.3,1.1-0.7,2.2-1.1,3.4c-0.2,0.6-0.3,1-0.5,1.5c-0.1,0.5-0.3,1-0.4,1.5c-0.2,0.5-0.3,1-0.5,1.5
					c-0.1,0.4-0.2,0.8-0.3,1.3c-0.1,0.4-0.2,0.8-0.3,1.3c-0.1,0.4-0.3,0.9-0.3,1.2c-0.1,0.7-0.3,1.5-0.5,2.2
					c-0.1,0.4-0.1,0.7-0.2,1.1c-0.1,0.3-0.1,0.7-0.2,1c-0.1,0.3-0.2,0.7-0.2,1c0,0.3-0.1,0.7-0.1,1c-0.1,0.3-0.1,0.7-0.2,1
					c0,0.2-0.1,0.3-0.1,0.5l0,0.6c-0.1,0.7-0.2,1.5-0.3,2.2c0,0.8-0.1,1.7-0.2,2.5l-0.1,0.6l0,0.3l0,0.4c0,0.5,0,1,0,1.5
					c0,0.5,0,1-0.1,1.5l-0.1,0.8l0.1,1.5c0,2,0.1,3.9,0.1,5.9c0.1,2,0.2,4,0.3,6l0.1,3c0.1,1,0.2,2,0.2,3c0.1,2,0.3,3.9,0.4,5.9
					c0.2,1.9,0.4,3.9,0.6,5.8c0.1,1,0.2,1.9,0.3,2.9c0.1,0.9,0.3,1.9,0.4,2.8c0.2,1.9,0.5,3.7,0.7,5.5c0.3,1.8,0.6,3.5,0.9,5.3
					c0.1,0.9,0.3,1.7,0.4,2.6c0.1,0.9,0.3,1.7,0.5,2.5c0.3,1.6,0.6,3.3,0.9,4.9c2.5,12.6,5.5,22,7.5,27.6c0.3,0.7,0.5,1.4,0.7,2.1
					c0.1,0.4,0.2,0.6,0.3,0.8c0.1,0.2,0.2,0.5,0.3,0.7c0.4,0.9,0.7,2.1,1,2.5c0.1,0.3,0.2,0.6,0.3,0.8c0,0.1,0.1,0.3,0.1,0.4
					c0,0.1,0.1,0.3,0.1,0.3c0.1,0.2,0.2,0.4,0.2,0.6c0,0.1,0,0.2,0,0.3c0,0,0-0.1,0-0.1l0,0c0,0,0.1,0-0.1,0l-0.5,0.3
					c-0.3,0.2-0.6,0.4-1,0.7c-0.6,0.4-1.2,0.9-1.8,1.3c-1.1,0.8-2.2,1.6-3.1,2.3c-1.8,1.4-3.2,2.5-4.2,3.2c-0.9,0.8-1.4,1.2-1.4,1.2
					s0.7-0.5,1.8-1.5c0.6-0.5,1.3-1,2.1-1.6l0.3-0.2l0.2-0.1l0,0l-0.1,0l-0.1,0.1c-0.4,0.3-0.7,0.5-1.1,0.8
					c-0.8,0.5-1.6,1.1-2.4,1.7c-3.4,2.4-7.3,5.1-11.7,7.9c-2.2,1.4-4.5,2.8-6.8,4.2c-2.4,1.3-4.8,2.6-7.2,3.8
					c-4.9,2.5-9.9,4.9-14.6,7.1c-4.8,2.1-9.3,4.1-13.2,5.5c-3.9,1.4-7.2,2.6-9.5,3.4c-2.3,0.8-3.7,1.2-3.7,1.2s-0.1-0.8-0.2-2.4
					c0-0.4-0.1-0.8-0.1-1.3c0-0.5,0-1.1-0.1-1.7c0-1.2-0.1-2.6-0.1-4.2c0-0.8-0.1-1.6-0.1-2.4c0-0.9,0-1.9,0-2.8
					c0-2-0.1-4.1-0.1-6.3c0-2.4,0.1-4.9,0.1-7.6c0-0.7,0-1.3,0-2c0-0.7,0.1-1.4,0.1-2.2c0.1-1.5,0.1-2.9,0.2-4.5
					c0.5-12.2,1.8-27.3,4.4-43.9c2.5-16.5,6.5-34.6,11.5-51.6l0.1-0.4c0-0.1,0.1-0.2,0.1-0.3l0.3-0.5l0.5-1l1-2l1-2
					c0.4-0.6,0.8-1.2,1.2-1.8c0.7-1.2,1.5-2.4,2.2-3.5c0.8-1.1,1.6-2.1,2.4-3.2c0.7-1,1.6-2,2.4-2.9l1.2-1.4
					c0.2-0.2,0.4-0.5,0.6-0.7l0.7-0.7c0.9-0.9,1.7-1.8,2.5-2.6c0.9-0.9,1.7-1.8,2.6-2.6c1.8-1.8,3.6-3.6,5.3-5.4
					c0.9-1,1.9-1.9,2.8-2.9c1-1,1.9-2.1,2.9-3.1c0.5-0.5,1-1,1.4-1.5c0.5-0.5,1-1.1,1.5-1.6c1-1.2,2-2.3,3-3.4
					c0.5-0.6,1-1.2,1.5-1.7c0.5-0.6,1.1-1.2,1.6-1.9c1-1.2,2.1-2.4,3.1-3.6c1.1-1.3,2.2-2.6,3.2-3.9c0.5-0.6,1-1.3,1.5-1.9
					c0.5-0.7,1.1-1.3,1.6-2c1.1-1.4,2.1-2.7,3.1-4c0.5-0.6,1-1.3,1.5-1.9c0.2-0.3,0.5-0.6,0.7-0.9c0.3-0.3,0.5-0.7,0.8-1
					c2.1-2.7,4-5.2,5.8-7.5c1.9-2.5,3.6-4.8,5.2-6.9c0.8-1,1.5-2,2.2-3c0.7-1,1.4-1.9,2.1-2.8c1.3-1.8,2.4-3.3,3.3-4.5
					C437.6,519,438.6,517.7,438.6,517.7z"/>
			</g>
		</g>
	</g>
</g>
<g>
	<g>
		<g>
			<g>
				<path fill="#8F2046" d="M2100,427.5c-0.1-0.1-0.2-0.2-0.3-0.3c0-0.1-0.1-0.1-0.1-0.2c0-0.1-0.1-0.1,0-0.3c0-0.1,0-0.2,0-0.4
					c0-0.1,0-0.1,0-0.2c0-0.1,0.1-0.2,0.1-0.3c0.1-0.2,0.1-0.4,0.2-0.7c0.1-0.3,0.3-0.6,0.4-0.9c0.6-1.3,1.6-3.1,3.1-5.4
					c1.5-2.3,3.5-5.2,6.1-8.4c5.1-6.4,12.4-14.3,21-21.7c8.5-7.5,18.2-14.3,26.7-19.1c2.1-1.2,4.2-2.2,6.1-3.2
					c1.9-0.9,3.7-1.7,5.4-2.3c1.8-0.7,3.6-1.4,5.5-1.9c0.9-0.3,1.8-0.5,2.7-0.8c0.9-0.2,1.8-0.5,2.7-0.6c7.3-1.6,14.3-1.7,20.1-0.6
					c5.8,1,10.4,3.2,13.3,5c0.7,0.4,1.4,0.8,1.9,1.2c0.6,0.4,1,0.7,1.4,1c0.7,0.6,1.1,0.8,1.1,0.8s-1.3,4.6-2.9,11.6
					c-1.6,7.1-3.5,16.7-4.9,26.6c-1.4,9.9-2.4,20.1-2.8,27.9c-0.5,7.7-0.6,13-0.6,13s0-0.3,0-1c0-0.7,0-1.6-0.2-2.9
					c-0.2-2.5-0.8-6.1-2.5-10.3c-1.7-4.1-4.4-8.8-8.6-12.9c-0.5-0.5-1-1-1.6-1.5c-0.5-0.5-0.9-1.1-1.5-1.6c-0.6-0.5-1.1-1-1.8-1.4
					l-1.1-0.7l-1.2-0.6c-3.2-1.5-7.3-2.4-11.8-2.8c-9.1-0.7-19.9,0.7-30,3.1c-10.1,2.4-19.4,5.5-26.6,8c-3.6,1.2-6.7,2.3-9.3,3.1
					c-2.6,0.8-4.6,1.3-6.1,1.5c-1.5,0.2-2.6,0.2-3.3,0.1C2100.4,427.6,2100,427.5,2100,427.5z"/>
				<path fill="#8F2046" d="M2011.2,389.1c-0.2-0.9,1-4.8,4.5-11.4c3.4-6.6,9.2-15.9,17.6-26.5c8.3-10.6,19.2-22.3,31.8-33.5
					c12.6-11.3,27-21.9,41.9-30.5c3.7-2.2,7.4-4.1,11.1-6c3.7-1.8,7.4-3.6,11.1-5.1c3.7-1.5,7.4-3,11.2-4.2c1.9-0.7,3.8-1.2,5.6-1.8
					c1.9-0.5,3.7-1.1,5.6-1.5c7.4-1.9,14.7-3,21.7-3.4c7-0.4,13.6,0,19.6,0.8c12.1,1.8,21.5,5.9,27.7,9.3c0.8,0.4,1.5,0.8,2.2,1.2
					c0.7,0.4,1.3,0.8,1.9,1.2c1.2,0.7,2.2,1.4,2.9,1.9c1.6,1.1,2.4,1.7,2.4,1.7s-1.9,4.2-4.3,10.6c-2.5,6.5-5.6,15.4-8.3,24.7
					c-2.7,9.3-4.9,18.9-6.3,26.2c-0.7,3.7-1.3,6.7-1.6,8.9c-0.4,2.2-0.6,3.4-0.6,3.4s-0.5-0.5-1.3-1.5c-0.5-0.5-1-1-1.7-1.7
					c-0.7-0.6-1.4-1.4-2.3-2.2c-3.6-3.2-9.1-7.5-16.6-11.1c-7.5-3.6-17-6.7-28-8.1c-1.4-0.2-2.8-0.3-4.2-0.5
					c-1.4-0.1-2.7-0.3-4.2-0.4c-1.4-0.1-2.9-0.2-4.4-0.1c-0.8,0-1.5,0-2.3,0c-0.8,0-1.6,0.1-2.3,0.1c-6.3,0.2-13.2,1.1-20.3,2.5
					c-14.2,2.8-29.1,7.8-42.9,13.8c-13.8,6-26.3,13-36.4,19.5c-10.2,6.5-17.9,12.5-23,16.7c-2.5,2.1-4.4,3.8-5.7,4.9
					C2011.9,388.5,2011.2,389.1,2011.2,389.1z"/>
				<path fill="#8F2046" d="M1922.3,350.7c0.1-1.4,2.8-9,8.5-19.7c5.7-10.7,14.4-24.5,25.9-39.2c23-29.3,57.5-62.4,99.6-87.2
					c5.2-3.1,10.7-6,16.1-8.9c5.5-2.8,11.1-5.4,16.7-7.9c5.6-2.4,11.2-4.6,16.9-6.6c2.8-1,5.7-1.9,8.4-2.8c2.8-0.8,5.6-1.7,8.4-2.4
					c5.6-1.5,11.2-2.7,16.6-3.7c5.5-0.9,10.9-1.7,16.2-2.1c10.5-0.9,20.6-0.7,29.7,0.2c9.2,0.9,17.4,2.6,24.5,4.6
					c7.2,2,13.1,4.4,18,6.5c1.2,0.5,2.3,1.1,3.4,1.5c1.1,0.5,2,1,3,1.5c1.8,0.9,3.4,1.7,4.6,2.4c2.5,1.4,3.8,2.1,3.8,2.1
					s-2.6,4.7-6.2,11.7c-1.8,3.5-3.8,7.7-5.9,12.1c-1,2.2-2.1,4.5-3.1,6.9c-0.5,1.2-1,2.4-1.5,3.6l-0.8,1.8l-0.7,1.6
					c-1.9,4.3-3.8,8.7-5.5,12.9c-1.7,4.2-3.2,8.2-4.4,11.7c-1.2,3.5-2.2,6.4-2.8,8.5c-0.6,2.1-1,3.3-1,3.3s-0.2-0.2-0.7-0.5
					c-0.4-0.3-1.1-0.8-2-1.4c-0.9-0.6-2-1.3-3.3-2.2c-1.3-0.8-2.8-1.7-4.6-2.7c-6.9-3.9-17.4-8.8-30.8-11.9
					c-13.4-3.2-29.7-4.6-47.4-3.2c-17.7,1.3-37.1,5.4-56.4,11.8c-19.3,6.4-38.4,14.9-55.8,24.6c-17.4,9.6-33.2,20.4-46.3,30.9
					c-13.1,10.5-23.5,20.9-30.6,28.9c-3.5,4-6.2,7.4-8.1,9.8C1923.3,349.4,1922.3,350.7,1922.3,350.7z"/>
				<path fill="#8F2046" d="M1833.5,312.3c0.1-0.5,0.4-1.6,1-3.1c0.3-0.8,0.6-1.7,1-2.7c0.4-1,0.9-2.2,1.4-3.4
					c0.5-1.2,1.1-2.5,1.8-4c0.3-0.7,0.7-1.5,1-2.2c0.4-0.7,0.7-1.5,1.1-2.3c0.8-1.6,1.6-3.2,2.5-5c0.9-1.7,1.8-3.5,2.8-5.4
					c4-7.4,8.9-15.7,14.6-24.5c5.7-8.8,12.3-18,19.7-27.4c7.4-9.4,15.5-19,24.4-28.5c8.9-9.6,18.6-19.2,29.1-28.6
					c20.9-18.8,44.8-37.1,72.1-53.3c6.8-4.1,13.9-7.9,21.1-11.7c7.3-3.7,14.7-7.3,22.4-10.7c7.6-3.3,15-6.3,22.6-8.9
					c3.8-1.4,7.5-2.6,11.3-3.8c3.8-1.1,7.5-2.3,11.3-3.3c7.5-2.1,14.9-3.8,22.2-5.3c7.3-1.4,14.5-2.5,21.6-3.4
					c14.1-1.7,27.5-2,39.8-1.6c12.3,0.5,23.5,1.8,33.2,3.6c9.7,1.7,18,4,24.7,5.9c1.7,0.5,3.3,1,4.7,1.4c1.5,0.5,2.8,1,4.1,1.4
					c2.6,0.9,4.7,1.6,6.4,2.3c3.5,1.3,5.3,2,5.3,2s-3.3,4.7-8,11.8c-2.3,3.5-5,7.7-7.7,12.2c-2.7,4.4-5.6,9.3-8.3,14.2
					c-2.7,4.8-5.3,9.8-7.7,14.4c-2.3,4.6-4.5,9-6.2,12.7c-1.8,3.7-3.1,6.8-4.1,9c-1,2.2-1.5,3.5-1.5,3.5s-0.4-0.2-1-0.5
					c-0.7-0.3-1.7-0.9-3-1.6c-1.3-0.6-3-1.4-4.9-2.4c-2-0.9-4.3-1.9-6.8-2.9c-5.2-2-11.6-4.3-19.1-6.3c-7.5-2-16.2-3.7-25.8-4.8
					c-19.2-2.3-42.1-1.9-66.7,2.2c-3.1,0.5-6.2,1.1-9.3,1.7c-3.1,0.6-6.3,1.4-9.5,2.1c-3.1,0.8-6.4,1.5-9.5,2.4
					c-1.6,0.4-3.2,0.9-4.8,1.3c-1.6,0.5-3.1,0.9-4.7,1.4c-12.7,3.7-25.1,8.1-37.3,13.1c-24.4,9.9-47.6,22-68.6,35.3
					c-21.1,13.3-40.1,27.8-56.1,42.3c-8,7.3-15.3,14.5-21.7,21.5c-6.4,7-12,13.7-16.5,19.5c-4.5,5.9-8.1,11-10.4,14.6
					C1834.7,310.4,1833.5,312.3,1833.5,312.3z"/>
				<path fill="#8F2046" d="M1744.6,273.9c0.1-0.7,0.6-2,1.4-4.1c0.4-1,0.9-2.2,1.4-3.6c0.6-1.4,1.2-2.9,1.9-4.4
					c0.7-1.6,1.5-3.3,2.3-5.2c0.4-0.9,0.9-1.9,1.3-2.9c0.5-1,0.9-1.9,1.4-3c1-2,2.1-4.2,3.2-6.4c1.1-2.2,2.4-4.5,3.6-6.9
					c5.1-9.4,11.3-20,18.4-30.9c7.1-10.9,15.2-22.2,24.2-33.7c9-11.5,18.8-23,29.5-34.6c10.7-11.5,22.3-23,34.8-34.4
					c25-22.6,53.7-44.7,87.2-64.7c8.3-5,17.1-9.9,26.1-14.5c9.1-4.7,18.4-9.2,28.1-13.4c2.4-1.1,4.7-2,7.1-3c2.4-1,4.7-2,7.1-2.9
					c4.7-1.9,9.4-3.7,14.2-5.4c4.7-1.7,9.4-3.3,14.1-4.8c4.7-1.5,9.4-2.9,14.1-4.2c37.4-10.7,73.8-14.8,104.7-14.8
					c15.4,0,29.5,1,41.8,2.6c12.3,1.4,22.8,3.5,31.4,5.3c2.1,0.5,4.2,0.9,6.1,1.3c1.9,0.4,3.6,0.9,5.3,1.3c3.3,0.8,6.1,1.6,8.3,2.2
					c4.5,1.3,6.8,2,6.8,2s-4.1,4.8-9.8,11.9c-2.8,3.5-6.2,7.8-9.6,12.3c-3.4,4.5-7,9.4-10.4,14.3c-3.4,4.9-6.8,9.9-9.8,14.5
					c-3,4.6-5.8,9.1-8.1,12.8c-2.3,3.8-4.1,6.9-5.4,9.2c-1.3,2.2-2,3.5-2,3.5s-0.5-0.2-1.4-0.5c-0.9-0.3-2.3-0.9-4.1-1.5
					c-1.8-0.6-4-1.3-6.7-2.2c-2.6-0.8-5.7-1.7-9.1-2.6c-6.9-1.8-15.4-3.8-25.3-5.4c-9.9-1.6-21.3-2.9-33.8-3.4
					c-25-1.1-54.6,1.1-86,8c-3.9,0.8-7.9,1.8-11.8,2.8c-4,1-8.1,2.2-12.2,3.3c-4,1.2-8.1,2.4-12.1,3.7c-2,0.6-4,1.3-6,1.9
					c-2,0.7-3.9,1.3-5.9,2c-15.8,5.5-31,11.6-45.8,18.4c-29.5,13.5-56.8,29.1-81.5,46.1c-24.8,16.9-47,35.2-66,53.8
					c-9.5,9.3-18.2,18.6-25.9,27.6c-7.7,9-14.4,17.8-19.9,25.5c-1.4,2-2.7,3.9-3.9,5.7c-0.6,0.9-1.2,1.8-1.8,2.6
					c-0.6,0.9-1.1,1.7-1.7,2.6c-1.1,1.7-2.1,3.2-3,4.6c-0.5,0.7-0.9,1.4-1.3,2c-0.4,0.7-0.8,1.3-1.2,1.9
					C1746.2,271.3,1744.6,273.9,1744.6,273.9z"/>
			</g>
		</g>
	</g>
</g>
<g>
	<g>
		<g>
			<g>
				<path fill="#8F2046" d="M1888.4,1037.9c0.7-0.3,3.1-0.6,6.9-0.8c1.9-0.1,4.2-0.3,6.8-0.4c2.7-0.1,5.8-0.3,9.3-0.4
					c3.5-0.1,7.4-0.3,11.5-0.5c2.1-0.1,4.3-0.2,6.6-0.2c2.4-0.1,4.8-0.2,7.3-0.3c2.5-0.1,5.1-0.2,7.8-0.4c2.8-0.2,5.6-0.3,8.6-0.5
					c5.7-0.3,12.2-0.8,18.9-1.3c0.8-0.1,1.7-0.1,2.5-0.2c0.9-0.1,1.7-0.2,2.6-0.2c1.8-0.2,3.5-0.3,5.3-0.5c1.8-0.2,3.6-0.4,5.4-0.5
					c0.9-0.1,1.8-0.2,2.7-0.3c0.9-0.1,1.9-0.2,2.9-0.3c3.8-0.5,7.7-1,11.7-1.5c1.9-0.2,4-0.6,6.1-0.9c2.1-0.3,4.1-0.6,6.2-1
					c2.1-0.3,4.2-0.7,6.3-1c2.1-0.4,4.3-0.8,6.5-1.2c2.2-0.4,4.4-0.8,6.5-1.3c2.2-0.4,4.4-0.8,6.6-1.4c4.5-1,9-2.1,13.6-3.1
					c2.3-0.5,4.6-1.2,6.9-1.8c2.3-0.6,4.6-1.3,6.9-1.9c2.3-0.7,4.7-1.3,7-2c2.3-0.7,4.6-1.5,7-2.2c2.3-0.7,4.7-1.5,7-2.2
					c1.2-0.4,2.3-0.8,3.5-1.1l3.5-1.3c4.6-1.7,9.3-3.4,14-5.1c4.6-1.8,9.2-3.7,13.7-5.6l3.4-1.4c1.2-0.5,2.3-1,3.4-1.5
					c2.2-1,4.5-2.1,6.7-3.1c2.2-1,4.5-2.1,6.7-3.1l3.3-1.6l2.9-1.5c3.9-2,7.8-3.9,11.6-5.9c3.9-2,7.7-4.1,11.5-6.1l5.7-3.1
					c1.9-1,3.8-2.1,5.7-3.2c3.8-2.2,7.5-4.3,11.3-6.4c3.7-2.2,7.4-4.5,11.1-6.7c1.8-1.1,3.7-2.2,5.5-3.4c1.8-1.2,3.6-2.3,5.5-3.5
					c3.6-2.3,7.2-4.7,10.8-7c3.6-2.4,7.1-4.9,10.6-7.3c1.8-1.2,3.5-2.4,5.3-3.6c1.7-1.2,3.5-2.5,5.2-3.8c3.4-2.5,6.9-5,10.2-7.5
					c27-20.3,51.5-42.4,71.7-64.1c2.5-2.7,5-5.4,7.4-8c1.2-1.3,2.4-2.7,3.5-4.1c1.2-1.4,2.3-2.7,3.4-4c4.5-5.4,8.8-10.3,12.6-15.5
					c1.9-2.6,3.8-5,5.6-7.4c0.9-1.2,1.8-2.4,2.6-3.5c0.9-1.2,1.7-2.3,2.5-3.5c3.2-4.7,6.2-9.1,8.8-13.1c1.3-2,2.6-3.9,3.7-5.7
					c1.1-1.9,2.2-3.7,3.2-5.3c1.9-3.3,3.6-6.1,4.9-8.4c2.6-4.6,4-7,4-7s0.7,1.5,2.1,4.1c1.3,2.6,3.1,6.4,5.3,11
					c2.1,4.6,4.6,10,7.1,16c1.2,3,2.5,6.1,3.8,9.2c1.2,3.1,2.5,6.2,3.7,9.4c2.4,6.4,4.8,12.9,6.8,19.1c2.1,6.2,3.9,12.1,5.5,17
					c1.5,4.9,2.8,9.1,3.6,12c0.8,2.9,1.3,4.6,1.3,4.6s-2.1,2.2-5.9,6.2c-1,1-2.1,2.1-3.3,3.4c-1.2,1.2-2.5,2.4-3.9,3.8
					c-2.8,2.7-6.1,5.8-9.7,9.2c-1.8,1.7-3.8,3.5-5.8,5.4c-2,1.8-4.1,3.6-6.3,5.5c-4.4,3.8-9.2,7.8-14.3,12.1
					c-5.1,4-10.5,8.2-16.2,12.5c-1.4,1.1-2.9,2.2-4.3,3.3c-1.5,1-2.9,2.1-4.4,3.1c-3,2.1-6.1,4.2-9.2,6.4
					c-25,17.2-54,33.9-84.8,48.5c-30.8,14.6-63.6,27.1-96.9,37.5l-7.1,2.3l-7.3,2.3l-7.2,2.2c-2.5,0.7-5,1.4-7.4,2
					c-5,1.3-9.9,2.7-14.8,3.9c-5,1.2-10,2.3-15,3.4c-4.9,1.1-10,2-14.9,2.9c-2.5,0.4-5,0.9-7.4,1.3c-1.2,0.2-2.5,0.4-3.7,0.6
					c-1.2,0.2-2.5,0.3-3.7,0.5c-4.9,0.7-9.8,1.3-14.6,1.9c-4.8,0.5-9.5,1-14.2,1.4c-2.3,0.2-4.7,0.4-7,0.6c-2.3,0.1-4.6,0.2-6.8,0.4
					c-2.3,0.1-4.5,0.2-6.7,0.3c-2.2,0.1-4.5,0.2-6.6,0.2c-4.3,0-8.5,0.1-12.7,0.1c-1,0-2.1,0-3.1,0c-1,0-2,0-3-0.1
					c-2-0.1-4-0.1-6-0.2c-2-0.1-3.9-0.1-5.9-0.2c-1,0-1.9-0.1-2.9-0.1c-0.9-0.1-1.8-0.1-2.8-0.2c-3.7-0.2-7.3-0.5-10.8-0.7
					c-3.6-0.2-6.8-0.6-10.1-0.9c-3.2-0.3-6.4-0.6-9.5-0.9c-3-0.4-5.9-0.7-8.7-1.1c-1.4-0.2-2.8-0.4-4.2-0.5
					c-0.7-0.1-1.4-0.2-2.1-0.3c-0.7-0.1-1.3-0.2-1.9-0.3c-2.6-0.4-5.1-0.8-7.5-1.1c-1.2-0.2-2.4-0.4-3.6-0.5
					c-0.6-0.1-1.2-0.2-1.8-0.3c-0.6-0.1-1.1-0.2-1.6-0.3c-4.4-0.7-8.4-1.4-12.2-2.1c-3.6-0.7-6.9-1.3-9.9-1.8
					c-1.5-0.3-2.9-0.5-4.2-0.8c-1.3-0.3-2.5-0.5-3.6-0.7c-2.2-0.4-4.1-0.8-5.6-1.1C1890,1038.2,1888.4,1037.9,1888.4,1037.9z"/>
				<path fill="#8F2046" d="M1886.2,941.1c0.7-0.3,3-0.6,6.9-0.8c1.9-0.1,4.2-0.3,6.8-0.4c2.6-0.1,5.6-0.2,8.9-0.4
					c13.2-0.6,31.8-1,54.9-2.9c11.6-1,24.2-2.2,37.7-4.5c1.7-0.3,3.4-0.5,5.1-0.8c1.7-0.3,3.4-0.6,5.2-1c3.5-0.7,7-1.3,10.5-2.1
					c3.5-0.8,7.1-1.6,10.7-2.5c3.6-0.9,7.2-1.9,10.9-2.9c1.8-0.5,3.7-1,5.5-1.5c1.8-0.6,3.6-1.1,5.5-1.7c1.8-0.6,3.7-1.2,5.5-1.7
					l2.8-0.9l2.7-1c3.7-1.3,7.3-2.7,11-4c3.6-1.4,7.3-3,10.9-4.5c3.7-1.5,7.2-3.1,10.8-4.8c1.8-0.8,3.6-1.7,5.4-2.5l2.7-1.2l2.5-1.3
					c3.4-1.7,6.7-3.4,10.1-5c3.4-1.7,6.6-3.5,10-5.3l5-2.7c1.7-0.9,3.3-1.8,4.9-2.8c3.3-1.9,6.5-3.7,9.8-5.5
					c3.2-1.9,6.4-3.9,9.6-5.8c1.6-1,3.2-1.9,4.8-2.9c1.6-1,3.1-2,4.7-3c3.1-2,6.2-4,9.3-6c3-2.1,6.1-4.1,9.1-6.2
					c1.5-1,3-2.1,4.5-3.1c1.5-1,2.9-2.1,4.4-3.2c2.9-2.1,5.8-4.2,8.7-6.3c22.9-17.1,43.1-35.3,59.3-52.7c2-2.2,4-4.3,6-6.4
					c1.9-2.1,3.7-4.3,5.5-6.4c3.5-4.2,7-8.1,9.9-12.1c3-4,5.9-7.6,8.4-11.1c2.5-3.6,4.7-6.9,6.7-9.9c1-1.5,2-2.9,2.9-4.3
					c0.8-1.4,1.6-2.7,2.4-4c1.5-2.5,2.7-4.6,3.7-6.3c2-3.4,3.1-5.2,3.1-5.2s0.9,1.3,2.4,3.5c1.5,2.2,3.6,5.5,6.1,9.4
					c2.5,4,5.3,8.7,8.3,13.9c1.5,2.6,3,5.3,4.5,8.1c1.5,2.7,2.9,5.5,4.4,8.3c2.9,5.6,5.7,11.4,8.3,16.9c2.5,5.5,4.9,10.8,6.7,15.2
					c1.9,4.4,3.4,8.2,4.4,10.8c1,2.6,1.6,4.2,1.6,4.2s-1.7,1.7-5,5c-0.8,0.8-1.7,1.7-2.7,2.7c-1,1-2.1,1.9-3.3,3
					c-2.4,2.1-5.1,4.6-8.2,7.4c-1.5,1.4-3.2,2.8-4.9,4.3c-1.7,1.5-3.5,2.9-5.4,4.4c-3.8,3-7.8,6.3-12.1,9.7
					c-4.4,3.2-9,6.6-13.9,10.1c-1.2,0.9-2.5,1.8-3.7,2.7c-1.3,0.8-2.5,1.7-3.8,2.5c-2.6,1.7-5.2,3.4-7.9,5.2
					c-21.6,14-46.9,27.8-74,39.9c-27.2,12.1-56.2,22.5-85.6,30.9c-4,1.1-8,2.2-12,3.4l-6,1.6c-2,0.5-4.1,1-6.1,1.5
					c-4.1,0.9-8.1,1.9-12.1,2.8c-4.1,0.8-8.1,1.5-12.2,2.3c-16.2,2.8-32.2,4.7-47.5,5.4c-1.9,0.1-3.8,0.2-5.7,0.3
					c-1.9,0-3.7,0.1-5.6,0.1c-3.7,0-7.3,0.2-10.9,0.1c-3.5-0.1-7-0.2-10.5-0.2c-3.5,0-6.8-0.3-10.1-0.5c-1.6-0.1-3.3-0.2-4.9-0.3
					c-0.8,0-1.6-0.1-2.4-0.1c-0.8-0.1-1.6-0.1-2.4-0.2c-3.1-0.3-6.2-0.6-9.2-0.8c-3-0.2-5.9-0.6-8.7-1c-2.8-0.3-5.6-0.7-8.3-1
					c-5.3-0.8-10.4-1.5-15.1-2.2c-4.7-0.8-9.2-1.5-13.3-2.2c-4.1-0.7-7.9-1.4-11.4-2.1c-3.5-0.7-6.7-1.3-9.5-1.8
					C1892.7,942.4,1886.2,941.1,1886.2,941.1z"/>
				<path fill="#8F2046" d="M1884.1,844.3c0.7-0.3,3-0.6,6.8-0.8c1.9-0.1,4.1-0.3,6.7-0.4c2.5-0.1,5.4-0.2,8.6-0.4
					c12.7-0.5,29.9-1,49.2-2.5c9.6-0.8,19.8-1.8,30-3.5c10.3-1.6,20.9-3.7,31.5-6.7c1.3-0.4,2.7-0.7,4-1.1c1.3-0.4,2.7-0.8,4-1.3
					c1.3-0.4,2.7-0.8,4-1.3l2-0.6l2-0.7c2.7-1,5.4-1.9,8.1-2.9c2.7-1.1,5.4-2.2,8.1-3.3c2.7-1,5.4-2.3,8.1-3.5l4-1.8l2-0.9l2.1-1.1
					c2.8-1.4,5.7-2.8,8.5-4.2c2.8-1.4,5.6-3,8.4-4.4l4.2-2.2c1.4-0.7,2.8-1.5,4.1-2.3c2.8-1.5,5.5-3.1,8.3-4.6
					c2.7-1.6,5.4-3.2,8.1-4.8c1.3-0.8,2.7-1.6,4-2.4c1.3-0.8,2.6-1.7,3.9-2.5c2.6-1.7,5.2-3.3,7.8-5c2.5-1.7,5-3.4,7.5-5.1
					c1.3-0.8,2.5-1.7,3.7-2.5c1.2-0.8,2.4-1.7,3.6-2.6c2.4-1.7,4.8-3.5,7.2-5.2c18.7-13.9,34.6-28.2,46.9-41.2
					c1.5-1.6,3-3.2,4.5-4.8c1.5-1.6,2.7-3.2,4.1-4.7c2.6-3.1,5.2-5.9,7.2-8.7c2.1-2.8,4.2-5.4,6-7.8c1.7-2.5,3.3-4.7,4.7-6.8
					c0.7-1,1.4-2,2-2.9c0.6-0.9,1.1-1.8,1.6-2.6c1-1.6,1.8-3,2.5-4.1c1.4-2.2,2.1-3.4,2.1-3.4s1,1.1,2.7,2.9c1.7,1.9,4.1,4.6,7,7.9
					c2.8,3.3,6.1,7.3,9.5,11.7c1.7,2.2,3.5,4.5,5.2,6.9c1.7,2.3,3.4,4.8,5.1,7.2c3.4,4.9,6.7,9.9,9.7,14.7c3,4.8,5.8,9.5,8,13.4
					c2.2,3.9,4,7.3,5.3,9.6c1.2,2.4,2,3.7,2,3.7s-1.4,1.3-4,3.7c-0.7,0.6-1.4,1.3-2.2,2c-0.8,0.7-1.7,1.5-2.7,2.3
					c-2,1.6-4.2,3.5-6.7,5.5c-1.3,1-2.6,2.1-4,3.2c-1.4,1.1-2.9,2.2-4.5,3.3c-3.1,2.3-6.4,4.7-10,7.4c-3.6,2.4-7.5,5-11.6,7.8
					c-1,0.7-2,1.4-3.1,2c-1.1,0.6-2.1,1.3-3.2,2c-2.2,1.3-4.4,2.7-6.7,4c-18.2,10.9-39.8,21.7-63.3,31.3
					c-23.5,9.6-48.9,17.8-74.3,24.2c-3.2,0.8-6.4,1.5-9.6,2.2l-4.7,1.1c-1.6,0.3-3.2,0.6-4.8,0.9c-3.2,0.6-6.3,1.1-9.5,1.7
					c-3.2,0.4-6.3,0.8-9.4,1.3c-12.5,1.4-24.6,2.3-36.3,2.1c-1.5,0-2.9,0-4.3,0c-1.4-0.1-2.9-0.1-4.3-0.2c-2.9-0.1-5.7-0.2-8.5-0.4
					c-5.6-0.4-11-0.8-16.3-1.4c-10.5-1.1-20.5-2.6-29.8-4.1c-18.5-3.1-34.1-6.4-45.2-8.6C1890.5,845.6,1884.1,844.3,1884.1,844.3z"
					/>
				<path fill="#8F2046" d="M1881.9,747.6c0.7-0.3,3-0.6,6.7-0.8c1.9-0.1,4.1-0.3,6.6-0.4c2.4-0.1,5.2-0.2,8.3-0.4
					c12.1-0.5,28-1,43.4-2.2c0.5,0,1-0.1,1.5-0.1c0.5,0,0.9-0.1,1.4-0.1c0.9-0.1,1.9-0.2,2.8-0.3c0.9-0.1,1.9-0.2,2.9-0.3
					c0.5,0,1-0.1,1.5-0.1c0.5-0.1,0.9-0.1,1.4-0.2c1.8-0.2,3.7-0.4,5.6-0.7c1-0.1,1.8-0.2,2.7-0.4c0.9-0.1,1.8-0.3,2.7-0.4
					c0.9-0.1,1.8-0.3,2.7-0.4c0.9-0.2,1.7-0.3,2.6-0.5c0.9-0.2,1.7-0.3,2.6-0.5c0.9-0.2,1.8-0.3,2.6-0.5c1.7-0.4,3.4-0.8,5.1-1.1
					c0.9-0.2,1.7-0.4,2.5-0.6c0.8-0.2,1.7-0.4,2.5-0.7c0.8-0.2,1.7-0.4,2.5-0.6c0.8-0.3,1.7-0.5,2.5-0.8c0.8-0.2,1.7-0.5,2.5-0.8
					l1.3-0.4l1.3-0.5c1.7-0.6,3.4-1.2,5.1-1.8c1.7-0.7,3.5-1.4,5.2-2.1l1.3-0.5c0.4-0.2,0.9-0.3,1.3-0.6l2.7-1.2l2.7-1.2l1.4-0.6
					l1.7-0.9c2.3-1.1,4.6-2.3,6.9-3.4c2.3-1.1,4.6-2.4,6.9-3.6l3.4-1.8c1.1-0.6,2.2-1.3,3.4-1.9c2.2-1.2,4.5-2.5,6.7-3.7
					c2.2-1.3,4.4-2.6,6.5-3.9c1.1-0.6,2.2-1.3,3.3-1.9c1.1-0.7,2.1-1.3,3.1-2c2.1-1.3,4.2-2.6,6.3-3.9c2-1.4,4-2.7,6-4
					c1-0.7,2-1.3,3-2c1-0.7,1.9-1.4,2.8-2c1.9-1.3,3.8-2.7,5.6-4c14.6-10.7,26.2-21.1,34.5-29.7c1-1.1,2.1-2.1,3.1-3.1
					c0.5-0.5,0.9-1,1.3-1.5c0.4-0.5,0.8-1,1.3-1.5c1.6-1.9,3.4-3.7,4.6-5.3c1.2-1.6,2.6-3.1,3.6-4.5c0.9-1.3,1.8-2.6,2.6-3.6
					c0.4-0.5,0.8-1,1.1-1.5c0.3-0.5,0.5-0.9,0.8-1.3c0.5-0.8,0.9-1.4,1.3-2c0.7-1.1,1.1-1.6,1.1-1.6s1.1,0.8,3,2.3
					c1.9,1.5,4.6,3.7,7.8,6.4c3.2,2.7,6.9,5.9,10.8,9.6c1.9,1.8,4,3.7,5.9,5.7c1.9,2,3.9,4,5.8,6.1c3.8,4.1,7.6,8.4,11.1,12.6
					c3.5,4.1,6.7,8.1,9.2,11.5c2.6,3.4,4.7,6.4,6.1,8.4c1.5,2.1,2.3,3.3,2.3,3.3s-1.1,0.8-3.1,2.4c-0.5,0.4-1,0.8-1.7,1.3
					c-0.6,0.5-1.4,1-2.1,1.5c-1.5,1.1-3.3,2.3-5.2,3.7c-1,0.7-2,1.4-3,2.2c-1.1,0.7-2.3,1.5-3.5,2.3c-2.4,1.6-5.1,3.2-7.9,5
					c-2.9,1.7-6,3.5-9.3,5.4c-0.8,0.5-1.6,1-2.5,1.4c-0.9,0.5-1.7,0.9-2.6,1.4c-1.8,0.9-3.6,1.9-5.4,2.9
					c-14.8,7.7-32.7,15.7-52.5,22.7c-19.8,7.1-41.5,13.1-63,17.5c-0.7,0.2-1.2,0.2-1.9,0.3l-1.8,0.2l-3.5,0.5l-3.5,0.5
					c-1.2,0.1-2.3,0.2-3.5,0.3c-2.3,0.2-4.5,0.4-6.8,0.6c-2.2,0.1-4.4,0.1-6.6,0.2c-8.8,0.1-17-0.2-25.2-1.2c-1-0.1-2-0.2-3-0.3
					c-1-0.1-2.1-0.3-3.1-0.4c-2-0.3-4-0.5-6-0.8c-2-0.3-4-0.7-6-1l-1.5-0.2l-1.5-0.3c-1-0.2-2-0.4-3-0.6c-1-0.2-2-0.4-3-0.5
					c-0.5-0.1-1-0.2-1.5-0.3c-0.5-0.1-1-0.2-1.5-0.3c-2-0.4-4-0.8-6-1.2c-4.1-0.8-8-1.6-11.8-2.4c-17-3.6-31.2-6.7-41.1-8.8
					C1888.2,748.9,1881.9,747.6,1881.9,747.6z"/>
				<path fill="#8F2046" d="M1879.8,650.8c0.7-0.3,3-0.6,6.7-0.8c1.8-0.1,4.1-0.3,6.6-0.4c2.4-0.1,5-0.2,7.9-0.4
					c11.5-0.5,26.1-1,37.7-1.9c0.4,0,0.8,0,1.1-0.1l1-0.1c0.7-0.1,1.3-0.1,2-0.2c0.7-0.1,1.3-0.1,2-0.2l1-0.1l0.9-0.1
					c1.2-0.1,2.3-0.3,3.5-0.4c0.6,0,1.1-0.1,1.6-0.2c0.5-0.1,1-0.1,1.5-0.2c0.5-0.1,1-0.1,1.5-0.2c0.4-0.1,0.9-0.2,1.3-0.2
					c0.4-0.1,0.9-0.1,1.3-0.2c0.4-0.1,0.9-0.1,1.3-0.2c0.7-0.2,1.5-0.3,2.3-0.4c0.4,0,0.7-0.2,1.1-0.2c0.3-0.1,0.7-0.2,1-0.2
					c0.3-0.1,0.7-0.1,1-0.2c0.3-0.1,0.7-0.2,1-0.3c0.3-0.1,0.7-0.2,1-0.3c0.2,0,0.3-0.1,0.5-0.1l0.5-0.2c0.7-0.3,1.4-0.5,2.2-0.6
					c0.8-0.3,1.6-0.6,2.4-0.9l0.6-0.2l0.3-0.1l0.3-0.2c0.4-0.2,0.9-0.4,1.4-0.6c0.5-0.2,0.9-0.4,1.4-0.6l0.7-0.3l1.3-0.7
					c1.8-0.9,3.6-1.7,5.3-2.6c1.8-0.9,3.5-1.8,5.3-2.7l2.7-1.4c0.9-0.5,1.7-1,2.6-1.4c1.7-0.9,3.5-1.9,5.2-2.8c1.7-1,3.3-2,5-2.9
					l2.5-1.4l2.4-1.5c1.6-1,3.2-2,4.8-2.9c1.5-1,3-2,4.4-3c0.7-0.5,1.5-1,2.2-1.4c0.7-0.5,1.4-1,2.1-1.5c1.4-1,2.7-1.9,4.1-2.8
					c10.5-7.5,17.7-14.1,22-18.2c0.5-0.5,1.1-1,1.6-1.5c0.3-0.2,0.4-0.4,0.6-0.6c0.2-0.2,0.4-0.4,0.5-0.6c0.7-0.7,1.6-1.5,1.9-1.9
					c0.2-0.2,0.4-0.5,0.6-0.7c0.1-0.1,0.2-0.2,0.3-0.3c0.1-0.1,0.3-0.2,0.3-0.2c0.1-0.2,0.3-0.4,0.5-0.5c0.1-0.1,0.2-0.1,0.3-0.1
					c0,0,0,0-0.1,0.1l0,0c0,0-0.1,0,0.1,0l0.5,0.3c0.3,0.2,0.7,0.4,1,0.6c0.7,0.4,1.3,0.8,1.9,1.1c1.2,0.7,2.3,1.3,3.3,1.9
					c2,1.1,3.6,1.9,4.7,2.5c1.1,0.5,1.6,0.8,1.6,0.8s-0.8-0.4-2.1-1c-0.7-0.3-1.4-0.7-2.3-1.2c-0.1-0.1-0.2-0.1-0.3-0.2l-0.2-0.1
					l0,0l0.1,0l0.1,0.1c0.4,0.2,0.8,0.4,1.2,0.7c0.8,0.5,1.7,1,2.6,1.5c3.6,2.1,7.7,4.6,12,7.4c2.2,1.4,4.4,2.9,6.6,4.5
					c2.2,1.6,4.3,3.3,6.5,5c4.3,3.4,8.6,6.9,12.5,10.4c3.9,3.4,7.6,6.8,10.5,9.7c2.9,3,5.3,5.5,7,7.3c1.7,1.8,2.6,2.8,2.6,2.8
					s-0.7,0.4-2.1,1.1c-0.3,0.2-0.7,0.4-1.1,0.6c-0.4,0.2-1,0.5-1.5,0.7c-1.1,0.5-2.3,1.2-3.7,1.8c-0.7,0.3-1.4,0.7-2.1,1.1
					c-0.8,0.4-1.7,0.8-2.6,1.2c-1.8,0.8-3.7,1.7-5.7,2.7c-2.2,1-4.5,2-7,3c-0.6,0.3-1.2,0.5-1.8,0.8c-0.7,0.3-1.3,0.5-2,0.8
					c-1.3,0.5-2.7,1.1-4.1,1.7c-11.3,4.6-25.6,9.6-41.7,14.2c-16.1,4.5-34.2,8.4-51.7,10.8l-0.4,0.1c-0.1,0-0.2,0-0.3,0l-0.6,0
					l-1.2-0.1l-2.3-0.1l-2.2-0.1c-0.7-0.1-1.4-0.2-2.1-0.3c-1.4-0.2-2.8-0.4-4.1-0.6c-1.3-0.3-2.6-0.6-3.9-0.9
					c-1.2-0.2-2.5-0.6-3.7-1l-1.8-0.5c-0.3-0.1-0.6-0.2-0.9-0.2l-0.9-0.3c-1.2-0.4-2.3-0.8-3.4-1.2c-1.2-0.4-2.3-0.9-3.5-1.3
					c-2.4-0.9-4.8-1.7-7.1-2.6c-1.3-0.5-2.5-0.9-3.8-1.3c-1.3-0.5-2.7-0.9-4-1.4c-0.7-0.2-1.3-0.4-2-0.7c-0.7-0.2-1.4-0.4-2.1-0.7
					c-1.5-0.5-2.9-0.9-4.3-1.3c-0.7-0.2-1.5-0.4-2.2-0.7c-0.8-0.2-1.6-0.5-2.3-0.7c-1.6-0.4-3.1-0.9-4.6-1.3
					c-1.7-0.4-3.3-0.9-4.9-1.3c-0.8-0.2-1.6-0.4-2.4-0.6c-0.8-0.2-1.6-0.4-2.4-0.6c-1.7-0.4-3.3-0.8-4.9-1.2
					c-0.8-0.2-1.6-0.4-2.3-0.6c-0.4-0.1-0.8-0.2-1.1-0.3c-0.4-0.1-0.8-0.2-1.2-0.3c-3.3-0.8-6.4-1.5-9.2-2.2
					c-3.1-0.7-5.9-1.3-8.5-1.9c-1.3-0.3-2.5-0.6-3.6-0.8c-1.2-0.3-2.4-0.5-3.4-0.7c-2.1-0.4-4-0.8-5.4-1.1
					C1881.4,651.1,1879.8,650.8,1879.8,650.8z"/>
			</g>
		</g>
	</g>
</g>
<g>
	<g>
		<g>
			<g>
				<path fill="#8F2046" d="M1430.3,487.9c0.1,0,0.2,0.1,0.3,0.2c0.1,0,0.1,0.1,0.1,0.1c0.1,0,0.1,0.1,0.1,0.2c0,0.1,0,0.2,0.1,0.4
					c0,0.1,0,0.1,0,0.2c0,0.1,0,0.2,0,0.3c0,0.2,0,0.4,0,0.7c0,0.3-0.1,0.6-0.1,0.9c-0.2,1.4-0.5,3.4-1.2,6.1
					c-0.7,2.7-1.7,6-3.1,9.9c-2.8,7.7-7.2,17.5-12.9,27.3c-5.6,9.8-12.6,19.4-19.2,26.6c-1.6,1.8-3.3,3.4-4.8,5
					c-1.5,1.4-3,2.8-4.4,3.9c-1.5,1.2-3,2.5-4.6,3.5c-0.8,0.6-1.6,1.1-2.3,1.6c-0.8,0.5-1.6,1-2.4,1.5c-6.4,3.8-13,6.2-18.8,7
					c-5.9,0.9-10.8,0.3-14.2-0.4c-0.8-0.2-1.6-0.4-2.2-0.5c-0.6-0.2-1.2-0.3-1.6-0.5c-0.9-0.3-1.3-0.4-1.3-0.4s-0.3-4.7-1-11.9
					c-0.7-7.2-2-16.9-3.9-26.8c-1.8-9.8-4.2-19.8-6.2-27.3c-2-7.5-3.6-12.5-3.6-12.5s0.1,0.3,0.3,0.9c0.2,0.6,0.6,1.5,1.1,2.7
					c1,2.3,2.7,5.5,5.7,8.9c2.9,3.4,7,6.9,12.3,9.5c0.7,0.3,1.3,0.6,2,0.9c0.7,0.3,1.2,0.7,1.9,1c0.7,0.3,1.4,0.6,2.2,0.8l1.2,0.3
					l1.3,0.2c3.5,0.4,7.6-0.1,12.1-1.2c8.9-2.2,18.6-7.1,27.4-12.5c8.8-5.5,16.6-11.5,22.6-16.1c3-2.3,5.6-4.3,7.8-5.9
					c2.2-1.6,3.9-2.6,5.3-3.4c1.4-0.7,2.4-1,3.1-1.1C1429.9,487.9,1430.3,487.9,1430.3,487.9z"/>
				<path fill="#8F2046" d="M1526.7,495.8c0.4,0.8,0.6,4.8-0.6,12.2c-1.1,7.4-3.6,18-8.2,30.7c-4.5,12.7-11,27.3-19.4,41.9
					c-8.3,14.7-18.6,29.4-29.9,42.3c-2.8,3.2-5.7,6.3-8.6,9.3c-2.9,2.9-5.9,5.7-8.9,8.3c-3,2.6-6.1,5.2-9.3,7.6
					c-1.5,1.2-3.2,2.3-4.7,3.5c-1.6,1.1-3.2,2.2-4.8,3.2c-6.4,4.1-13,7.5-19.5,10.1c-6.5,2.6-12.9,4.4-18.9,5.5
					c-12,2.2-22.3,1.3-29.3,0c-0.9-0.2-1.7-0.3-2.5-0.5c-0.8-0.2-1.5-0.3-2.2-0.5c-1.3-0.3-2.5-0.6-3.4-0.9
					c-1.8-0.5-2.8-0.8-2.8-0.8s0.4-4.5,0.7-11.5c0.3-7,0.4-16.4-0.1-26c-0.4-9.6-1.4-19.4-2.4-26.9c-0.5-3.7-1-6.8-1.3-9
					c-0.4-2.2-0.6-3.4-0.6-3.4s0.6,0.3,1.7,1c0.6,0.3,1.3,0.6,2.1,1.1c0.8,0.4,1.8,0.8,2.9,1.3c4.4,1.9,11,4.2,19.3,5.2
					c8.3,1,18.3,0.9,29.1-1.3c1.4-0.2,2.7-0.6,4.1-0.9c1.4-0.3,2.7-0.6,4.1-1c1.4-0.4,2.8-0.8,4.2-1.3c0.7-0.2,1.4-0.5,2.2-0.7
					l2.2-0.8c5.9-2.2,12.2-5.3,18.4-8.9c12.5-7.2,25.1-16.7,36.2-26.8c11.1-10.1,20.7-20.7,28.3-30.1c7.6-9.4,13-17.6,16.4-23.2
					c1.7-2.8,3-5,3.8-6.5C1526.3,496.6,1526.7,495.8,1526.7,495.8z"/>
				<path fill="#8F2046" d="M1623.2,503.8c0.4,1.4,0.2,9.4-1.8,21.4c-2,12-5.8,27.8-12,45.4c-12.4,35.2-34.5,77.6-66.5,114.5
					c-4,4.6-8.2,9.1-12.4,13.5c-4.3,4.4-8.7,8.7-13.3,12.8c-4.6,4.1-9.2,8-13.9,11.6c-2.3,1.9-4.8,3.6-7.1,5.3
					c-2.4,1.7-4.8,3.4-7.2,4.9c-4.8,3.2-9.7,6.1-14.6,8.8c-4.9,2.6-9.8,5.1-14.6,7.2c-9.7,4.3-19.3,7.3-28.2,9.4
					c-9,2.1-17.3,3.1-24.7,3.5c-7.4,0.4-13.9,0-19.1-0.4c-1.3-0.1-2.6-0.3-3.7-0.4c-1.2-0.1-2.3-0.3-3.3-0.4c-2-0.3-3.7-0.5-5.1-0.8
					c-2.8-0.5-4.2-0.8-4.2-0.8s1-5.3,2.1-13c0.6-3.9,1.2-8.5,1.7-13.3c0.3-2.4,0.5-4.9,0.7-7.5c0.1-1.3,0.2-2.6,0.3-3.9l0.2-1.9
					l0.2-1.8c0.5-4.7,0.8-9.5,1.1-14c0.2-4.5,0.4-8.8,0.4-12.5c0-3.7,0-6.7,0-8.9c0-2.2-0.1-3.4-0.1-3.4s0.3,0.1,0.8,0.3
					c0.5,0.2,1.3,0.4,2.3,0.7c1,0.3,2.3,0.6,3.8,1c1.5,0.3,3.2,0.7,5.2,1.1c7.8,1.5,19.3,2.8,33,1.5c13.7-1.3,29.6-5.1,46-12.1
					c16.4-6.9,33.4-17,49.7-29.2c16.2-12.2,31.6-26.4,45-41.1c13.4-14.7,24.9-29.9,34-44.1c9.1-14.1,15.6-27.3,19.8-37.1
					c2.1-4.9,3.6-9,4.5-11.8C1622.7,505.3,1623.2,503.8,1623.2,503.8z"/>
				<path fill="#8F2046" d="M1719.7,511.7c0.1,0.5,0.1,1.6,0.1,3.3c0,0.8-0.1,1.8-0.1,2.9c-0.1,1.1-0.1,2.4-0.3,3.7
					c-0.1,1.3-0.3,2.8-0.4,4.3c-0.1,0.8-0.2,1.6-0.3,2.4c-0.1,0.8-0.2,1.7-0.3,2.5c-0.2,1.7-0.5,3.6-0.7,5.5c-0.3,1.9-0.6,3.9-1,6
					c-1.4,8.3-3.4,17.7-6,27.9c-2.6,10.1-5.9,21-9.9,32.2c-4,11.3-8.6,22.9-14,34.9c-5.4,11.9-11.5,24.1-18.4,36.4
					c-13.8,24.5-30.6,49.5-51.2,73.6c-5.1,6-10.6,12-16.2,17.8c-5.7,5.9-11.6,11.6-17.8,17.3c-6.1,5.5-12.3,10.8-18.6,15.7
					c-3.1,2.5-6.3,4.8-9.5,7.2c-3.2,2.3-6.4,4.6-9.6,6.7c-6.4,4.4-12.9,8.4-19.4,12.1c-6.5,3.7-13,7-19.4,10.1
					c-12.8,6.1-25.4,10.7-37.2,14.2c-11.8,3.5-22.8,5.8-32.6,7.2c-9.8,1.5-18.3,2-25.3,2.3c-1.7,0.1-3.4,0.1-5,0.2c-1.6,0-3,0-4.4,0
					c-2.7,0-5,0-6.8-0.1c-3.7-0.2-5.7-0.2-5.7-0.2s1.7-5.5,3.8-13.7c1.1-4.1,2.3-8.9,3.4-14c1.2-5.1,2.3-10.6,3.3-16.1
					c1-5.4,1.9-11,2.7-16.1c0.8-5.1,1.4-9.9,1.8-14c0.5-4.1,0.8-7.5,1-9.9c0.2-2.4,0.3-3.8,0.3-3.8s0.4,0.1,1.1,0.2
					c0.8,0.1,1.9,0.3,3.4,0.5c1.5,0.2,3.3,0.4,5.4,0.7c2.1,0.2,4.6,0.4,7.4,0.6c5.6,0.3,12.3,0.4,20.1-0.2c7.8-0.5,16.6-1.6,26-3.7
					c18.9-4,40.5-11.6,62.5-23.4c2.8-1.4,5.5-3,8.3-4.6c2.8-1.6,5.6-3.3,8.4-5c2.7-1.7,5.6-3.5,8.3-5.3c1.4-0.9,2.7-1.8,4.1-2.7
					c1.3-0.9,2.7-1.9,4-2.8c10.8-7.6,21.2-15.7,31.2-24.3c19.9-17.2,38-36.1,53.7-55.4c15.7-19.3,29.1-39.2,39.6-58.1
					c5.3-9.4,9.9-18.7,13.7-27.3c3.8-8.7,7-16.8,9.4-23.8c2.4-7.1,4.1-13,5.2-17.2C1719.1,514,1719.7,511.7,1719.7,511.7z"/>
				<path fill="#8F2046" d="M1816.2,519.7c0.1,0.7,0.1,2.1,0,4.3c0,1.1-0.1,2.4-0.2,3.8c-0.1,1.5-0.2,3.1-0.4,4.8
					c-0.2,1.7-0.4,3.6-0.6,5.6c-0.1,1-0.2,2.1-0.4,3.2c-0.1,1-0.3,2.1-0.4,3.3c-0.3,2.2-0.6,4.6-1,7.1c-0.4,2.4-0.8,5-1.2,7.7
					c-1.8,10.6-4.3,22.5-7.6,35.1c-3.3,12.6-7.3,25.9-12.1,39.7c-4.8,13.7-10.4,27.8-16.9,42.2c-6.5,14.4-13.8,29-22,43.7
					c-16.5,29.5-36.6,59.5-61.9,89.2c-6.3,7.4-13.1,14.8-20,22.1c-7.1,7.3-14.5,14.6-22.3,21.7c-2,1.8-3.8,3.4-5.8,5.1
					c-1.9,1.7-3.8,3.4-5.8,5c-3.9,3.3-7.8,6.5-11.7,9.6c-3.9,3.1-7.9,6.1-11.9,9.1c-4,2.9-8,5.8-12,8.5
					c-32,22.1-65.2,37.7-94.5,47.5c-14.6,4.9-28.3,8.4-40.4,11c-12.1,2.6-22.8,4-31.5,5c-2.2,0.2-4.2,0.5-6.2,0.7
					c-1.9,0.2-3.8,0.3-5.4,0.4c-3.4,0.3-6.3,0.5-8.6,0.5c-4.6,0.2-7.1,0.3-7.1,0.3s2.3-5.8,5.5-14.4c1.6-4.3,3.4-9.4,5.1-14.7
					c1.8-5.3,3.6-11.2,5.3-16.9c1.7-5.7,3.3-11.5,4.6-16.9c1.4-5.3,2.6-10.4,3.5-14.7c1-4.3,1.7-7.9,2.2-10.4c0.5-2.5,0.8-4,0.8-4
					s0.5,0,1.5,0c1,0,2.4,0.1,4.3,0.1c1.9,0,4.3,0,7-0.1c2.8-0.1,5.9-0.2,9.5-0.4c7.1-0.5,15.8-1.3,25.7-3c9.9-1.6,21.1-4,33.1-7.6
					c24-7,51.4-18.5,78.9-35.1c3.5-2,6.9-4.2,10.3-6.4c3.5-2.2,7-4.7,10.5-7.1c3.4-2.4,6.9-4.9,10.3-7.3c1.7-1.2,3.4-2.5,5.1-3.8
					c1.7-1.3,3.3-2.5,5-3.8c13.2-10.2,25.7-21,37.5-32.1c23.6-22.2,44.5-45.8,62.5-69.7c18-23.9,33.2-48.4,45.3-72
					c6-11.8,11.3-23.4,15.7-34.5c4.4-11,8-21.5,10.7-30.6c0.7-2.3,1.3-4.6,1.9-6.6c0.3-1,0.6-2.1,0.9-3c0.3-1,0.5-2,0.8-3
					c0.5-1.9,0.9-3.7,1.3-5.3c0.2-0.8,0.4-1.6,0.6-2.3c0.2-0.8,0.3-1.5,0.5-2.2C1815.5,522.7,1816.2,519.7,1816.2,519.7z"/>
			</g>
		</g>
	</g>
</g>
<g>
	<g>
		<g>
			<g>
				<path fill="#8F2046" d="M1542.5-78.2c-0.6,0.5-2.7,1.5-6.3,3c-1.8,0.7-3.9,1.6-6.4,2.6c-2.6,1-5.4,2.1-8.6,3.3
					c-3.3,1.3-6.9,2.6-10.8,4.1c-2,0.8-4,1.5-6.1,2.3c-2.2,0.9-4.5,1.7-6.8,2.7c-2.4,0.9-4.8,1.9-7.3,2.8c-2.6,1-5.2,2.1-8,3.2
					c-5.3,2.1-11.3,4.7-17.5,7.3c-0.8,0.3-1.5,0.7-2.3,1c-0.8,0.4-1.6,0.7-2.4,1.1c-1.6,0.7-3.2,1.5-4.9,2.2c-1.6,0.7-3.3,1.5-5,2.2
					c-0.8,0.4-1.7,0.8-2.5,1.1c-0.9,0.4-1.7,0.8-2.6,1.2c-3.5,1.7-7,3.4-10.6,5.1c-1.8,0.8-3.6,1.8-5.5,2.8c-1.8,1-3.7,1.9-5.6,2.9
					c-1.9,1-3.7,2-5.6,3c-1.9,1.1-3.8,2.1-5.7,3.2c-1.9,1.1-3.9,2.2-5.8,3.3c-1.9,1.1-3.9,2.2-5.8,3.4c-3.9,2.4-7.9,4.9-11.8,7.3
					c-2,1.2-4,2.6-5.9,3.9c-2,1.3-4,2.7-6,4c-2,1.4-4,2.7-6,4.1c-2,1.4-3.9,2.9-5.9,4.3c-2,1.5-3.9,2.9-5.9,4.4l-3,2.2l-2.9,2.3
					c-3.8,3.1-7.7,6.2-11.6,9.3c-3.8,3.2-7.5,6.5-11.2,9.7l-2.8,2.5c-0.9,0.8-1.9,1.7-2.7,2.5c-1.8,1.7-3.6,3.4-5.4,5.1
					c-1.8,1.7-3.6,3.4-5.3,5.1l-2.7,2.6l-2.3,2.3c-3,3.1-6.1,6.2-9.2,9.3c-3,3.1-6,6.3-9,9.5l-4.5,4.8c-1.5,1.6-2.9,3.2-4.4,4.8
					c-2.9,3.2-5.8,6.5-8.6,9.7c-2.8,3.3-5.6,6.6-8.4,9.9c-1.4,1.7-2.8,3.3-4.2,5c-1.4,1.7-2.7,3.4-4.1,5.1c-2.7,3.4-5.4,6.8-8,10.1
					c-2.6,3.5-5.2,6.9-7.8,10.3c-1.3,1.7-2.6,3.4-3.8,5.1c-1.3,1.7-2.5,3.5-3.7,5.2c-2.5,3.5-4.9,7-7.3,10.4
					c-19.1,27.8-35.2,56.7-47.5,83.7c-1.5,3.4-3,6.7-4.4,10c-0.7,1.6-1.4,3.3-2.1,5c-0.7,1.7-1.3,3.3-2,4.9c-2.5,6.5-5,12.5-7,18.7
					c-1,3-2,6-3,8.8c-0.5,1.4-0.9,2.8-1.4,4.2c-0.4,1.4-0.9,2.7-1.3,4.1c-1.6,5.5-3,10.6-4.2,15.2c-0.6,2.3-1.2,4.5-1.7,6.5
					c-0.5,2.1-0.9,4.2-1.3,6c-0.8,3.8-1.4,6.9-2,9.5c-1,5.2-1.6,8-1.6,8s-1.2-1.2-3.3-3.2c-2.1-2.1-5-5-8.5-8.7
					c-3.5-3.7-7.5-8.1-11.8-12.9c-2.1-2.4-4.3-5-6.5-7.6c-2.2-2.5-4.4-5.1-6.5-7.8c-4.3-5.3-8.6-10.7-12.6-15.9
					c-3.9-5.2-7.6-10.3-10.6-14.3c-3-4.2-5.5-7.7-7.2-10.2c-1.7-2.5-2.7-3.9-2.7-3.9s1.3-2.7,3.6-7.8c0.6-1.3,1.3-2.7,2-4.2
					c0.7-1.5,1.6-3.1,2.5-4.8c1.8-3.5,3.9-7.4,6.3-11.8c1.2-2.2,2.4-4.5,3.7-6.9c1.3-2.4,2.8-4.7,4.2-7.2c3-5,6.2-10.3,9.7-16
					c3.5-5.4,7.3-11.1,11.4-17c1-1.5,2-3,3.1-4.5c1.1-1.4,2.1-2.9,3.2-4.4c2.2-2.9,4.4-5.9,6.6-9c18.2-24.3,40.3-49.3,64.8-73
					c24.5-23.7,51.5-46.1,79.8-66.6l6-4.4l6.2-4.5l6.2-4.4c2.1-1.5,4.3-2.9,6.4-4.3c4.3-2.8,8.5-5.7,12.8-8.4
					c4.4-2.7,8.8-5.4,13.1-8c4.3-2.7,8.8-5.1,13.2-7.5c2.2-1.2,4.4-2.4,6.6-3.6c1.1-0.6,2.2-1.2,3.3-1.8l3.3-1.7
					c4.4-2.2,8.8-4.4,13.2-6.5c4.4-2.1,8.7-4,13.1-5.9c2.2-0.9,4.3-1.9,6.4-2.8c2.1-0.8,4.2-1.7,6.3-2.5c2.1-0.8,4.2-1.7,6.3-2.5
					c2.1-0.8,4.2-1.7,6.2-2.3c4.1-1.4,8.1-2.8,12-4.2c1-0.3,2-0.7,3-1c1-0.3,1.9-0.6,2.9-0.9c1.9-0.6,3.8-1.2,5.7-1.8
					c1.9-0.6,3.7-1.1,5.6-1.7c0.9-0.3,1.8-0.6,2.8-0.8c0.9-0.2,1.8-0.5,2.7-0.7c3.5-1,7-1.9,10.4-2.8c3.5-1,6.6-1.6,9.8-2.4
					c3.2-0.7,6.3-1.5,9.3-2.2c2.9-0.6,5.8-1.2,8.6-1.8c1.4-0.3,2.8-0.6,4.2-0.9c0.7-0.1,1.4-0.3,2-0.4c0.6-0.1,1.3-0.2,1.9-0.4
					c2.6-0.5,5-0.9,7.5-1.4c1.2-0.2,2.4-0.4,3.6-0.6c0.6-0.1,1.2-0.2,1.7-0.3c0.6-0.1,1.1-0.2,1.7-0.3c4.4-0.7,8.4-1.3,12.2-1.9
					c3.6-0.5,7-1,10-1.4c1.5-0.2,2.9-0.4,4.3-0.6c1.3-0.2,2.5-0.3,3.6-0.5c2.2-0.3,4.1-0.5,5.7-0.7
					C1540.9-78,1542.5-78.2,1542.5-78.2z"/>
				<path fill="#8F2046" d="M1575.5,12.8c-0.6,0.5-2.7,1.5-6.2,3c-1.8,0.7-3.9,1.6-6.3,2.5c-2.5,1-5.3,2-8.3,3.2
					c-12.4,4.8-29.8,11.2-51.1,20.3c-10.6,4.6-22.2,9.9-34.3,16.3c-1.5,0.8-3,1.6-4.6,2.4c-1.5,0.9-3.1,1.7-4.6,2.6
					c-3.1,1.8-6.2,3.4-9.3,5.3c-3.1,1.9-6.2,3.8-9.4,5.8c-3.1,2-6.2,4.1-9.4,6.2c-1.6,1.1-3.2,2.1-4.7,3.2c-1.5,1.1-3.1,2.3-4.6,3.4
					c-1.6,1.1-3.1,2.3-4.7,3.4l-2.3,1.7l-2.3,1.8c-3,2.4-6.1,4.9-9.2,7.3c-3,2.5-5.9,5.1-8.9,7.7c-3,2.6-5.8,5.3-8.7,8l-4.3,4.1
					l-2.1,2l-2,2c-2.6,2.7-5.3,5.3-7.9,8c-2.6,2.7-5.2,5.4-7.8,8.2l-3.9,4.1c-1.3,1.4-2.5,2.8-3.8,4.2c-2.5,2.8-5,5.6-7.5,8.4
					c-2.4,2.9-4.8,5.7-7.3,8.5c-1.2,1.4-2.4,2.8-3.6,4.3c-1.2,1.5-2.3,2.9-3.5,4.3c-2.3,2.9-4.6,5.8-6.9,8.7
					c-2.2,2.9-4.4,5.9-6.6,8.8c-1.1,1.5-2.2,2.9-3.3,4.4c-1.1,1.5-2.1,3-3.2,4.4c-2.1,3-4.2,5.9-6.2,8.8
					c-16.2,23.5-29.5,47.2-39.4,68.9c-1.2,2.7-2.4,5.4-3.6,8c-1.2,2.6-2.1,5.3-3.2,7.8c-2,5.1-4,9.9-5.5,14.7
					c-1.6,4.7-3.1,9.1-4.4,13.2c-1.2,4.2-2.2,8.1-3.2,11.6c-0.5,1.8-0.9,3.4-1.3,5c-0.3,1.6-0.7,3.1-1,4.5c-0.6,2.8-1.1,5.2-1.5,7.1
					c-0.8,3.9-1.2,5.9-1.2,5.9s-1.2-0.9-3.4-2.6c-2.1-1.6-5.2-4-8.8-7c-3.6-3-7.8-6.5-12.3-10.5c-2.2-2-4.5-4.1-6.8-6.2
					c-2.3-2.1-4.5-4.3-6.8-6.5c-4.6-4.4-9.1-9-13.2-13.4c-4.2-4.4-8.1-8.7-11.2-12.2c-3.2-3.6-5.8-6.7-7.7-8.8
					c-1.8-2.2-2.9-3.4-2.9-3.4s1.1-2.2,3.1-6.3c0.5-1,1.1-2.2,1.7-3.4c0.6-1.2,1.4-2.5,2.2-3.9c1.6-2.8,3.4-6,5.4-9.6
					c1-1.8,2.1-3.7,3.2-5.6c1.1-1.9,2.4-3.9,3.7-5.9c2.6-4.1,5.4-8.5,8.4-13.1c3.1-4.5,6.4-9.1,9.9-14c0.9-1.2,1.8-2.5,2.7-3.7
					c0.9-1.2,1.9-2.4,2.8-3.6c1.9-2.4,3.8-4.9,5.8-7.5c16-20.2,35.5-41.3,57.4-61.5c21.9-20.2,46.1-39.3,71.2-56.6
					c3.4-2.3,6.9-4.7,10.3-7l5.2-3.5c1.8-1.1,3.5-2.2,5.3-3.3c3.6-2.2,7.1-4.4,10.6-6.5c3.6-2,7.2-4.1,10.8-6.1
					c14.5-7.8,29-14.8,43.2-20.3c1.8-0.7,3.5-1.4,5.3-2.1c1.8-0.6,3.5-1.3,5.2-1.9c3.5-1.2,6.9-2.5,10.3-3.6c3.4-1.1,6.7-2.1,10-3.1
					c3.3-1.1,6.5-1.9,9.7-2.8c1.6-0.4,3.2-0.9,4.7-1.3c0.8-0.2,1.6-0.4,2.3-0.6c0.8-0.2,1.5-0.4,2.3-0.6c3-0.7,6-1.4,9-2.1
					c2.9-0.7,5.8-1.3,8.6-1.9c2.8-0.6,5.5-1.1,8.2-1.7c5.3-1,10.3-1.9,15-2.7c4.7-0.8,9.2-1.5,13.3-2.1c4.1-0.6,8-1.2,11.5-1.7
					c3.5-0.5,6.7-0.9,9.6-1.3C1568.9,13.7,1575.5,12.8,1575.5,12.8z"/>
				<path fill="#8F2046" d="M1608.5,103.8c-0.6,0.5-2.7,1.5-6.2,3c-1.7,0.7-3.8,1.6-6.2,2.5c-2.4,0.9-5.1,2-8,3.1
					c-11.8,4.6-28,10.6-45.8,18.1c-8.8,3.9-18.1,8-27.3,12.9c-9.3,4.9-18.6,10.2-27.7,16.5c-1.1,0.8-2.3,1.5-3.5,2.3
					c-1.1,0.8-2.2,1.6-3.4,2.5c-1.1,0.8-2.3,1.6-3.4,2.5l-1.7,1.2l-1.7,1.3c-2.2,1.8-4.5,3.5-6.7,5.3c-2.2,1.9-4.4,3.8-6.6,5.7
					c-2.2,1.8-4.4,3.9-6.5,5.9l-3.2,3l-1.6,1.5l-1.7,1.7c-2.2,2.2-4.5,4.5-6.7,6.7c-2.2,2.3-4.4,4.6-6.6,6.9l-3.3,3.4
					c-1.1,1.2-2.1,2.3-3.2,3.5c-2.1,2.3-4.2,4.7-6.3,7c-2,2.4-4.1,4.8-6.1,7.2c-1,1.2-2,2.4-3,3.6c-1,1.2-1.9,2.4-2.9,3.6
					c-1.9,2.4-3.9,4.8-5.8,7.2c-1.8,2.4-3.7,4.9-5.5,7.3c-0.9,1.2-1.8,2.4-2.7,3.6c-0.9,1.2-1.7,2.4-2.6,3.6
					c-1.7,2.4-3.4,4.8-5.1,7.2c-13.3,19.1-23.8,37.8-31.3,54c-0.9,2-1.8,4-2.7,6c-0.9,1.9-1.6,3.9-2.3,5.7c-1.5,3.7-3,7.2-4.1,10.6
					c-1.1,3.3-2.3,6.4-3.2,9.3c-0.8,2.9-1.6,5.5-2.2,7.9c-0.3,1.2-0.7,2.3-1,3.4c-0.2,1.1-0.4,2.1-0.6,3c-0.4,1.8-0.8,3.4-1,4.7
					c-0.6,2.6-0.9,3.9-0.9,3.9s-1.3-0.7-3.5-1.9c-2.2-1.2-5.4-3-9.1-5.3c-3.8-2.3-8.1-5-12.8-8.1c-2.3-1.5-4.7-3.2-7.1-4.8
					c-2.4-1.7-4.7-3.4-7.1-5.2c-4.8-3.6-9.5-7.3-13.9-10.9c-4.4-3.6-8.5-7.1-11.8-10.1c-3.4-3-6.2-5.6-8.1-7.4c-1.9-1.8-3-2.9-3-2.9
					s0.9-1.7,2.6-4.8c0.4-0.8,0.9-1.6,1.4-2.6c0.5-0.9,1.2-1.9,1.8-3c1.3-2.2,2.9-4.6,4.6-7.4c0.9-1.4,1.8-2.8,2.7-4.3
					c1-1.5,2.1-3,3.1-4.6c2.2-3.1,4.6-6.6,7.1-10.2c2.7-3.5,5.5-7.2,8.5-11.1c0.8-1,1.5-1.9,2.3-2.9c0.8-1,1.6-1.9,2.4-2.9
					c1.6-1.9,3.3-3.9,5-6c13.7-16.1,30.7-33.3,49.9-49.9c19.2-16.6,40.6-32.5,62.7-46.7c2.8-1.8,5.6-3.4,8.4-5.1l4.2-2.5
					c1.4-0.8,2.8-1.6,4.3-2.4c2.8-1.6,5.6-3.1,8.4-4.6c2.9-1.4,5.7-2.8,8.5-4.2c11.4-5.4,22.6-10,33.8-13.6c1.4-0.5,2.7-0.9,4.1-1.4
					c1.4-0.4,2.8-0.8,4.1-1.2c2.8-0.8,5.4-1.6,8.1-2.4c5.4-1.4,10.7-2.8,15.9-3.9c10.3-2.4,20.3-4.1,29.5-5.6
					c18.5-2.9,34.3-4.9,45.6-6.3C1602,104.6,1608.5,103.8,1608.5,103.8z"/>
				<path fill="#8F2046" d="M1641.5,194.8c-0.5,0.5-2.7,1.5-6.1,2.9c-1.7,0.7-3.8,1.6-6.2,2.5c-2.3,0.9-4.9,1.9-7.7,3
					c-11.3,4.4-26.2,9.9-40.4,16c-0.5,0.2-0.9,0.4-1.4,0.6c-0.4,0.2-0.9,0.4-1.3,0.6c-0.9,0.4-1.7,0.8-2.6,1.2
					c-0.9,0.4-1.8,0.8-2.6,1.2c-0.4,0.2-0.9,0.4-1.3,0.6l-1.2,0.6c-1.7,0.8-3.3,1.6-5.1,2.4c-0.9,0.4-1.6,0.8-2.4,1.2
					c-0.8,0.4-1.6,0.8-2.4,1.2c-0.8,0.4-1.6,0.8-2.5,1.2c-0.8,0.4-1.5,0.9-2.3,1.3c-0.8,0.4-1.5,0.9-2.3,1.3
					c-0.8,0.4-1.6,0.8-2.3,1.3c-1.5,0.9-2.9,1.8-4.5,2.7c-0.8,0.4-1.5,0.9-2.2,1.4c-0.7,0.5-1.4,0.9-2.2,1.4
					c-0.7,0.5-1.5,0.9-2.2,1.4c-0.7,0.5-1.4,1-2.1,1.5c-0.7,0.5-1.4,1-2.2,1.5l-1.1,0.8l-1,0.8c-1.4,1.1-2.8,2.2-4.3,3.3
					c-1.4,1.2-2.8,2.4-4.3,3.6l-1.1,0.9c-0.4,0.3-0.7,0.6-1.1,1l-2.2,2l-2.2,2l-1.1,1l-1.4,1.4c-1.8,1.8-3.6,3.6-5.5,5.4
					c-1.8,1.8-3.6,3.7-5.4,5.6l-2.7,2.8c-0.9,0.9-1.7,1.9-2.6,2.9c-1.7,1.9-3.5,3.8-5.2,5.7c-1.7,1.9-3.3,3.9-5,5.8
					c-0.8,1-1.7,1.9-2.5,2.9c-0.8,1-1.6,1.9-2.3,2.9c-1.6,1.9-3.1,3.8-4.7,5.7c-1.5,1.9-2.9,3.8-4.4,5.7c-0.7,0.9-1.5,1.9-2.2,2.8
					c-0.7,0.9-1.4,1.9-2,2.8c-1.4,1.9-2.7,3.7-4,5.6c-10.4,14.8-18,28.4-23.2,39.2c-0.6,1.3-1.3,2.7-1.9,3.9
					c-0.3,0.7-0.5,1.2-0.8,1.9c-0.2,0.6-0.5,1.2-0.7,1.8c-0.9,2.3-2.1,4.6-2.6,6.5c-0.7,1.9-1.4,3.8-2,5.4c-0.4,1.6-0.9,3-1.3,4.3
					c-0.2,0.6-0.4,1.2-0.6,1.8c-0.1,0.5-0.2,1-0.3,1.5c-0.2,0.9-0.4,1.7-0.6,2.3c-0.3,1.2-0.5,1.9-0.5,1.9s-1.3-0.5-3.6-1.2
					c-2.3-0.8-5.5-2-9.4-3.5c-3.9-1.5-8.4-3.4-13.3-5.6c-2.4-1.1-4.9-2.3-7.4-3.5c-2.5-1.3-4.9-2.6-7.4-3.9c-5-2.7-9.9-5.5-14.5-8.4
					c-4.6-2.8-8.9-5.5-12.4-8c-3.5-2.4-6.5-4.5-8.5-6c-2-1.5-3.2-2.4-3.2-2.4s0.7-1.1,2.1-3.3c0.3-0.5,0.7-1.1,1.1-1.8
					c0.4-0.6,1-1.3,1.5-2.1c1.1-1.5,2.4-3.2,3.8-5.2c0.7-1,1.4-2,2.2-3c0.8-1.1,1.7-2.1,2.6-3.3c1.8-2.3,3.8-4.7,5.8-7.3
					c2.2-2.5,4.6-5.2,7.1-8.1c0.6-0.7,1.2-1.4,1.9-2.1c0.7-0.7,1.4-1.4,2-2.2c1.4-1.4,2.8-2.9,4.2-4.4c11.5-12,26-25.3,42.5-38.3
					c16.5-13,35.2-25.7,54.1-36.8c0.6-0.4,1.1-0.6,1.7-0.9l1.6-0.8l3.2-1.6l3.2-1.6c1.1-0.5,2.1-0.9,3.2-1.4
					c2.1-0.9,4.2-1.8,6.3-2.7c2.1-0.8,4.2-1.5,6.2-2.3c8.3-2.9,16.2-5.2,24.3-6.9c1-0.2,2-0.4,3-0.7c1-0.2,2-0.4,3-0.6
					c2-0.4,3.9-0.8,6-1.1c2-0.3,4-0.7,6-1l1.5-0.2l1.5-0.2c1-0.1,2-0.3,3-0.4c1-0.1,2-0.3,3-0.4c0.5-0.1,1-0.1,1.5-0.2
					c0.5-0.1,1-0.1,1.5-0.2c2-0.3,4-0.5,6-0.8c4.1-0.5,8.1-1,11.9-1.5c17.3-2,31.7-3.6,41.8-4.8
					C1635.1,195.6,1641.5,194.8,1641.5,194.8z"/>
				<path fill="#8F2046" d="M1674.5,285.8c-0.5,0.5-2.6,1.5-6.1,2.9c-1.7,0.7-3.8,1.5-6.1,2.5c-2.2,0.9-4.7,1.8-7.4,2.9
					c-10.8,4.2-24.4,9.3-35.1,13.9c-0.4,0.1-0.7,0.3-1.1,0.4l-0.9,0.4c-0.6,0.3-1.2,0.5-1.8,0.8c-0.6,0.3-1.2,0.5-1.9,0.8l-0.9,0.4
					l-0.8,0.4c-1,0.5-2.1,1-3.2,1.5c-0.6,0.2-1,0.5-1.4,0.7c-0.5,0.2-0.9,0.5-1.4,0.7c-0.5,0.2-0.9,0.4-1.4,0.7
					c-0.4,0.2-0.8,0.4-1.1,0.6c-0.4,0.2-0.8,0.4-1.2,0.6c-0.4,0.2-0.8,0.4-1.1,0.6c-0.6,0.4-1.3,0.8-2,1.1c-0.4,0.2-0.6,0.4-0.9,0.6
					c-0.3,0.2-0.6,0.4-0.9,0.6c-0.3,0.2-0.6,0.3-0.9,0.5c-0.3,0.2-0.6,0.4-0.8,0.6c-0.3,0.2-0.6,0.4-0.9,0.6
					c-0.2,0.1-0.3,0.2-0.5,0.3l-0.4,0.4c-0.6,0.5-1.2,0.9-1.8,1.3c-0.6,0.5-1.3,1.1-2,1.6l-0.5,0.4l-0.3,0.2l-0.3,0.3
					c-0.4,0.3-0.7,0.7-1.1,1c-0.4,0.3-0.7,0.7-1.1,1l-0.6,0.5l-1,1c-1.4,1.4-2.8,2.8-4.2,4.2c-1.4,1.4-2.8,2.9-4.1,4.3l-2.1,2.1
					c-0.7,0.7-1.3,1.5-2,2.2c-1.3,1.5-2.7,2.9-4,4.4c-1.3,1.5-2.5,2.9-3.8,4.4l-1.9,2.2l-1.8,2.2c-1.2,1.4-2.4,2.9-3.6,4.3
					c-1.1,1.4-2.2,2.8-3.3,4.2c-0.5,0.7-1.1,1.4-1.6,2.1c-0.5,0.7-1,1.4-1.5,2c-1,1.3-2,2.7-2.9,4c-7.5,10.5-12.3,19-15.1,24.3
					c-0.3,0.7-0.7,1.3-1,1.9c-0.2,0.3-0.3,0.6-0.4,0.8c-0.1,0.2-0.2,0.5-0.3,0.7c-0.4,0.9-1.1,1.9-1.2,2.4c-0.1,0.3-0.2,0.6-0.4,0.8
					c-0.1,0.1-0.1,0.3-0.2,0.4c-0.1,0.1-0.2,0.3-0.2,0.3c0,0.2-0.2,0.4-0.3,0.6c-0.1,0.1-0.2,0.2-0.2,0.2c0,0,0,0,0-0.1l0,0
					c0,0,0.1,0-0.1,0c-0.2,0-0.4-0.1-0.6-0.1c-0.4-0.1-0.8-0.2-1.1-0.2c-0.7-0.2-1.5-0.3-2.1-0.4c-1.4-0.3-2.6-0.5-3.8-0.7
					c-2.3-0.4-4-0.7-5.2-0.8c-1.2-0.2-1.8-0.2-1.8-0.2s0.8,0.1,2.3,0.3c0.7,0.1,1.6,0.2,2.6,0.4c0.1,0,0.3,0,0.4,0.1l0.2,0l0,0
					l-0.1,0l-0.2,0c-0.4-0.1-0.9-0.2-1.3-0.3c-0.9-0.2-1.9-0.4-2.9-0.6c-4-0.8-8.7-1.9-13.8-3.2c-2.5-0.7-5.1-1.3-7.7-2.1
					c-2.6-0.8-5.1-1.7-7.7-2.6c-5.2-1.8-10.3-3.8-15.2-5.8c-4.8-2-9.4-4-13-5.9c-3.7-1.9-6.8-3.5-8.9-4.6c-2.2-1.2-3.4-1.8-3.4-1.8
					s0.6-0.6,1.6-1.7c0.3-0.3,0.5-0.6,0.9-0.9c0.3-0.3,0.8-0.8,1.2-1.2c0.9-0.9,1.8-1.8,2.9-2.9c0.5-0.5,1.1-1.1,1.7-1.7
					c0.6-0.6,1.4-1.3,2.1-2c1.4-1.4,2.9-2.8,4.6-4.4c1.8-1.6,3.6-3.3,5.6-5.1c0.5-0.4,1-0.9,1.5-1.4c0.5-0.5,1.1-0.9,1.7-1.4
					c1.1-1,2.2-1.9,3.4-2.9c9.3-7.9,21.2-17.3,35-26.8c13.8-9.4,29.7-18.9,45.5-26.8l0.4-0.2c0.1-0.1,0.2-0.1,0.3-0.1l0.6-0.2
					l1.1-0.3l2.2-0.6l2.2-0.6c0.7-0.2,1.4-0.3,2.1-0.4c1.4-0.3,2.7-0.5,4.1-0.8c1.4-0.1,2.7-0.3,3.9-0.4c1.2-0.2,2.6-0.2,3.8-0.2
					l1.8-0.1c0.3,0,0.6,0,0.9,0l0.9,0c1.3,0,2.5,0,3.6,0c1.2,0,2.5,0.1,3.7,0.1c2.6,0.1,5.1,0.1,7.5,0.2c1.4,0,2.7,0,4,0.1
					c1.4,0,2.8,0,4.2,0c0.7,0,1.4,0,2.1,0c0.7,0,1.5,0,2.2,0c1.5,0,3.1-0.1,4.5-0.1c0.8,0,1.6-0.1,2.3-0.1c0.8,0,1.6-0.1,2.4-0.1
					c1.6-0.1,3.2-0.2,4.7-0.2c1.7-0.1,3.4-0.2,5.1-0.3c0.8-0.1,1.6-0.1,2.4-0.2c0.8-0.1,1.7-0.1,2.5-0.2c1.7-0.1,3.4-0.3,5-0.4
					c0.8-0.1,1.6-0.1,2.4-0.2c0.4,0,0.8-0.1,1.2-0.1c0.4,0,0.9-0.1,1.3-0.1c3.4-0.3,6.5-0.6,9.4-0.9c3.1-0.3,6-0.6,8.6-0.9
					c1.3-0.1,2.5-0.3,3.7-0.4c1.2-0.1,2.4-0.3,3.5-0.4c2.2-0.3,4-0.5,5.5-0.7C1672.9,286,1674.5,285.8,1674.5,285.8z"/>
			</g>
		</g>
	</g>
</g>
</svg>
