<svg xmlns="http://www.w3.org/2000/svg" viewBox="0 0 2350 1000" enable-background="new 0 0 2350 1000"><path fill="#CFCECE" d="M0 0h2350v1000h-2350z"/><path d="M397.1 174.5l-.3.2h-.2c-.1 0-.1 0-.3-.1l-.3-.2-.2-.1c-.1-.1-.2-.1-.2-.2l-.5-.4-.7-.7c-1-1-2.3-2.5-4-4.7-1.7-2.2-3.7-5.1-5.8-8.6-4.3-7-9.3-16.6-13.4-27.1-4.2-10.5-7.4-21.9-8.9-31.6-.4-2.4-.7-4.7-.9-6.9-.2-2.1-.3-4.1-.3-5.8 0-1.9 0-3.9.1-5.8 0-1 .1-1.9.2-2.9l.3-2.8c.9-7.4 3.2-14 6.2-19.1 3-5.1 6.5-8.7 9.2-10.9.7-.5 1.3-1 1.8-1.4.5-.4 1-.7 1.4-1 .8-.5 1.2-.8 1.2-.8s3.9 2.7 10 6.6c6.1 3.9 14.5 8.9 23.4 13.6 8.8 4.7 18.1 9 25.3 12.1 7.1 3.1 12 4.9 12 4.9l-.9-.3c-.6-.2-1.5-.5-2.7-.8-2.4-.6-6-1.3-10.5-1.1-4.4.2-9.8 1.2-15.1 3.7-.7.3-1.3.6-2 1-.7.3-1.3.5-2 .9-.6.4-1.4.7-2 1.3l-1 .8-.9.9c-2.5 2.5-4.7 6-6.6 10.2-3.8 8.3-6.1 19-7.2 29.2-1.2 10.3-1.3 20.1-1.4 27.7 0 3.8-.1 7.1-.2 9.8-.1 2.7-.4 4.7-.7 6.3-.3 1.5-.7 2.5-1 3.1-.7.7-.9 1-.9 1zm-66.2 70.6c-.9-.1-4.2-2.6-9.2-8-5.1-5.5-11.9-14-19-25.5-7.1-11.4-14.5-25.6-20.8-41.3-6.3-15.7-11.5-32.9-14.6-49.7-.8-4.2-1.4-8.4-1.9-12.5s-.8-8.2-1-12.1c-.2-4-.3-8-.2-12l.2-5.9.5-5.8c.8-7.6 2.2-14.9 4.2-21.6 2-6.7 4.6-12.8 7.4-18.2 5.8-10.8 12.8-18.3 18.2-22.9.7-.6 1.3-1.1 1.9-1.6.6-.5 1.2-.9 1.7-1.4 1.1-.9 2-1.6 2.8-2.1 1.5-1.1 2.4-1.7 2.4-1.7s3.3 3.2 8.5 7.7c5.3 4.6 12.6 10.5 20.4 16.1 7.8 5.6 16.1 11 22.5 14.8 3.2 1.9 5.9 3.5 7.9 4.6 1.9 1.1 3 1.7 3 1.7s-.6.3-1.8.8c-.6.3-1.3.6-2.2 1-.8.4-1.8.9-2.9 1.5-4.2 2.3-10.1 6-16.1 11.9-6 5.8-12.1 13.8-17.1 23.6-.7 1.2-1.2 2.5-1.9 3.8l-1.8 3.8c-.5 1.3-1.1 2.7-1.6 4.1-.3.7-.5 1.4-.8 2.2l-.7 2.2c-1.9 6-3.4 12.8-4.5 20-2.1 14.3-2.5 30.1-1.5 45 1 15 3.3 29.1 6 40.9 2.7 11.8 5.7 21.1 8 27.3 1.1 3.1 2.1 5.4 2.7 7 1 1.5 1.3 2.3 1.3 2.3zm-66.2 70.7c-1.3-.5-7.5-5.7-15.7-14.7s-18.2-21.8-28.1-37.6c-19.8-31.6-39.3-75.2-48.4-123.2-1.2-6-2.1-12.1-2.9-18.1-.7-6.1-1.4-12.2-1.7-18.4-.3-6.1-.6-12.2-.5-18.1 0-3 .2-6 .2-8.9.2-2.9.3-5.9.6-8.7.5-5.8 1.3-11.4 2.2-16.9 1-5.5 2.1-10.8 3.5-15.9 2.7-10.2 6.3-19.6 10.2-27.9 3.9-8.3 8.4-15.5 12.7-21.5 4.3-6.1 8.6-10.9 12.2-14.7.9-.9 1.8-1.8 2.6-2.7.8-.8 1.6-1.6 2.4-2.3 1.5-1.4 2.7-2.6 3.8-3.5 2.1-1.8 3.3-2.8 3.3-2.8s3.5 4 8.9 9.7c2.7 2.8 5.9 6.2 9.4 9.6 1.7 1.7 3.5 3.4 5.4 5.2l2.8 2.7 1.4 1.3 1.3 1.2c3.4 3.3 6.9 6.6 10.3 9.5 3.4 3 6.7 5.7 9.5 8.1 2.9 2.3 5.3 4.2 7 5.5 1.7 1.3 2.7 2.1 2.7 2.1s-.2.2-.7.5c-.4.3-1.2.8-2 1.4-.9.6-1.9 1.4-3.2 2.4-1.2 1-2.6 2.1-4.1 3.4-6 5.2-14.2 13.4-21.6 24.9-7.5 11.5-14.4 26.3-19.1 43.5-4.8 17.1-7.5 36.7-8 57.1-.5 20.3 1.1 41.1 4.3 60.8 3.2 19.7 8 38.1 13.4 54 5.4 15.9 11.7 29.2 16.8 38.6 2.6 4.7 4.8 8.4 6.4 10.9 1.9 2.1 2.7 3.5 2.7 3.5zm-66.1 70.6c-.5-.2-1.3-.9-2.6-2-.6-.5-1.4-1.2-2.2-1.9-.8-.7-1.8-1.6-2.7-2.5-1-.9-2-1.9-3.1-3-.6-.5-1.1-1.1-1.7-1.7l-1.8-1.8c-1.2-1.3-2.5-2.6-3.9-4-1.3-1.4-2.7-2.9-4.1-4.5-5.6-6.2-11.8-13.7-18.1-22-6.3-8.4-12.8-17.7-19.1-27.8-6.4-10.1-12.6-21-18.6-32.7-6-11.6-11.7-24-17.1-37-10.7-26-19.8-54.7-25.8-85.9-1.6-7.6-2.8-15.6-3.9-23.6-1-8.1-1.9-16.3-2.4-24.7-.5-8.2-.8-16.3-.8-24.3 0-4 .1-8 .2-11.9.2-3.9.4-7.8.7-11.7.6-7.7 1.5-15.3 2.6-22.7 1.1-7.4 2.5-14.5 4.1-21.4 3.2-13.8 7.4-26.6 11.9-38 4.6-11.4 9.7-21.5 14.6-30 4.9-8.6 9.8-15.6 13.9-21.2 1-1.4 2-2.7 3-4 .9-1.2 1.9-2.3 2.7-3.4 1.7-2.1 3.1-3.9 4.4-5.3 2.4-2.8 3.7-4.3 3.7-4.3s3.3 4.7 8.4 11.5c2.5 3.4 5.6 7.3 8.9 11.4 3.3 4.1 6.9 8.4 10.5 12.6 3.6 4.2 7.4 8.3 10.9 12.1 3.5 3.8 6.9 7.2 9.8 10.1 2.9 2.9 5.4 5.3 7.1 6.9 1.8 1.6 2.8 2.6 2.8 2.6s-.3.3-.9.8c-.6.5-1.4 1.3-2.5 2.3-1.1 1-2.4 2.3-3.9 3.9s-3.2 3.4-5.1 5.4c-3.7 4.2-7.9 9.5-12.4 15.9-4.4 6.4-9 14-13.3 22.7-8.6 17.3-16.1 39-20.5 63.5-.6 3.1-1 6.2-1.5 9.3-.5 3.2-.9 6.4-1.3 9.7-.3 3.2-.7 6.5-1 9.8l-.4 4.9-.3 4.9c-.8 13.2-.8 26.4-.3 39.5 1.1 26.3 4.7 52.2 10 76.5 5.4 24.3 12.6 47.1 20.9 67.1 4.1 10 8.5 19.3 12.9 27.7 4.4 8.4 8.8 15.9 12.8 22.1 4.1 6.3 7.6 11.3 10.2 14.8 2.9 3.5 4.3 5.3 4.3 5.3zm-66.2 70.7c-.6-.4-1.7-1.3-3.4-2.7-.8-.7-1.8-1.6-2.9-2.5-1.1-1-2.3-2.1-3.5-3.3-1.2-1.2-2.6-2.5-4.1-3.9-.7-.7-1.5-1.5-2.3-2.2-.7-.8-1.5-1.5-2.3-2.3-1.6-1.6-3.2-3.4-5-5.2-1.7-1.8-3.4-3.7-5.2-5.7-7.2-8-15-17.4-22.8-27.8-7.9-10.4-15.8-21.8-23.5-34.2-7.8-12.3-15.3-25.5-22.5-39.5-7.2-14-14.1-28.8-20.6-44.4-12.8-31.3-23.8-65.8-31.4-104-1.9-9.5-3.5-19.4-4.9-29.4-1.3-10.1-2.4-20.4-3.2-31-.2-2.7-.3-5.1-.5-7.7-.1-2.5-.3-5.1-.3-7.6-.2-5.1-.3-10.1-.3-15.1s.1-10 .2-14.9c.2-4.9.4-9.8.8-14.7 2.6-38.9 11-74.5 21.5-103.5 5.2-14.5 11-27.4 16.5-38.5 5.5-11.1 11-20.3 15.6-27.8 1.2-1.9 2.3-3.6 3.3-5.3 1-1.6 2.1-3.1 3-4.5 1.9-2.8 3.5-5.2 4.9-7.1 2.7-3.8 4.2-5.8 4.2-5.8s3.1 5.4 7.9 13.2c2.4 3.9 5.3 8.5 8.3 13.2 3.1 4.7 6.5 9.8 10 14.6 3.4 4.9 7 9.7 10.4 14.1 3.3 4.4 6.6 8.5 9.4 11.9 2.8 3.4 5.1 6.2 6.8 8.2 1.7 2 2.6 3.1 2.6 3.1s-.3.4-.9 1.1c-.6.8-1.6 1.9-2.7 3.3-1.2 1.5-2.6 3.4-4.3 5.5-1.6 2.2-3.5 4.8-5.6 7.7-4 5.9-8.8 13.2-13.7 22-4.9 8.8-10 19-14.6 30.6-9.5 23.2-17.5 51.7-21.5 83.6-.6 4-1 8-1.4 12.1-.4 4.1-.7 8.4-1 12.6-.2 4.2-.5 8.5-.6 12.6l-.2 6.3-.1 6.3c-.2 16.7.5 33.2 1.8 49.3 2.7 32.3 8.2 63.3 15.8 92.3 7.5 29 17.3 56.1 28.3 80.3 5.5 12.1 11.4 23.4 17.3 33.7 5.9 10.3 11.9 19.6 17.3 27.4 1.4 2 2.8 3.9 4 5.6l1.9 2.6c.6.8 1.2 1.7 1.8 2.4 1.2 1.6 2.3 3 3.3 4.4.5.7 1 1.3 1.5 1.9.5.6 1 1.2 1.4 1.8 3.6 4.5 5.5 6.9 5.5 6.9zm767.6 122.9c0-.8.5-3.1 1.6-6.8.5-1.9 1.2-4 2-6.6.8-2.6 1.7-5.6 2.7-8.8 1.1-3.4 2.2-7 3.5-11 .6-2 1.3-4.1 2-6.3.7-2.3 1.4-4.6 2.2-7 .7-2.4 1.5-4.9 2.3-7.4.8-2.7 1.6-5.4 2.4-8.2 1.7-5.5 3.4-11.8 5.1-18.2.2-.8.4-1.6.7-2.4.2-.8.4-1.7.7-2.5.4-1.7.9-3.4 1.3-5.2.4-1.7.9-3.5 1.3-5.3.2-.9.4-1.8.7-2.7l.6-2.8c.8-3.8 1.7-7.6 2.6-11.5.4-1.9.8-4 1.2-6 .4-2 .8-4.1 1.2-6.2.4-2.1.8-4.2 1.2-6.2l1-6.5 1-6.6c.3-2.2.7-4.4 1-6.7l1.6-13.8c.3-2.3.4-4.7.6-7.1l.6-7.2c.2-2.4.4-4.8.5-7.2l.3-7.3c.1-2.4.2-4.9.3-7.4l.1-3.7v-3.7c0-4.9-.1-9.9-.1-14.9-.2-4.9-.4-9.9-.7-14.8l-.2-3.7c-.1-1.3-.1-2.5-.3-3.7l-.6-7.3c-.2-2.5-.4-4.9-.7-7.4l-.4-3.7-.4-3.2-1.6-12.9c-.5-4.3-1.2-8.6-1.9-12.9l-1-6.4c-.3-2.1-.7-4.3-1.1-6.4-.7-4.3-1.5-8.6-2.2-12.8l-2.6-12.8-1.3-6.3-1.5-6.3c-1-4.2-2-8.4-2.9-12.6l-3.3-12.5-1.6-6.2-1.8-6.2c-1.2-4.1-2.4-8.2-3.6-12.2-9.9-32.3-22.5-62.8-36.1-89.2-1.7-3.3-3.4-6.5-5-9.7-.8-1.6-1.7-3.1-2.6-4.7-.9-1.5-1.8-3.1-2.6-4.6-3.5-6-6.7-11.7-10.3-17.1-1.8-2.7-3.4-5.3-5.1-7.8-.8-1.3-1.6-2.5-2.4-3.7-.8-1.2-1.5-2.4-2.4-3.5-3.4-4.7-6.5-8.9-9.3-12.7-1.4-1.9-2.8-3.7-4.1-5.4-1.4-1.7-2.7-3.3-3.9-4.8-2.5-2.9-4.5-5.5-6.2-7.5-3.4-4-5.2-6.2-5.2-6.2s1.7-.2 4.5-.6c2.9-.3 7.1-.8 12.1-1.2 5.1-.5 11-.9 17.5-1.2 3.2-.2 6.6-.3 10-.4 3.3-.1 6.7-.2 10.1-.3 6.8-.1 13.7-.1 20.3 0 6.5.1 12.8.4 17.8.6 5.1.2 9.5.5 12.5.7 3 .2 4.8.3 4.8.3s1.3 2.7 3.9 7.7c.6 1.3 1.3 2.7 2.1 4.2.7 1.5 1.4 3.2 2.3 5 1.6 3.6 3.4 7.7 5.4 12.3 1 2.3 2 4.7 3.1 7.2 1 2.5 2 5.1 3 7.8 2.1 5.4 4.2 11.3 6.5 17.5 2 6.1 4.1 12.6 6.3 19.5l1.6 5.2c.5 1.7 1 3.5 1.4 5.2 1 3.5 1.9 7.1 2.9 10.8 7.7 29.3 13.6 62.2 17 96.2 3.3 34 4.1 69 2.6 103.9l-.3 7.5-.3 7.6-.4 7.6c-.2 2.5-.4 5.1-.6 7.7-.4 5.1-.8 10.2-1.3 15.2-.6 5.1-1.2 10.2-1.9 15.2-.6 5-1.5 10.1-2.3 15-.4 2.5-.9 5-1.3 7.4-.2 1.2-.4 2.5-.7 3.7l-.8 3.6c-1 4.9-2 9.7-3.1 14.4-1.1 4.7-2.3 9.3-3.5 13.9-.6 2.3-1.2 4.6-1.8 6.8-.7 2.2-1.3 4.4-2 6.5l-2 6.5c-.7 2.1-1.3 4.3-2 6.3-1.4 4.1-2.8 8.1-4.2 12-.3 1-.7 2-1 2.9l-1.1 2.8c-.7 1.9-1.4 3.7-2.2 5.5-.7 1.8-1.4 3.6-2.1 5.5l-1.1 2.7c-.4.9-.7 1.7-1.1 2.5-1.5 3.4-2.9 6.7-4.3 9.9-1.4 3.3-2.8 6.2-4.2 9.2-1.4 2.9-2.8 5.8-4.1 8.7-1.3 2.7-2.7 5.3-4 7.9l-1.9 3.8c-.3.6-.6 1.2-.9 1.9-.3.6-.6 1.2-.9 1.7-1.2 2.3-2.4 4.5-3.6 6.7-.6 1.1-1.2 2.1-1.7 3.2-.3.5-.6 1-.8 1.6l-.8 1.5c-2.2 3.8-4.2 7.4-6.1 10.8-1.8 3.2-3.5 6.1-5.1 8.7-.8 1.3-1.5 2.5-2.2 3.7-.7 1.1-1.3 2.2-1.9 3.1-1.2 1.9-2.2 3.6-3 4.9-1.6 2.5-2.4 3.9-2.4 3.9zm-91.8-30.7c0-.7.5-3.1 1.5-6.7.5-1.8 1.2-4 1.9-6.5.8-2.5 1.7-5.4 2.6-8.5 3.9-12.7 9.8-30.3 15.9-52.7 3-11.2 6.1-23.5 8.5-37 .3-1.7.6-3.4 1-5.1.3-1.7.6-3.5.8-5.2.5-3.5 1.2-7 1.6-10.6l1.3-10.9c.4-3.7.6-7.4 1-11.2l.4-5.7c.1-1.9.2-3.8.2-5.7l.2-5.8.1-2.9v-14.6c-.1-3.9-.3-7.8-.5-11.8-.1-4-.5-7.9-.8-11.8l-.5-5.9-.3-2.9-.3-2.8c-.4-3.7-.9-7.4-1.3-11.2-.5-3.7-1.1-7.4-1.6-11.2l-.8-5.6-.9-5.6-1.9-11.1-2.2-11-1.1-5.5-1.2-5.4-2.5-10.8c-.9-3.6-1.8-7.1-2.8-10.7l-1.4-5.3c-.5-1.8-1-3.5-1.5-5.2-1-3.5-2-6.9-3-10.3-8.3-27.3-18.7-52.5-29.5-73.6-1.4-2.6-2.7-5.2-4-7.8-1.3-2.5-2.8-5-4.1-7.3-2.8-4.8-5.2-9.3-8-13.4-2.7-4.2-5.2-8.1-7.6-11.7-2.6-3.5-4.9-6.8-7.1-9.7-1.1-1.5-2.1-2.8-3.1-4.1-1-1.3-2-2.5-2.9-3.6-1.8-2.2-3.4-4.1-4.6-5.6-2.5-3-3.9-4.7-3.9-4.7s1.5-.4 4.1-1c2.6-.7 6.4-1.6 11-2.6s10-2.1 15.9-3.1c2.9-.5 6-1 9.1-1.5 3.1-.5 6.2-.9 9.3-1.3 6.3-.8 12.7-1.5 18.7-2.1 6-.5 11.8-.9 16.5-1.2 4.8-.3 8.8-.4 11.7-.5 2.8-.1 4.5-.1 4.5-.1s1 2.2 3 6.4c.5 1 1 2.2 1.6 3.5.6 1.3 1.1 2.6 1.7 4.1 1.2 3 2.6 6.4 4.2 10.2.8 1.9 1.6 3.9 2.4 6 .8 2.1 1.5 4.3 2.3 6.6 1.6 4.6 3.3 9.5 5 14.7 1.6 5.2 3.2 10.7 4.8 16.5.4 1.4.8 2.9 1.2 4.4l1.1 4.5c.7 3 1.5 6.1 2.2 9.2 5.9 25.1 10.3 53.5 12.5 83.2 2.2 29.7 2.1 60.5.1 91l-.9 12.4-.5 6.2c-.2 2.1-.5 4.2-.7 6.2l-1.5 12.4c-.7 4.1-1.3 8.2-1.9 12.3-2.8 16.2-6.4 31.9-11 46.5l-1.6 5.4-1.8 5.3c-1.2 3.5-2.3 7-3.6 10.3-1.3 3.3-2.5 6.6-3.8 9.8-1.2 3.3-2.6 6.3-3.9 9.3l-1.9 4.5c-.3.7-.6 1.5-1 2.2l-1 2.1-3.9 8.4c-1.3 2.8-2.6 5.3-3.9 7.9l-3.8 7.5c-2.5 4.7-4.9 9.3-7.2 13.5-2.3 4.1-4.5 8.1-6.6 11.8-2.1 3.6-4 7-5.8 10.1-1.8 3-3.5 5.8-5 8.3-5.8 9.8-9.2 15.4-9.2 15.4zm-91.8-30.7c0-.7.5-3 1.5-6.7.5-1.8 1.2-4 1.9-6.4.8-2.4 1.6-5.2 2.5-8.2 3.8-12.1 9.1-28.5 14.2-47.1 2.5-9.3 5-19.2 6.9-29.4 1.9-10.3 3.6-20.9 4.3-31.9.1-1.4.3-2.8.3-4.1l.2-4.2.2-4.2.1-2.1v-10.7c-.1-2.9-.2-5.8-.4-8.7-.1-2.9-.3-5.8-.6-8.8-.1-1.5-.2-2.9-.4-4.4l-.2-2.2-.3-2.3-1.1-9.4-1.3-9.4-.7-4.7c-.2-1.6-.5-3.1-.8-4.7l-1.6-9.3c-.6-3.1-1.2-6.2-1.8-9.2l-.9-4.6-1-4.5c-.7-3-1.4-6-2-9-.8-3-1.5-5.9-2.3-8.8l-1.1-4.4c-.4-1.5-.8-2.9-1.2-4.3-.8-2.8-1.6-5.7-2.5-8.5-6.7-22.3-14.9-42.1-22.9-58.1-1-2-2-3.9-3-5.8l-3-5.4c-2-3.5-3.8-6.9-5.8-9.8-1.9-2.9-3.6-5.8-5.3-8.3-1.8-2.4-3.4-4.7-4.8-6.7-.7-1-1.4-2-2.1-2.9-.7-.8-1.3-1.6-1.9-2.4-1.2-1.5-2.2-2.7-3-3.7-1.6-2-2.5-3.1-2.5-3.1s1.3-.6 3.6-1.5c2.3-1 5.7-2.3 9.8-3.9 4.1-1.5 9-3.3 14.3-5 2.6-.9 5.4-1.8 8.2-2.6 2.8-.8 5.6-1.6 8.5-2.4 5.7-1.5 11.6-2.9 17.1-4.1 5.5-1.2 10.9-2.2 15.3-3 4.5-.8 8.2-1.3 10.9-1.7 2.6-.4 4.2-.6 4.2-.6s.7 1.7 2.1 5c.3.8.7 1.7 1.1 2.7.4 1 .8 2.1 1.2 3.3.9 2.4 1.8 5.1 2.9 8.2.5 1.5 1.1 3.1 1.7 4.8.6 1.7 1.1 3.5 1.6 5.3 1.1 3.7 2.3 7.7 3.6 11.9 1.1 4.2 2.2 8.8 3.4 13.5l.9 3.6.8 3.7c.5 2.5 1 5 1.6 7.6 4.1 20.8 7 44.8 8.1 70.1 1.1 25.3.2 52-2.3 78.1-.4 3.3-.8 6.5-1.2 9.7l-.6 4.8c-.2 1.6-.5 3.2-.8 4.8l-1.6 9.5-2 9.3c-2.9 12.3-6.2 23.9-10.3 34.9l-1.5 4.1-1.6 4c-1.1 2.7-2.1 5.3-3.2 7.8-2.3 5.1-4.4 10.1-6.8 14.9-4.5 9.6-9.4 18.5-13.9 26.6-9.2 16.3-17.5 29.9-23.4 39.7-5.9 9.8-9.3 15.3-9.3 15.3zm-91.8-30.7c0-.7.5-3 1.5-6.6.5-1.8 1.1-4 1.9-6.4.7-2.3 1.5-5 2.4-7.9 3.6-11.6 8.5-26.7 12.6-41.6.1-.5.3-1 .4-1.4l.3-1.4.7-2.7.7-2.8c.1-.5.2-.9.4-1.4l.3-1.3c.4-1.8.8-3.6 1.3-5.5l.6-2.7.5-2.7.6-2.7.4-2.6.4-2.6c.1-.9.3-1.8.4-2.6.2-1.7.4-3.4.7-5.2.2-.9.2-1.7.3-2.6.1-.9.2-1.7.2-2.6.1-.9.2-1.7.2-2.6l.1-2.6.1-2.6.1-1.3v-1.3c0-1.8 0-3.6.1-5.4l-.2-5.6v-1.4c0-.5 0-.9-.1-1.4l-.2-2.9-.2-3-.1-1.5-.2-1.9c-.3-2.5-.6-5.1-.9-7.7l-1-7.7-.5-3.8-.6-3.8-1.2-7.6-1.5-7.5-.7-3.7-.8-3.6-1.6-7.2-1.8-7-.9-3.5c-.3-1.2-.6-2.2-1-3.4l-1.9-6.6c-5.1-17.4-11.1-31.8-16.3-42.5-.7-1.3-1.3-2.7-1.9-3.9-.3-.7-.6-1.2-1-1.8l-.9-1.7c-1.2-2.2-2.3-4.5-3.5-6.1-1.1-1.7-2.1-3.5-3-4.9-1-1.3-1.8-2.5-2.6-3.6-.4-.6-.7-1.1-1-1.6-.3-.4-.7-.8-.9-1.1-.6-.7-1.1-1.3-1.4-1.9-.8-1-1.1-1.6-1.1-1.6s1.2-.7 3.2-2c2.1-1.3 5-3.1 8.6-5.2 3.6-2.1 7.9-4.5 12.7-6.9 2.4-1.2 4.8-2.5 7.4-3.6 2.5-1.1 5.1-2.3 7.7-3.4 5.2-2.2 10.5-4.3 15.6-6.2 5-1.9 9.9-3.6 14-4.8 4.1-1.3 7.6-2.2 10-2.9 2.4-.7 3.8-1 3.8-1s.4 1.3 1.2 3.7c.2.6.4 1.3.7 2 .2.7.5 1.6.7 2.5.5 1.8 1.1 3.9 1.7 6.2.3 1.1.7 2.3 1 3.6.3 1.3.6 2.7 1 4.1.6 2.8 1.3 5.9 2.1 9.1.6 3.3 1.3 6.8 2 10.6.2.9.4 1.8.5 2.8.1 1 .3 2 .4 2.9.3 2 .6 4 .9 6.1 2.3 16.5 3.7 36.1 3.7 57.1-.1 21-1.7 43.5-4.8 65.2-.1.7-.2 1.2-.3 1.8l-.4 1.8-.7 3.5-.7 3.5c-.3 1.1-.6 2.2-.9 3.4l-1.8 6.6-2.1 6.3c-2.9 8.3-6 16-9.7 23.3l-1.3 2.7c-.5.9-1 1.8-1.4 2.7l-2.8 5.4c-1 1.8-2 3.6-3 5.3l-.7 1.3-.8 1.3-1.5 2.7-1.5 2.6-.7 1.3-.8 1.3c-1.1 1.8-2.1 3.5-3.1 5.2-2.2 3.5-4.2 7-6.3 10.2-9.2 14.8-16.8 27.1-22.2 35.7-6.3 9.4-9.6 14.8-9.6 14.8zm-91.8-30.7c0-.7.5-3 1.5-6.6.5-1.8 1.1-3.9 1.9-6.3.7-2.2 1.5-4.8 2.3-7.6 3.4-11 7.9-24.9 11-36.1l.3-1.1.2-1 .5-1.9c.2-.6.3-1.3.5-2l.3-1 .2-.9.8-3.4c.2-.6.2-1.1.3-1.6l.3-1.5.3-1.5.2-1.3c.1-.4.2-.9.2-1.3.1-.4.2-.9.2-1.2.1-.8.2-1.5.4-2.3.1-.4.1-.7.1-1.1l.1-1.1c0-.4.1-.7.2-1.1v-1l.1-1 .1-.5v-.6c0-.7 0-1.5.1-2.2 0-.8-.1-1.7 0-2.5v-1.3l-.1-1.5c0-.5 0-1-.1-1.5v-.8l-.2-1.5-.6-5.9c-.2-2-.5-3.9-.8-5.9l-.4-3c-.1-1-.3-2-.5-2.9l-.9-5.9-1.1-5.7c-.2-1-.3-1.9-.5-2.8l-.6-2.7c-.4-1.8-.8-3.7-1.1-5.5l-1.3-5.2-.6-2.6-.7-2.4c-.5-1.6-.9-3.2-1.3-4.8-3.5-12.4-7.2-21.4-9.7-26.9l-.9-2c-.1-.4-.3-.6-.4-.8l-.4-.7c-.5-.9-.9-2-1.2-2.4-.2-.3-.3-.5-.4-.8l-.2-.4c0-.1-.1-.3-.1-.3-.2-.2-.2-.4-.3-.6v-.3.1l.1-.1.5-.4c.3-.3.6-.5.9-.7.6-.5 1.1-1 1.7-1.4 1.1-.9 2-1.7 2.9-2.5 1.7-1.5 3-2.7 3.9-3.6.9-.8 1.3-1.3 1.3-1.3s-.6.6-1.7 1.6c-.5.5-1.2 1.1-1.9 1.8l-.3.3-.1.1.1-.1.1-.1 1-.9c.7-.6 1.5-1.2 2.2-1.9 3.2-2.6 6.9-5.7 11.1-8.8 2.1-1.6 4.2-3.2 6.5-4.7 2.2-1.5 4.5-3 6.9-4.4 4.7-2.9 9.4-5.7 14-8.3 4.6-2.5 8.9-4.9 12.7-6.6 3.8-1.8 7-3.2 9.2-4.1 2.3-1 3.5-1.5 3.5-1.5s.1.8.3 2.3c.1.4.1.8.2 1.3s.1 1.1.2 1.7c.1 1.2.3 2.6.5 4.1l.3 2.4.3 2.8c.2 1.9.4 4.1.6 6.3.2 2.4.3 4.9.5 7.6l.1 2c0 .7.1 1.4.1 2.2.1 1.5.1 2.9.2 4.5.5 12.2.4 27.4-.8 44.1-1.2 16.7-3.6 35-7.3 52.3l-.1.4-.1.3-.2.5-.5 1.1-.9 2.1-.8 2.1c-.3.7-.7 1.3-1 1.9l-1.9 3.7c-.7 1.1-1.4 2.3-2.1 3.3-.6 1.1-1.4 2.1-2.2 3.1l-1.1 1.5-.5.7-.6.7c-.8 1-1.5 1.9-2.3 2.8-.8 1-1.6 1.9-2.4 2.8-1.6 2-3.3 3.9-4.8 5.8-.9 1-1.7 2.1-2.5 3.1-.9 1.1-1.8 2.2-2.6 3.3l-1.3 1.7c-.5.6-.9 1.2-1.3 1.8l-2.7 3.6-1.4 1.9c-.5.7-1 1.3-1.4 2l-2.8 3.9-2.9 4.2-1.4 2-1.4 2.1c-1 1.4-1.9 2.8-2.8 4.2-.5.7-.9 1.3-1.3 2-.2.3-.4.7-.7 1l-.7 1.1c-1.8 2.8-3.6 5.5-5.1 7.9-1.7 2.7-3.2 5.1-4.6 7.3-.7 1.1-1.4 2.2-2 3.1-.7 1.1-1.3 2.1-1.8 3-1.1 1.9-2.1 3.4-2.9 4.7-1.6 2.7-2.4 4-2.4 4zm18 353.4c.1-.1.2-.1.4-.1h.2c.1 0 .1 0 .3.1l.3.2.2.1.2.2c.2.1.3.3.5.5l.6.7c.9 1.1 2.1 2.7 3.6 5s3.3 5.4 5.1 9c3.7 7.3 7.9 17.3 11.1 28.1 3.3 10.8 5.5 22.5 6.3 32.2.2 2.5.3 4.7.3 6.9 0 2.1 0 4.1-.1 5.8-.1 1.9-.3 3.9-.6 5.8-.1 1-.3 1.9-.4 2.8-.2.9-.3 1.9-.6 2.8-1.5 7.3-4.4 13.7-7.8 18.5-3.4 4.9-7.2 8.1-10 10.1-.7.5-1.3.9-1.9 1.3-.6.4-1.1.7-1.5.9-.8.4-1.2.7-1.2.7s-3.6-3-9.4-7.4c-5.8-4.4-13.7-10.1-22.2-15.5-8.4-5.4-17.3-10.5-24.2-14.1-6.9-3.6-11.6-5.9-11.6-5.9s.3.1.9.4c.6.3 1.5.6 2.7 1 2.3.8 5.9 1.8 10.4 1.9 4.4.2 9.9-.4 15.3-2.5l2.1-.8 2.1-.7c.7-.3 1.4-.6 2.1-1.1l1-.7 1-.8c2.7-2.3 5.2-5.6 7.4-9.6 4.4-8 7.6-18.4 9.6-28.6 2-10.2 3-19.9 3.7-27.5.4-3.8.7-7.1 1-9.7.3-2.7.7-4.7 1.2-6.2.4-1.4.9-2.5 1.3-3.1.4-.4.6-.7.6-.7zm71.7-65.1c.9.2 3.9 2.9 8.6 8.8 4.6 5.9 10.7 15 16.9 26.9 6.2 11.9 12.4 26.7 17.4 42.8 5 16.1 8.8 33.7 10.5 50.7.4 4.3.7 8.5.9 12.6.1 4.1.2 8.2 0 12.2-.1 4-.4 8-.8 11.9-.2 2-.5 3.9-.7 5.8-.3 1.9-.6 3.8-1 5.7-1.4 7.5-3.4 14.7-5.9 21.2-2.5 6.5-5.6 12.4-8.9 17.5-6.6 10.3-14.3 17.2-20 21.4-.7.5-1.4 1-2 1.5-.6.5-1.3.8-1.8 1.2-1.1.8-2.1 1.4-3 1.9-1.6 1-2.5 1.5-2.5 1.5s-3-3.4-7.9-8.4-11.7-11.5-19-17.7c-7.3-6.3-15.2-12.3-21.3-16.6-3-2.2-5.6-3.9-7.5-5.2-1.8-1.2-2.9-1.9-2.9-1.9s.7-.2 1.9-.6c.6-.2 1.3-.5 2.2-.8.9-.3 1.9-.7 3-1.2 4.4-1.9 10.6-5.2 17-10.6 6.4-5.3 13.2-12.7 18.9-22.2l2.2-3.6 2.1-3.6 2-3.9c.3-.7.6-1.4 1-2.1l.9-2.2c2.4-5.9 4.4-12.5 6.1-19.5 3.3-14.1 4.9-29.8 5.1-44.7.2-15-.9-29.3-2.7-41.2-1.7-12-4-21.5-5.7-27.9-.9-3.2-1.6-5.6-2.1-7.2-.7-1.6-1-2.5-1-2.5zm71.7-65c1.3.6 7 6.3 14.4 15.9 7.4 9.6 16.4 23.2 25 39.8 17.2 33.1 33.1 78.2 38.2 126.8.7 6.1 1.1 12.2 1.4 18.3.2 6.2.4 12.3.2 18.5-.1 6.1-.4 12.2-1 18.1-.2 3-.6 5.9-1 8.8-.4 2.9-.8 5.8-1.3 8.7-.9 5.7-2.2 11.3-3.5 16.7-1.4 5.4-3 10.6-4.8 15.6-3.5 10-7.8 19-12.4 27-4.6 8-9.6 14.8-14.4 20.4-4.8 5.7-9.4 10.1-13.4 13.7-1 .9-1.9 1.7-2.8 2.5-.9.8-1.8 1.4-2.6 2.1-1.6 1.3-3 2.4-4.1 3.2-2.3 1.7-3.5 2.5-3.5 2.5s-3.2-4.3-8.1-10.4c-2.4-3-5.4-6.7-8.6-10.3-1.6-1.9-3.2-3.7-5-5.7l-2.6-2.9-1.3-1.4-1.2-1.3c-3.1-3.5-6.4-7.1-9.5-10.4-3.1-3.2-6.2-6.3-8.8-8.8-2.7-2.5-4.9-4.6-6.5-6.1-1.6-1.5-2.6-2.3-2.6-2.3s.2-.1.7-.4c.5-.3 1.2-.7 2.1-1.2.9-.6 2-1.3 3.3-2.1 1.3-.9 2.8-1.9 4.4-3 6.4-4.7 15.2-12.2 23.6-23.1 8.4-10.9 16.5-25.1 22.6-41.8 6.2-16.6 10.5-36 12.6-56.2 2.2-20.2 2.3-41.1.7-60.9-1.6-19.8-4.8-38.6-9-54.9-4.1-16.3-9.3-30-13.6-39.8-2.2-4.9-4.1-8.7-5.5-11.4-1.3-2.8-2.1-4.2-2.1-4.2zm71.7-65c.4.3 1.3 1 2.4 2.2.6.6 1.3 1.3 2 2.1.8.8 1.6 1.7 2.5 2.7.9 1 1.8 2.1 2.9 3.2.5.6 1 1.2 1.6 1.8l1.6 1.9c1.1 1.4 2.3 2.8 3.5 4.3 1.2 1.5 2.4 3.1 3.7 4.8 5.1 6.7 10.7 14.6 16.3 23.4 5.6 8.8 11.3 18.6 16.8 29.2 5.5 10.6 10.9 22 15.9 34.1 5 12.1 9.8 24.9 14 38.3 8.5 26.8 15.2 56.2 18.7 87.7.9 7.9 1.5 15.9 1.9 24 .4 8.2.6 16.4.4 24.8-.2 8.2-.5 16.3-1.2 24.3-.3 4-.8 7.9-1.2 11.9-.5 3.9-1 7.8-1.7 11.6-1.2 7.7-2.7 15.1-4.4 22.4-1.7 7.3-3.7 14.3-5.9 21-4.3 13.5-9.5 25.9-15 36.9s-11.4 20.6-17 28.7c-5.6 8.2-11 14.7-15.6 20-1.2 1.3-2.2 2.6-3.3 3.7-1 1.2-2.1 2.2-3 3.2-1.9 2-3.4 3.6-4.8 4.9l-4 4s-2.9-5-7.4-12.1c-2.2-3.5-5-7.8-7.9-12.1-2.9-4.3-6.2-8.9-9.5-13.4-3.3-4.4-6.7-8.9-9.9-12.9s-6.3-7.8-9-10.9c-2.7-3.1-4.9-5.7-6.5-7.5-1.6-1.8-2.5-2.8-2.5-2.8s.3-.2.9-.7c.6-.5 1.5-1.1 2.7-2.1 1.1-1 2.5-2.1 4.2-3.5 1.6-1.4 3.4-3.1 5.5-5 4-3.9 8.7-8.8 13.6-14.8s10.1-13.2 15.1-21.5c10-16.5 19.2-37.6 25.6-61.7.8-3 1.5-6.1 2.3-9.2.7-3.1 1.4-6.3 2-9.5.6-3.2 1.2-6.4 1.8-9.7.3-1.6.5-3.2.8-4.9.2-1.6.5-3.2.7-4.9 1.9-13.1 3-26.2 3.5-39.4 1-26.3-.4-52.4-3.8-77.1-3.4-24.7-8.7-48-15.3-68.6-3.3-10.3-6.9-19.9-10.6-28.7-3.7-8.7-7.5-16.5-10.9-23.1-3.5-6.6-6.7-11.9-9-15.5-2.2-3.6-3.5-5.5-3.5-5.5zm71.7-65.1c.5.4 1.6 1.4 3.1 3 .8.8 1.7 1.7 2.6 2.8 1 1.1 2.1 2.3 3.2 3.5 1.1 1.3 2.4 2.7 3.7 4.3l2.1 2.4 2.1 2.5c1.4 1.8 2.9 3.6 4.5 5.6 1.5 1.9 3.1 4 4.7 6.1 6.5 8.6 13.5 18.5 20.5 29.5s14 23.1 20.7 36c6.7 12.9 13.2 26.7 19.3 41.2 6.1 14.5 11.8 29.8 16.9 45.9 10.3 32.2 18.5 67.4 22.9 106.2 1.1 9.7 1.9 19.7 2.5 29.7.5 10.2.8 20.5.6 31.2 0 2.7-.1 5.2-.2 7.7s-.1 5.1-.3 7.6c-.2 5.1-.6 10.1-1 15.1s-.9 9.9-1.5 14.9c-.6 4.9-1.2 9.8-2 14.6-5.7 38.5-17 73.4-29.8 101.4-6.4 14.1-13.2 26.4-19.6 37-6.4 10.6-12.6 19.3-17.8 26.4-1.3 1.8-2.6 3.4-3.7 5-1.2 1.6-2.3 2.9-3.4 4.3-2.1 2.6-3.9 4.9-5.5 6.6-3 3.5-4.6 5.4-4.6 5.4s-2.6-5.7-6.8-13.8c-2-4.1-4.6-8.9-7.2-13.8-2.7-4.9-5.7-10.3-8.7-15.4-3-5.1-6.2-10.3-9.2-14.9-3-4.7-5.9-9-8.4-12.7-2.5-3.7-4.6-6.6-6.1-8.7-1.5-2.1-2.4-3.3-2.4-3.3s.4-.4 1-1.1c.7-.7 1.7-1.7 3-3.1 1.3-1.4 2.9-3.1 4.7-5.2 1.8-2.1 3.9-4.5 6.2-7.2 4.5-5.5 9.8-12.4 15.4-20.8s11.5-18.2 17.1-29.3c11.3-22.3 21.6-50.1 28.3-81.6.9-3.9 1.6-7.9 2.4-11.9.7-4.1 1.4-8.3 2-12.5.6-4.1 1.2-8.4 1.7-12.5l.7-6.3.6-6.2c1.6-16.7 2.2-33.1 2.2-49.3-.1-32.4-3-63.7-8.2-93.3-5.2-29.5-12.6-57.3-21.7-82.3-4.5-12.5-9.4-24.2-14.5-35-5-10.7-10.3-20.5-15-28.7-1.2-2.1-2.4-4.1-3.5-5.9-.6-.9-1.1-1.8-1.6-2.7-.6-.9-1.1-1.8-1.6-2.6-1.1-1.7-2.1-3.2-3-4.6-.5-.7-.9-1.4-1.3-2-.4-.7-.9-1.3-1.3-1.9-3-4.7-4.8-7.3-4.8-7.3zm-755-185c0 .8-.8 3-2.1 6.6-.7 1.8-1.5 3.9-2.5 6.4-1 2.5-2.2 5.4-3.5 8.6-1.3 3.3-2.8 6.8-4.4 10.7-.8 2-1.6 4-2.5 6.1-.9 2.2-1.8 4.5-2.7 6.8-.9 2.3-1.9 4.8-2.9 7.2-1 2.6-2 5.3-3.1 8-2.1 5.3-4.3 11.5-6.6 17.7l-.9 2.4-.9 2.5-1.7 5.1c-.6 1.7-1.2 3.4-1.8 5.2l-.9 2.6-.9 2.7c-1.1 3.7-2.3 7.4-3.5 11.2-.6 1.9-1.1 3.9-1.7 5.9l-1.7 6-1.7 6.1c-.5 2.1-1 4.3-1.6 6.4-.5 2.1-1 4.3-1.6 6.5-.5 2.2-1.1 4.3-1.5 6.6-.9 4.5-1.8 9.1-2.7 13.7-.5 2.3-.8 4.7-1.2 7-.4 2.4-.8 4.7-1.1 7.1-.4 2.4-.8 4.8-1.1 7.2-.3 2.4-.6 4.8-.9 7.3l-.9 7.3c-.1 1.2-.3 2.4-.4 3.7l-.3 3.7-1.1 14.8c-.2 4.9-.4 9.9-.5 14.9l-.1 3.7c0 1.3-.1 2.5 0 3.7v7.4c0 2.5 0 4.9.1 7.4v3.7l.1 3.2.5 13c.2 4.3.5 8.7.8 13l.4 6.5.6 6.5c.4 4.3.8 8.6 1.2 13l1.5 12.9.8 6.4.9 6.4 1.9 12.8c.7 4.3 1.5 8.5 2.2 12.7.4 2.1.8 4.2 1.1 6.3l1.3 6.3c.9 4.2 1.7 8.3 2.6 12.4 7.3 33 17.3 64.4 28.7 91.8 1.4 3.4 2.9 6.8 4.2 10.1l2.2 4.9 2.3 4.8c3 6.3 5.7 12.2 8.9 17.9 1.5 2.8 3 5.6 4.4 8.2l2.1 3.9c.7 1.3 1.3 2.5 2.1 3.7 3 4.9 5.7 9.4 8.3 13.5 1.3 2 2.5 3.9 3.6 5.7 1.3 1.8 2.4 3.5 3.5 5.1 2.2 3.1 4.1 5.8 5.6 8 3.1 4.3 4.7 6.6 4.7 6.6s-1.7.1-4.6.2c-2.9.1-7.1.2-12.2.3-5.1 0-11 0-17.5-.2-3.2-.1-6.6-.2-10-.4-3.3-.1-6.7-.3-10.1-.5-6.8-.4-13.7-1-20.2-1.7-6.5-.6-12.7-1.4-17.7-2-5.1-.6-9.4-1.2-12.4-1.7l-4.7-.7s-1.1-2.8-3.2-8c-.5-1.3-1.1-2.8-1.7-4.4-.6-1.6-1.2-3.3-1.8-5.1-1.3-3.7-2.8-7.9-4.4-12.7-.8-2.4-1.6-4.9-2.5-7.5-.8-2.6-1.6-5.2-2.4-8-1.6-5.6-3.3-11.6-5.1-18-1.5-6.3-3.1-12.9-4.7-19.9-.4-1.7-.8-3.5-1.2-5.3l-1-5.3c-.7-3.6-1.3-7.3-2-11-5.3-29.9-8.5-63.1-9.1-97.2-.6-34.1 1.6-69.1 5.9-103.8l.9-7.4.9-7.5 1-7.5 1.2-7.6c.8-5.1 1.7-10.1 2.6-15.1 1-5 2.1-10.1 3.1-15 1-5 2.3-9.9 3.5-14.8l1.9-7.3c.3-1.2.6-2.4 1-3.6l1.1-3.6c1.4-4.8 2.8-9.5 4.3-14.1s3.1-9.1 4.6-13.5l2.4-6.6 2.5-6.4 2.5-6.3c.8-2.1 1.6-4.2 2.5-6.1 1.7-3.9 3.5-7.8 5.1-11.7l1.3-2.9 1.3-2.7 2.6-5.4 2.6-5.3 1.3-2.6 1.3-2.4 5.1-9.6c1.7-3.2 3.3-6 4.9-8.8 1.6-2.8 3.2-5.6 4.8-8.3 1.6-2.6 3.1-5.1 4.6-7.5l2.2-3.6 1.1-1.8 1.1-1.7c1.4-2.2 2.8-4.3 4.1-6.4.7-1 1.3-2 2-3.1.3-.5.6-1 1-1.5l.9-1.4c2.5-3.7 4.8-7.1 6.9-10.2 2.1-3 4-5.8 5.8-8.2.9-1.2 1.7-2.4 2.5-3.5s1.5-2 2.1-3c1.3-1.8 2.4-3.4 3.3-4.7 2.1-2.5 3.1-3.9 3.1-3.9zm89 38.1c0 .7-.7 3-2.1 6.6-.7 1.8-1.5 3.9-2.5 6.3-1 2.5-2.1 5.2-3.3 8.3-5 12.3-12.2 29.4-20.1 51.2-3.9 10.9-8 22.9-11.5 36.2-.5 1.6-.9 3.3-1.4 5-.4 1.7-.8 3.4-1.3 5.1-.8 3.4-1.7 6.9-2.5 10.4l-2.2 10.8c-.7 3.6-1.2 7.4-1.9 11.1l-.9 5.6-.7 5.7-.7 5.7-.3 2.9-.2 2.9-.9 11.7c-.2 3.9-.3 7.8-.5 11.8-.2 4-.1 7.9-.1 11.8v8.9l.1 2.8.4 11.2c.2 3.8.4 7.5.7 11.2l.4 5.6c.1 1.9.3 3.7.5 5.6l1 11.2 1.3 11.1c.2 1.9.4 3.7.6 5.5l.8 5.5 1.6 11c.6 3.6 1.3 7.3 1.9 10.8l.9 5.4c.3 1.8.7 3.6 1.1 5.3.7 3.5 1.5 7.1 2.2 10.5 6.1 27.9 14.4 53.8 23.4 75.8l3.4 8.1c1.1 2.6 2.4 5.2 3.5 7.7 2.4 5 4.5 9.7 6.9 14.1 2.4 4.4 4.5 8.5 6.7 12.2 2.3 3.7 4.4 7.2 6.3 10.2 1 1.5 1.9 3 2.7 4.4.9 1.3 1.8 2.6 2.6 3.8 1.6 2.3 3 4.3 4.2 6 2.3 3.2 3.5 5 3.5 5s-1.5.3-4.2.7c-2.7.4-6.5 1-11.1 1.7-4.6.6-10.1 1.3-16.1 1.8-3 .3-6.1.5-9.2.8-3.1.2-6.2.4-9.4.6-6.3.3-12.7.5-18.8.5-6 0-11.8 0-16.6-.2-4.8-.1-8.8-.3-11.7-.4-2.8-.1-4.5-.2-4.5-.2s-.9-2.3-2.5-6.6c-.4-1.1-.8-2.3-1.3-3.6-.5-1.3-.9-2.7-1.4-4.3-1-3.1-2.1-6.6-3.3-10.5-.6-2-1.2-4-1.9-6.2-.6-2.2-1.2-4.4-1.8-6.7-1.2-4.7-2.5-9.7-3.8-15.1-1.1-5.3-2.3-10.9-3.5-16.8l-.9-4.5-.7-4.5c-.5-3.1-1-6.2-1.5-9.4-3.8-25.4-5.9-54.2-5.7-83.9.2-29.7 2.8-60.5 7.3-90.7l1.9-12.3 1-6.1 1.2-6.2c.8-4.1 1.6-8.2 2.5-12.2 1-4 2-8.1 2.9-12.1 4.2-15.9 9-31.3 14.7-45.4l2.1-5.3 2.2-5.1c1.5-3.4 2.9-6.8 4.4-10l4.6-9.5c1.5-3.1 3.1-6 4.6-9 .8-1.5 1.5-2.9 2.3-4.3.4-.7.8-1.4 1.1-2.1l1.2-2.1c1.5-2.7 3.1-5.4 4.6-8 1.5-2.7 3-5.1 4.5-7.5 1.5-2.4 2.9-4.8 4.4-7.1 2.9-4.5 5.6-8.9 8.3-12.8 2.7-3.9 5.2-7.7 7.5-11.2 2.4-3.4 4.6-6.6 6.6-9.6 2-2.9 3.9-5.5 5.6-7.9 6.9-9.4 10.8-14.7 10.8-14.7zm89 38c0 .7-.7 3-2.1 6.5-.7 1.8-1.5 3.9-2.4 6.3-.9 2.4-2 5-3.2 8-4.7 11.8-11.4 27.7-18 45.8-3.2 9.1-6.5 18.7-9.2 28.8-2.8 10.1-5.3 20.6-6.9 31.5l-.7 4.1c-.2 1.4-.3 2.8-.5 4.1l-.5 4.2-.3 2.1-.2 2.1-.7 8.5c-.1 2.9-.2 5.8-.4 8.7-.2 2.9-.1 5.9-.1 8.8v6.6l.1 2.4.3 9.5.5 9.5.3 4.7c.1 1.6.3 3.2.4 4.7l.8 9.4 1.1 9.3.5 4.7c.2 1.5.4 3.1.7 4.6l1.3 9.2 1.5 9 .8 4.5.9 4.4 1.8 8.7c4.9 22.8 11.4 43.2 18.1 59.7.8 2.1 1.7 4.1 2.5 6.1s1.7 3.8 2.6 5.6c1.7 3.6 3.2 7.2 4.9 10.2 1.7 3.1 3.2 6.1 4.6 8.7 1.5 2.6 3 4.9 4.3 7 .6 1.1 1.2 2.1 1.8 3 .6.9 1.2 1.7 1.7 2.5 1.1 1.6 2 2.9 2.7 4 1.5 2.2 2.3 3.3 2.3 3.3s-1.4.4-3.8 1.2c-2.4.8-5.9 1.9-10.1 3.1-4.2 1.2-9.2 2.5-14.6 3.8-2.7.6-5.6 1.3-8.4 1.9-2.8.6-5.7 1.1-8.7 1.7-5.8 1-11.8 2-17.4 2.7-5.6.7-11 1.3-15.5 1.7-4.5.4-8.3.7-11 .8-2.7.2-4.2.2-4.2.2s-.6-1.8-1.7-5.2c-.3-.8-.6-1.8-.9-2.8-.3-1-.6-2.2-.9-3.4-.7-2.4-1.4-5.3-2.3-8.4-.4-1.6-.9-3.2-1.3-4.9-.4-1.7-.8-3.6-1.2-5.4-.8-3.8-1.7-7.8-2.6-12.2-.7-4.3-1.5-8.9-2.3-13.8-.2-1.2-.4-2.4-.6-3.7-.2-1.2-.3-2.5-.5-3.8-.3-2.5-.6-5.1-.9-7.7-2.4-21-3.3-45.2-2.3-70.5 1-25.3 4-51.9 8.7-77.7.6-3.2 1.3-6.4 2-9.6l1-4.8c.4-1.6.8-3.2 1.2-4.7l2.4-9.3c.9-3 1.8-6.1 2.8-9.1 3.9-12 8.1-23.4 13.1-34l1.8-3.9 1.9-3.9c1.3-2.6 2.5-5.1 3.8-7.5 2.7-4.9 5.2-9.7 8-14.3 5.3-9.2 10.9-17.6 16-25.4 10.5-15.5 19.9-28.4 26.6-37.6 6.8-9 10.6-14.3 10.6-14.3zm89 38.1c0 .7-.7 3-2 6.5-.7 1.8-1.5 3.8-2.4 6.2-.9 2.3-1.9 4.8-3.1 7.7-4.5 11.2-10.7 25.9-15.9 40.5l-.5 1.4-.5 1.3-.9 2.7-.9 2.7-.5 1.4-.4 1.3-1.7 5.3c-.3.9-.5 1.8-.8 2.6l-.7 2.6c-.3.9-.5 1.8-.8 2.6-.2.8-.4 1.7-.6 2.6l-.6 2.6c-.2.9-.5 1.7-.6 2.6-.3 1.7-.7 3.4-1.1 5.1-.2.9-.3 1.7-.5 2.5-.1.8-.3 1.7-.4 2.6-.1.9-.3 1.7-.5 2.6l-.3 2.6c-.1.9-.2 1.7-.4 2.6l-.2 1.3-.1 1.3c-.1 1.8-.3 3.6-.5 5.4l-.3 5.6-.1 1.4c0 .5-.1.9 0 1.4v7.5l.1 1.9c.1 2.6.2 5.1.2 7.7l.4 7.7.2 3.9c.1 1.3.2 2.6.3 3.8l.6 7.7c.3 2.5.6 5.1.8 7.6l.4 3.8.5 3.7 1 7.4c.4 2.4.8 4.8 1.2 7.1.2 1.2.4 2.4.6 3.5.2 1.2.5 2.3.7 3.4l1.3 6.8c3.7 17.7 8.4 32.6 12.8 43.7l1.6 4.1c.2.7.5 1.2.8 1.8.3.6.5 1.2.8 1.7 1.1 2.3 1.9 4.6 3 6.3 1 1.8 1.8 3.6 2.6 5.1.9 1.4 1.6 2.7 2.2 3.8l.9 1.7.9 1.2c.5.8.9 1.4 1.3 2 .7 1.1 1 1.7 1 1.7s-1.2.6-3.4 1.8c-2.1 1.1-5.2 2.7-9 4.5-3.8 1.8-8.3 3.8-13.2 5.9-2.4 1-5 2.1-7.6 3l-7.9 2.8c-5.4 1.8-10.8 3.4-16 4.9-5.2 1.4-10.2 2.7-14.3 3.6-4.2.9-7.7 1.6-10.2 2.1-2.5.5-3.9.7-3.9.7s-.3-1.3-.9-3.8c-.2-.6-.3-1.3-.5-2-.2-.8-.3-1.6-.5-2.5-.3-1.8-.8-3.9-1.2-6.3-.2-1.2-.5-2.4-.7-3.7-.2-1.3-.4-2.7-.6-4.1-.4-2.9-.9-5.9-1.3-9.2-.3-3.4-.7-6.9-1.1-10.7l-.3-2.8-.2-3c-.1-2-.2-4-.4-6.1-.9-16.6-.8-36.3 1-57.2 1.8-20.9 5.3-43.2 10.1-64.6.1-.7.3-1.2.5-1.8l.5-1.7 1-3.4 1-3.4 1.2-3.3 2.3-6.4c.9-2.1 1.7-4.1 2.6-6.1 3.6-8 7.3-15.4 11.5-22.5l1.5-2.6 1.7-2.6 3.2-5.1 3.4-5.1.8-1.2.9-1.3 1.8-2.5 1.7-2.5.8-1.2.9-1.3c1.2-1.7 2.4-3.3 3.5-4.9 2.4-3.4 4.8-6.6 7.1-9.7 10.4-14 19-25.6 25-33.8 6.5-9.3 10.3-14.5 10.3-14.5zm89 38.1c0 .7-.7 2.9-2 6.4-.6 1.7-1.5 3.8-2.4 6.1-.9 2.2-1.9 4.7-2.9 7.4-4.3 10.7-9.9 24.2-13.9 35.1l-.4 1.1-.3 1-.6 1.9-.7 1.9-.4 1-.3.8c-.3 1.1-.7 2.2-1.1 3.4-.2.6-.3 1-.5 1.5l-.4 1.5-.5 1.5c-.1.4-.2.8-.3 1.3-.1.4-.2.8-.3 1.3-.1.4-.3.9-.3 1.2-.1.7-.3 1.5-.5 2.2l-.2 1.1-.2 1c-.1.3-.2.7-.2 1l-.1 1-.2 1-.1.5v.6l-.3 2.2c0 .8-.1 1.7-.2 2.5l-.1.6v2.2c0 .5 0 1-.1 1.5l-.1.8.1 1.5.1 5.9.3 6 .1 3c.1 1 .2 2 .2 3l.4 5.9.6 5.8.3 2.9.4 2.8c.2 1.9.5 3.7.7 5.5l.9 5.3.4 2.6c.1.9.3 1.7.5 2.5l.9 4.9c2.5 12.6 5.5 22 7.5 27.6.3.7.5 1.4.7 2.1.1.4.2.6.3.8l.3.7c.4.9.7 2.1 1 2.5.1.3.2.6.3.8l.1.4c0 .1.1.3.1.3.1.2.2.4.2.6v.3-.1h-.1l-.5.3c-.3.2-.6.4-1 .7l-1.8 1.3c-1.1.8-2.2 1.6-3.1 2.3-1.8 1.4-3.2 2.5-4.2 3.2-.9.8-1.4 1.2-1.4 1.2s.7-.5 1.8-1.5c.6-.5 1.3-1 2.1-1.6l.3-.2.2-.1h-.1l-.1.1-1.1.8c-.8.5-1.6 1.1-2.4 1.7-3.4 2.4-7.3 5.1-11.7 7.9-2.2 1.4-4.5 2.8-6.8 4.2-2.4 1.3-4.8 2.6-7.2 3.8-4.9 2.5-9.9 4.9-14.6 7.1-4.8 2.1-9.3 4.1-13.2 5.5-3.9 1.4-7.2 2.6-9.5 3.4-2.3.8-3.7 1.2-3.7 1.2s-.1-.8-.2-2.4c0-.4-.1-.8-.1-1.3s0-1.1-.1-1.7c0-1.2-.1-2.6-.1-4.2l-.1-2.4v-2.8c0-2-.1-4.1-.1-6.3 0-2.4.1-4.9.1-7.6v-2c0-.7.1-1.4.1-2.2.1-1.5.1-2.9.2-4.5.5-12.2 1.8-27.3 4.4-43.9 2.5-16.5 6.5-34.6 11.5-51.6l.1-.4.1-.3.3-.5.5-1 1-2 1-2 1.2-1.8c.7-1.2 1.5-2.4 2.2-3.5l2.4-3.2c.7-1 1.6-2 2.4-2.9l1.2-1.4.6-.7.7-.7c.9-.9 1.7-1.8 2.5-2.6.9-.9 1.7-1.8 2.6-2.6 1.8-1.8 3.6-3.6 5.3-5.4l2.8-2.9 2.9-3.1c.5-.5 1-1 1.4-1.5l1.5-1.6c1-1.2 2-2.3 3-3.4.5-.6 1-1.2 1.5-1.7.5-.6 1.1-1.2 1.6-1.9l3.1-3.6c1.1-1.3 2.2-2.6 3.2-3.9l1.5-1.9 1.6-2c1.1-1.4 2.1-2.7 3.1-4l1.5-1.9.7-.9.8-1c2.1-2.7 4-5.2 5.8-7.5l5.2-6.9c.8-1 1.5-2 2.2-3 .7-1 1.4-1.9 2.1-2.8 1.3-1.8 2.4-3.3 3.3-4.5 1.8-2.3 2.8-3.6 2.8-3.6zm1661.4-90.2l-.3-.3-.1-.2c0-.1-.1-.1 0-.3v-.6l.1-.3c.1-.2.1-.4.2-.7l.4-.9c.6-1.3 1.6-3.1 3.1-5.4 1.5-2.3 3.5-5.2 6.1-8.4 5.1-6.4 12.4-14.3 21-21.7 8.5-7.5 18.2-14.3 26.7-19.1 2.1-1.2 4.2-2.2 6.1-3.2 1.9-.9 3.7-1.7 5.4-2.3 1.8-.7 3.6-1.4 5.5-1.9l2.7-.8c.9-.2 1.8-.5 2.7-.6 7.3-1.6 14.3-1.7 20.1-.6 5.8 1 10.4 3.2 13.3 5 .7.4 1.4.8 1.9 1.2.6.4 1 .7 1.4 1 .7.6 1.1.8 1.1.8s-1.3 4.6-2.9 11.6c-1.6 7.1-3.5 16.7-4.9 26.6-1.4 9.9-2.4 20.1-2.8 27.9-.5 7.7-.6 13-.6 13v-1c0-.7 0-1.6-.2-2.9-.2-2.5-.8-6.1-2.5-10.3-1.7-4.1-4.4-8.8-8.6-12.9-.5-.5-1-1-1.6-1.5-.5-.5-.9-1.1-1.5-1.6s-1.1-1-1.8-1.4l-1.1-.7-1.2-.6c-3.2-1.5-7.3-2.4-11.8-2.8-9.1-.7-19.9.7-30 3.1-10.1 2.4-19.4 5.5-26.6 8-3.6 1.2-6.7 2.3-9.3 3.1-2.6.8-4.6 1.3-6.1 1.5-1.5.2-2.6.2-3.3.1-.2.2-.6.1-.6.1zm-88.8-38.4c-.2-.9 1-4.8 4.5-11.4 3.4-6.6 9.2-15.9 17.6-26.5 8.3-10.6 19.2-22.3 31.8-33.5 12.6-11.3 27-21.9 41.9-30.5 3.7-2.2 7.4-4.1 11.1-6 3.7-1.8 7.4-3.6 11.1-5.1 3.7-1.5 7.4-3 11.2-4.2 1.9-.7 3.8-1.2 5.6-1.8 1.9-.5 3.7-1.1 5.6-1.5 7.4-1.9 14.7-3 21.7-3.4 7-.4 13.6 0 19.6.8 12.1 1.8 21.5 5.9 27.7 9.3.8.4 1.5.8 2.2 1.2.7.4 1.3.8 1.9 1.2 1.2.7 2.2 1.4 2.9 1.9 1.6 1.1 2.4 1.7 2.4 1.7s-1.9 4.2-4.3 10.6c-2.5 6.5-5.6 15.4-8.3 24.7-2.7 9.3-4.9 18.9-6.3 26.2-.7 3.7-1.3 6.7-1.6 8.9-.4 2.2-.6 3.4-.6 3.4s-.5-.5-1.3-1.5l-1.7-1.7-2.3-2.2c-3.6-3.2-9.1-7.5-16.6-11.1-7.5-3.6-17-6.7-28-8.1l-4.2-.5c-1.4-.1-2.7-.3-4.2-.4-1.4-.1-2.9-.2-4.4-.1h-2.3c-.8 0-1.6.1-2.3.1-6.3.2-13.2 1.1-20.3 2.5-14.2 2.8-29.1 7.8-42.9 13.8-13.8 6-26.3 13-36.4 19.5-10.2 6.5-17.9 12.5-23 16.7-2.5 2.1-4.4 3.8-5.7 4.9-1.4 1.5-2.1 2.1-2.1 2.1zm-88.9-38.4c.1-1.4 2.8-9 8.5-19.7s14.4-24.5 25.9-39.2c23-29.3 57.5-62.4 99.6-87.2 5.2-3.1 10.7-6 16.1-8.9 5.5-2.8 11.1-5.4 16.7-7.9 5.6-2.4 11.2-4.6 16.9-6.6 2.8-1 5.7-1.9 8.4-2.8 2.8-.8 5.6-1.7 8.4-2.4 5.6-1.5 11.2-2.7 16.6-3.7 5.5-.9 10.9-1.7 16.2-2.1 10.5-.9 20.6-.7 29.7.2 9.2.9 17.4 2.6 24.5 4.6 7.2 2 13.1 4.4 18 6.5 1.2.5 2.3 1.1 3.4 1.5 1.1.5 2 1 3 1.5 1.8.9 3.4 1.7 4.6 2.4 2.5 1.4 3.8 2.1 3.8 2.1s-2.6 4.7-6.2 11.7c-1.8 3.5-3.8 7.7-5.9 12.1-1 2.2-2.1 4.5-3.1 6.9l-1.5 3.6-.8 1.8-.7 1.6c-1.9 4.3-3.8 8.7-5.5 12.9-1.7 4.2-3.2 8.2-4.4 11.7-1.2 3.5-2.2 6.4-2.8 8.5-.6 2.1-1 3.3-1 3.3s-.2-.2-.7-.5c-.4-.3-1.1-.8-2-1.4-.9-.6-2-1.3-3.3-2.2-1.3-.8-2.8-1.7-4.6-2.7-6.9-3.9-17.4-8.8-30.8-11.9-13.4-3.2-29.7-4.6-47.4-3.2-17.7 1.3-37.1 5.4-56.4 11.8-19.3 6.4-38.4 14.9-55.8 24.6-17.4 9.6-33.2 20.4-46.3 30.9-13.1 10.5-23.5 20.9-30.6 28.9-3.5 4-6.2 7.4-8.1 9.8-1.4 2.2-2.4 3.5-2.4 3.5zm-88.8-38.4c.1-.5.4-1.6 1-3.1.3-.8.6-1.7 1-2.7.4-1 .9-2.2 1.4-3.4.5-1.2 1.1-2.5 1.8-4l1-2.2c.4-.7.7-1.5 1.1-2.3l2.5-5c.9-1.7 1.8-3.5 2.8-5.4 4-7.4 8.9-15.7 14.6-24.5 5.7-8.8 12.3-18 19.7-27.4 7.4-9.4 15.5-19 24.4-28.5 8.9-9.6 18.6-19.2 29.1-28.6 20.9-18.8 44.8-37.1 72.1-53.3 6.8-4.1 13.9-7.9 21.1-11.7 7.3-3.7 14.7-7.3 22.4-10.7 7.6-3.3 15-6.3 22.6-8.9 3.8-1.4 7.5-2.6 11.3-3.8 3.8-1.1 7.5-2.3 11.3-3.3 7.5-2.1 14.9-3.8 22.2-5.3 7.3-1.4 14.5-2.5 21.6-3.4 14.1-1.7 27.5-2 39.8-1.6 12.3.5 23.5 1.8 33.2 3.6 9.7 1.7 18 4 24.7 5.9 1.7.5 3.3 1 4.7 1.4 1.5.5 2.8 1 4.1 1.4 2.6.9 4.7 1.6 6.4 2.3 3.5 1.3 5.3 2 5.3 2s-3.3 4.7-8 11.8c-2.3 3.5-5 7.7-7.7 12.2-2.7 4.4-5.6 9.3-8.3 14.2-2.7 4.8-5.3 9.8-7.7 14.4-2.3 4.6-4.5 9-6.2 12.7-1.8 3.7-3.1 6.8-4.1 9-1 2.2-1.5 3.5-1.5 3.5l-1-.5c-.7-.3-1.7-.9-3-1.6-1.3-.6-3-1.4-4.9-2.4-2-.9-4.3-1.9-6.8-2.9-5.2-2-11.6-4.3-19.1-6.3-7.5-2-16.2-3.7-25.8-4.8-19.2-2.3-42.1-1.9-66.7 2.2-3.1.5-6.2 1.1-9.3 1.7-3.1.6-6.3 1.4-9.5 2.1-3.1.8-6.4 1.5-9.5 2.4l-4.8 1.3-4.7 1.4c-12.7 3.7-25.1 8.1-37.3 13.1-24.4 9.9-47.6 22-68.6 35.3-21.1 13.3-40.1 27.8-56.1 42.3-8 7.3-15.3 14.5-21.7 21.5-6.4 7-12 13.7-16.5 19.5-4.5 5.9-8.1 11-10.4 14.6-2.8 3.9-4 5.8-4 5.8zm-88.9-38.4c.1-.7.6-2 1.4-4.1.4-1 .9-2.2 1.4-3.6.6-1.4 1.2-2.9 1.9-4.4.7-1.6 1.5-3.3 2.3-5.2.4-.9.9-1.9 1.3-2.9.5-1 .9-1.9 1.4-3l3.2-6.4c1.1-2.2 2.4-4.5 3.6-6.9 5.1-9.4 11.3-20 18.4-30.9 7.1-10.9 15.2-22.2 24.2-33.7 9-11.5 18.8-23 29.5-34.6 10.7-11.5 22.3-23 34.8-34.4 25-22.6 53.7-44.7 87.2-64.7 8.3-5 17.1-9.9 26.1-14.5 9.1-4.7 18.4-9.2 28.1-13.4 2.4-1.1 4.7-2 7.1-3 2.4-1 4.7-2 7.1-2.9 4.7-1.9 9.4-3.7 14.2-5.4 4.7-1.7 9.4-3.3 14.1-4.8 4.7-1.5 9.4-2.9 14.1-4.2 37.4-10.7 73.8-14.8 104.7-14.8 15.4 0 29.5 1 41.8 2.6 12.3 1.4 22.8 3.5 31.4 5.3 2.1.5 4.2.9 6.1 1.3 1.9.4 3.6.9 5.3 1.3 3.3.8 6.1 1.6 8.3 2.2 4.5 1.3 6.8 2 6.8 2s-4.1 4.8-9.8 11.9c-2.8 3.5-6.2 7.8-9.6 12.3-3.4 4.5-7 9.4-10.4 14.3-3.4 4.9-6.8 9.9-9.8 14.5-3 4.6-5.8 9.1-8.1 12.8-2.3 3.8-4.1 6.9-5.4 9.2-1.3 2.2-2 3.5-2 3.5s-.5-.2-1.4-.5c-.9-.3-2.3-.9-4.1-1.5-1.8-.6-4-1.3-6.7-2.2-2.6-.8-5.7-1.7-9.1-2.6-6.9-1.8-15.4-3.8-25.3-5.4-9.9-1.6-21.3-2.9-33.8-3.4-25-1.1-54.6 1.1-86 8-3.9.8-7.9 1.8-11.8 2.8-4 1-8.1 2.2-12.2 3.3-4 1.2-8.1 2.4-12.1 3.7l-6 1.9-5.9 2c-15.8 5.5-31 11.6-45.8 18.4-29.5 13.5-56.8 29.1-81.5 46.1-24.8 16.9-47 35.2-66 53.8-9.5 9.3-18.2 18.6-25.9 27.6-7.7 9-14.4 17.8-19.9 25.5-1.4 2-2.7 3.9-3.9 5.7-.6.9-1.2 1.8-1.8 2.6l-1.7 2.6c-1.1 1.7-2.1 3.2-3 4.6-.5.7-.9 1.4-1.3 2-.4.7-.8 1.3-1.2 1.9-2.7 5.1-4.3 7.7-4.3 7.7zm143.8 764c.7-.3 3.1-.6 6.9-.8 1.9-.1 4.2-.3 6.8-.4 2.7-.1 5.8-.3 9.3-.4 3.5-.1 7.4-.3 11.5-.5 2.1-.1 4.3-.2 6.6-.2 2.4-.1 4.8-.2 7.3-.3 2.5-.1 5.1-.2 7.8-.4 2.8-.2 5.6-.3 8.6-.5 5.7-.3 12.2-.8 18.9-1.3l2.5-.2c.9-.1 1.7-.2 2.6-.2l5.3-.5c1.8-.2 3.6-.4 5.4-.5l2.7-.3c.9-.1 1.9-.2 2.9-.3 3.8-.5 7.7-1 11.7-1.5 1.9-.2 4-.6 6.1-.9 2.1-.3 4.1-.6 6.2-1l6.3-1c2.1-.4 4.3-.8 6.5-1.2 2.2-.4 4.4-.8 6.5-1.3 2.2-.4 4.4-.8 6.6-1.4 4.5-1 9-2.1 13.6-3.1 2.3-.5 4.6-1.2 6.9-1.8l6.9-1.9 7-2c2.3-.7 4.6-1.5 7-2.2l7-2.2c1.2-.4 2.3-.8 3.5-1.1l3.5-1.3c4.6-1.7 9.3-3.4 14-5.1 4.6-1.8 9.2-3.7 13.7-5.6l3.4-1.4c1.2-.5 2.3-1 3.4-1.5l6.7-3.1 6.7-3.1 3.3-1.6 2.9-1.5c3.9-2 7.8-3.9 11.6-5.9 3.9-2 7.7-4.1 11.5-6.1l5.7-3.1c1.9-1 3.8-2.1 5.7-3.2 3.8-2.2 7.5-4.3 11.3-6.4l11.1-6.7c1.8-1.1 3.7-2.2 5.5-3.4 1.8-1.2 3.6-2.3 5.5-3.5l10.8-7c3.6-2.4 7.1-4.9 10.6-7.3l5.3-3.6c1.7-1.2 3.5-2.5 5.2-3.8 3.4-2.5 6.9-5 10.2-7.5 27-20.3 51.5-42.4 71.7-64.1 2.5-2.7 5-5.4 7.4-8 1.2-1.3 2.4-2.7 3.5-4.1 1.2-1.4 2.3-2.7 3.4-4 4.5-5.4 8.8-10.3 12.6-15.5 1.9-2.6 3.8-5 5.6-7.4.9-1.2 1.8-2.4 2.6-3.5.9-1.2 1.7-2.3 2.5-3.5 3.2-4.7 6.2-9.1 8.8-13.1 1.3-2 2.6-3.9 3.7-5.7 1.1-1.9 2.2-3.7 3.2-5.3 1.9-3.3 3.6-6.1 4.9-8.4 2.6-4.6 4-7 4-7s.7 1.5 2.1 4.1c1.3 2.6 3.1 6.4 5.3 11 2.1 4.6 4.6 10 7.1 16 1.2 3 2.5 6.1 3.8 9.2 1.2 3.1 2.5 6.2 3.7 9.4 2.4 6.4 4.8 12.9 6.8 19.1 2.1 6.2 3.9 12.1 5.5 17 1.5 4.9 2.8 9.1 3.6 12 .8 2.9 1.3 4.6 1.3 4.6s-2.1 2.2-5.9 6.2c-1 1-2.1 2.1-3.3 3.4-1.2 1.2-2.5 2.4-3.9 3.8-2.8 2.7-6.1 5.8-9.7 9.2-1.8 1.7-3.8 3.5-5.8 5.4-2 1.8-4.1 3.6-6.3 5.5-4.4 3.8-9.2 7.8-14.3 12.1-5.1 4-10.5 8.2-16.2 12.5l-4.3 3.3-4.4 3.1c-3 2.1-6.1 4.2-9.2 6.4-25 17.2-54 33.9-84.8 48.5-30.8 14.6-63.6 27.1-96.9 37.5l-7.1 2.3-7.3 2.3-7.2 2.2c-2.5.7-5 1.4-7.4 2-5 1.3-9.9 2.7-14.8 3.9-5 1.2-10 2.3-15 3.4-4.9 1.1-10 2-14.9 2.9-2.5.4-5 .9-7.4 1.3l-3.7.6-3.7.5c-4.9.7-9.8 1.3-14.6 1.9-4.8.5-9.5 1-14.2 1.4l-7 .6c-2.3.1-4.6.2-6.8.4-2.3.1-4.5.2-6.7.3-2.2.1-4.5.2-6.6.2-4.3 0-8.5.1-12.7.1h-3.1c-1 0-2 0-3-.1l-6-.2-5.9-.2-2.9-.1c-.9-.1-1.8-.1-2.8-.2-3.7-.2-7.3-.5-10.8-.7-3.6-.2-6.8-.6-10.1-.9-3.2-.3-6.4-.6-9.5-.9-3-.4-5.9-.7-8.7-1.1-1.4-.2-2.8-.4-4.2-.5l-2.1-.3c-.7-.1-1.3-.2-1.9-.3-2.6-.4-5.1-.8-7.5-1.1-1.2-.2-2.4-.4-3.6-.5l-1.8-.3c-.6-.1-1.1-.2-1.6-.3-4.4-.7-8.4-1.4-12.2-2.1-3.6-.7-6.9-1.3-9.9-1.8-1.5-.3-2.9-.5-4.2-.8-1.3-.3-2.5-.5-3.6-.7-2.2-.4-4.1-.8-5.6-1.1-2.9-.4-4.5-.7-4.5-.7zm-2.2-96.8c.7-.3 3-.6 6.9-.8 1.9-.1 4.2-.3 6.8-.4 2.6-.1 5.6-.2 8.9-.4 13.2-.6 31.8-1 54.9-2.9 11.6-1 24.2-2.2 37.7-4.5l5.1-.8c1.7-.3 3.4-.6 5.2-1 3.5-.7 7-1.3 10.5-2.1s7.1-1.6 10.7-2.5c3.6-.9 7.2-1.9 10.9-2.9l5.5-1.5c1.8-.6 3.6-1.1 5.5-1.7 1.8-.6 3.7-1.2 5.5-1.7l2.8-.9 2.7-1 11-4c3.6-1.4 7.3-3 10.9-4.5 3.7-1.5 7.2-3.1 10.8-4.8l5.4-2.5 2.7-1.2 2.5-1.3c3.4-1.7 6.7-3.4 10.1-5 3.4-1.7 6.6-3.5 10-5.3l5-2.7c1.7-.9 3.3-1.8 4.9-2.8 3.3-1.9 6.5-3.7 9.8-5.5l9.6-5.8 4.8-2.9 4.7-3 9.3-6 9.1-6.2 4.5-3.1c1.5-1 2.9-2.1 4.4-3.2l8.7-6.3c22.9-17.1 43.1-35.3 59.3-52.7 2-2.2 4-4.3 6-6.4 1.9-2.1 3.7-4.3 5.5-6.4 3.5-4.2 7-8.1 9.9-12.1 3-4 5.9-7.6 8.4-11.1 2.5-3.6 4.7-6.9 6.7-9.9 1-1.5 2-2.9 2.9-4.3.8-1.4 1.6-2.7 2.4-4 1.5-2.5 2.7-4.6 3.7-6.3 2-3.4 3.1-5.2 3.1-5.2s.9 1.3 2.4 3.5 3.6 5.5 6.1 9.4c2.5 4 5.3 8.7 8.3 13.9 1.5 2.6 3 5.3 4.5 8.1 1.5 2.7 2.9 5.5 4.4 8.3 2.9 5.6 5.7 11.4 8.3 16.9 2.5 5.5 4.9 10.8 6.7 15.2 1.9 4.4 3.4 8.2 4.4 10.8 1 2.6 1.6 4.2 1.6 4.2l-5 5-2.7 2.7c-1 1-2.1 1.9-3.3 3-2.4 2.1-5.1 4.6-8.2 7.4-1.5 1.4-3.2 2.8-4.9 4.3-1.7 1.5-3.5 2.9-5.4 4.4-3.8 3-7.8 6.3-12.1 9.7-4.4 3.2-9 6.6-13.9 10.1l-3.7 2.7-3.8 2.5c-2.6 1.7-5.2 3.4-7.9 5.2-21.6 14-46.9 27.8-74 39.9-27.2 12.1-56.2 22.5-85.6 30.9-4 1.1-8 2.2-12 3.4l-6 1.6-6.1 1.5c-4.1.9-8.1 1.9-12.1 2.8l-12.2 2.3c-16.2 2.8-32.2 4.7-47.5 5.4l-5.7.3-5.6.1c-3.7 0-7.3.2-10.9.1-3.5-.1-7-.2-10.5-.2s-6.8-.3-10.1-.5l-4.9-.3-2.4-.1-2.4-.2c-3.1-.3-6.2-.6-9.2-.8-3-.2-5.9-.6-8.7-1-2.8-.3-5.6-.7-8.3-1-5.3-.8-10.4-1.5-15.1-2.2-4.7-.8-9.2-1.5-13.3-2.2-4.1-.7-7.9-1.4-11.4-2.1-3.5-.7-6.7-1.3-9.5-1.8l-18-3.6zm-2.1-96.8c.7-.3 3-.6 6.8-.8 1.9-.1 4.1-.3 6.7-.4 2.5-.1 5.4-.2 8.6-.4 12.7-.5 29.9-1 49.2-2.5 9.6-.8 19.8-1.8 30-3.5 10.3-1.6 20.9-3.7 31.5-6.7l4-1.1c1.3-.4 2.7-.8 4-1.3 1.3-.4 2.7-.8 4-1.3l2-.6 2-.7 8.1-2.9 8.1-3.3c2.7-1 5.4-2.3 8.1-3.5l4-1.8 2-.9 2.1-1.1 8.5-4.2 8.4-4.4 4.2-2.2c1.4-.7 2.8-1.5 4.1-2.3l8.3-4.6 8.1-4.8 4-2.4 3.9-2.5 7.8-5 7.5-5.1c1.3-.8 2.5-1.7 3.7-2.5 1.2-.8 2.4-1.7 3.6-2.6l7.2-5.2c18.7-13.9 34.6-28.2 46.9-41.2l4.5-4.8c1.5-1.6 2.7-3.2 4.1-4.7 2.6-3.1 5.2-5.9 7.2-8.7 2.1-2.8 4.2-5.4 6-7.8 1.7-2.5 3.3-4.7 4.7-6.8.7-1 1.4-2 2-2.9.6-.9 1.1-1.8 1.6-2.6l2.5-4.1c1.4-2.2 2.1-3.4 2.1-3.4s1 1.1 2.7 2.9c1.7 1.9 4.1 4.6 7 7.9 2.8 3.3 6.1 7.3 9.5 11.7 1.7 2.2 3.5 4.5 5.2 6.9 1.7 2.3 3.4 4.8 5.1 7.2 3.4 4.9 6.7 9.9 9.7 14.7 3 4.8 5.8 9.5 8 13.4 2.2 3.9 4 7.3 5.3 9.6 1.2 2.4 2 3.7 2 3.7s-1.4 1.3-4 3.7c-.7.6-1.4 1.3-2.2 2-.8.7-1.7 1.5-2.7 2.3-2 1.6-4.2 3.5-6.7 5.5-1.3 1-2.6 2.1-4 3.2s-2.9 2.2-4.5 3.3c-3.1 2.3-6.4 4.7-10 7.4-3.6 2.4-7.5 5-11.6 7.8-1 .7-2 1.4-3.1 2-1.1.6-2.1 1.3-3.2 2-2.2 1.3-4.4 2.7-6.7 4-18.2 10.9-39.8 21.7-63.3 31.3-23.5 9.6-48.9 17.8-74.3 24.2-3.2.8-6.4 1.5-9.6 2.2l-4.7 1.1-4.8.9-9.5 1.7c-3.2.4-6.3.8-9.4 1.3-12.5 1.4-24.6 2.3-36.3 2.1h-4.3l-4.3-.2c-2.9-.1-5.7-.2-8.5-.4-5.6-.4-11-.8-16.3-1.4-10.5-1.1-20.5-2.6-29.8-4.1-18.5-3.1-34.1-6.4-45.2-8.6-11.2-2.4-17.6-3.7-17.6-3.7zm-2.2-96.7c.7-.3 3-.6 6.7-.8 1.9-.1 4.1-.3 6.6-.4 2.4-.1 5.2-.2 8.3-.4 12.1-.5 28-1 43.4-2.2l1.5-.1 1.4-.1 2.8-.3c.9-.1 1.9-.2 2.9-.3l1.5-.1 1.4-.2c1.8-.2 3.7-.4 5.6-.7 1-.1 1.8-.2 2.7-.4l2.7-.4 2.7-.4 2.6-.5 2.6-.5c.9-.2 1.8-.3 2.6-.5 1.7-.4 3.4-.8 5.1-1.1.9-.2 1.7-.4 2.5-.6.8-.2 1.7-.4 2.5-.7l2.5-.6 2.5-.8c.8-.2 1.7-.5 2.5-.8l1.3-.4 1.3-.5 5.1-1.8 5.2-2.1 1.3-.5c.4-.2.9-.3 1.3-.6l2.7-1.2 2.7-1.2 1.4-.6 1.7-.9 6.9-3.4c2.3-1.1 4.6-2.4 6.9-3.6l3.4-1.8c1.1-.6 2.2-1.3 3.4-1.9l6.7-3.7c2.2-1.3 4.4-2.6 6.5-3.9l3.3-1.9c1.1-.7 2.1-1.3 3.1-2l6.3-3.9c2-1.4 4-2.7 6-4l3-2c1-.7 1.9-1.4 2.8-2 1.9-1.3 3.8-2.7 5.6-4 14.6-10.7 26.2-21.1 34.5-29.7 1-1.1 2.1-2.1 3.1-3.1.5-.5.9-1 1.3-1.5s.8-1 1.3-1.5c1.6-1.9 3.4-3.7 4.6-5.3 1.2-1.6 2.6-3.1 3.6-4.5.9-1.3 1.8-2.6 2.6-3.6.4-.5.8-1 1.1-1.5.3-.5.5-.9.8-1.3.5-.8.9-1.4 1.3-2 .7-1.1 1.1-1.6 1.1-1.6s1.1.8 3 2.3c1.9 1.5 4.6 3.7 7.8 6.4s6.9 5.9 10.8 9.6c1.9 1.8 4 3.7 5.9 5.7 1.9 2 3.9 4 5.8 6.1 3.8 4.1 7.6 8.4 11.1 12.6 3.5 4.1 6.7 8.1 9.2 11.5 2.6 3.4 4.7 6.4 6.1 8.4 1.5 2.1 2.3 3.3 2.3 3.3s-1.1.8-3.1 2.4c-.5.4-1 .8-1.7 1.3-.6.5-1.4 1-2.1 1.5-1.5 1.1-3.3 2.3-5.2 3.7-1 .7-2 1.4-3 2.2-1.1.7-2.3 1.5-3.5 2.3-2.4 1.6-5.1 3.2-7.9 5-2.9 1.7-6 3.5-9.3 5.4-.8.5-1.6 1-2.5 1.4l-2.6 1.4c-1.8.9-3.6 1.9-5.4 2.9-14.8 7.7-32.7 15.7-52.5 22.7-19.8 7.1-41.5 13.1-63 17.5-.7.2-1.2.2-1.9.3l-1.8.2-3.5.5-3.5.5-3.5.3-6.8.6-6.6.2c-8.8.1-17-.2-25.2-1.2l-3-.3-3.1-.4-6-.8-6-1-1.5-.2-1.5-.3-3-.6c-1-.2-2-.4-3-.5l-1.5-.3-1.5-.3-6-1.2c-4.1-.8-8-1.6-11.8-2.4-17-3.6-31.2-6.7-41.1-8.8-10.9-2.2-17.2-3.5-17.2-3.5zm-2.1-96.8c.7-.3 3-.6 6.7-.8 1.8-.1 4.1-.3 6.6-.4 2.4-.1 5-.2 7.9-.4 11.5-.5 26.1-1 37.7-1.9.4 0 .8 0 1.1-.1l1-.1 2-.2 2-.2 1-.1.9-.1 3.5-.4c.6 0 1.1-.1 1.6-.2l1.5-.2 1.5-.2c.4-.1.9-.2 1.3-.2l1.3-.2 1.3-.2c.7-.2 1.5-.3 2.3-.4l1.1-.2c.3-.1.7-.2 1-.2l1-.2 1-.3 1-.3.5-.1.5-.2c.7-.3 1.4-.5 2.2-.6l2.4-.9.6-.2.3-.1.3-.2c.4-.2.9-.4 1.4-.6l1.4-.6.7-.3 1.3-.7c1.8-.9 3.6-1.7 5.3-2.6l5.3-2.7 2.7-1.4c.9-.5 1.7-1 2.6-1.4l5.2-2.8c1.7-1 3.3-2 5-2.9l2.5-1.4 2.4-1.5c1.6-1 3.2-2 4.8-2.9 1.5-1 3-2 4.4-3 .7-.5 1.5-1 2.2-1.4l2.1-1.5c1.4-1 2.7-1.9 4.1-2.8 10.5-7.5 17.7-14.1 22-18.2l1.6-1.5c.3-.2.4-.4.6-.6.2-.2.4-.4.5-.6.7-.7 1.6-1.5 1.9-1.9l.6-.7.3-.3c.1-.1.3-.2.3-.2.1-.2.3-.4.5-.5.1-.1.2-.1.3-.1l-.1.1h.1l.5.3 1 .6c.7.4 1.3.8 1.9 1.1 1.2.7 2.3 1.3 3.3 1.9 2 1.1 3.6 1.9 4.7 2.5 1.1.5 1.6.8 1.6.8s-.8-.4-2.1-1c-.7-.3-1.4-.7-2.3-1.2l-.3-.2-.2-.1h.1l.1.1c.4.2.8.4 1.2.7.8.5 1.7 1 2.6 1.5 3.6 2.1 7.7 4.6 12 7.4 2.2 1.4 4.4 2.9 6.6 4.5 2.2 1.6 4.3 3.3 6.5 5 4.3 3.4 8.6 6.9 12.5 10.4 3.9 3.4 7.6 6.8 10.5 9.7 2.9 3 5.3 5.5 7 7.3 1.7 1.8 2.6 2.8 2.6 2.8s-.7.4-2.1 1.1c-.3.2-.7.4-1.1.6-.4.2-1 .5-1.5.7-1.1.5-2.3 1.2-3.7 1.8-.7.3-1.4.7-2.1 1.1-.8.4-1.7.8-2.6 1.2-1.8.8-3.7 1.7-5.7 2.7-2.2 1-4.5 2-7 3l-1.8.8-2 .8c-1.3.5-2.7 1.1-4.1 1.7-11.3 4.6-25.6 9.6-41.7 14.2-16.1 4.5-34.2 8.4-51.7 10.8l-.4.1h-.9l-1.2-.1-2.3-.1-2.2-.1-2.1-.3c-1.4-.2-2.8-.4-4.1-.6l-3.9-.9c-1.2-.2-2.5-.6-3.7-1l-1.8-.5c-.3-.1-.6-.2-.9-.2l-.9-.3c-1.2-.4-2.3-.8-3.4-1.2l-3.5-1.3c-2.4-.9-4.8-1.7-7.1-2.6-1.3-.5-2.5-.9-3.8-1.3l-4-1.4c-.7-.2-1.3-.4-2-.7-.7-.2-1.4-.4-2.1-.7-1.5-.5-2.9-.9-4.3-1.3-.7-.2-1.5-.4-2.2-.7-.8-.2-1.6-.5-2.3-.7-1.6-.4-3.1-.9-4.6-1.3-1.7-.4-3.3-.9-4.9-1.3l-2.4-.6-2.4-.6c-1.7-.4-3.3-.8-4.9-1.2-.8-.2-1.6-.4-2.3-.6-.4-.1-.8-.2-1.1-.3l-1.2-.3c-3.3-.8-6.4-1.5-9.2-2.2-3.1-.7-5.9-1.3-8.5-1.9-1.3-.3-2.5-.6-3.6-.8-1.2-.3-2.4-.5-3.4-.7-2.1-.4-4-.8-5.4-1.1-3.2-.7-4.8-1-4.8-1zm-449.5-162.9c.1 0 .2.1.3.2.1 0 .1.1.1.1.1 0 .1.1.1.2s0 .2.1.4v1.2l-.1.9c-.2 1.4-.5 3.4-1.2 6.1-.7 2.7-1.7 6-3.1 9.9-2.8 7.7-7.2 17.5-12.9 27.3-5.6 9.8-12.6 19.4-19.2 26.6-1.6 1.8-3.3 3.4-4.8 5-1.5 1.4-3 2.8-4.4 3.9-1.5 1.2-3 2.5-4.6 3.5-.8.6-1.6 1.1-2.3 1.6l-2.4 1.5c-6.4 3.8-13 6.2-18.8 7-5.9.9-10.8.3-14.2-.4-.8-.2-1.6-.4-2.2-.5-.6-.2-1.2-.3-1.6-.5-.9-.3-1.3-.4-1.3-.4s-.3-4.7-1-11.9-2-16.9-3.9-26.8c-1.8-9.8-4.2-19.8-6.2-27.3l-3.6-12.5.3.9c.2.6.6 1.5 1.1 2.7 1 2.3 2.7 5.5 5.7 8.9 2.9 3.4 7 6.9 12.3 9.5l2 .9 1.9 1c.7.3 1.4.6 2.2.8l1.2.3 1.3.2c3.5.4 7.6-.1 12.1-1.2 8.9-2.2 18.6-7.1 27.4-12.5 8.8-5.5 16.6-11.5 22.6-16.1 3-2.3 5.6-4.3 7.8-5.9 2.2-1.6 3.9-2.6 5.3-3.4 1.4-.7 2.4-1 3.1-1.1.5-.1.9-.1.9-.1zm96.4 7.9c.4.8.6 4.8-.6 12.2-1.1 7.4-3.6 18-8.2 30.7-4.5 12.7-11 27.3-19.4 41.9-8.3 14.7-18.6 29.4-29.9 42.3-2.8 3.2-5.7 6.3-8.6 9.3-2.9 2.9-5.9 5.7-8.9 8.3-3 2.6-6.1 5.2-9.3 7.6l-4.7 3.5c-1.6 1.1-3.2 2.2-4.8 3.2-6.4 4.1-13 7.5-19.5 10.1-6.5 2.6-12.9 4.4-18.9 5.5-12 2.2-22.3 1.3-29.3 0-.9-.2-1.7-.3-2.5-.5s-1.5-.3-2.2-.5c-1.3-.3-2.5-.6-3.4-.9-1.8-.5-2.8-.8-2.8-.8s.4-4.5.7-11.5c.3-7 .4-16.4-.1-26-.4-9.6-1.4-19.4-2.4-26.9-.5-3.7-1-6.8-1.3-9-.4-2.2-.6-3.4-.6-3.4s.6.3 1.7 1c.6.3 1.3.6 2.1 1.1.8.4 1.8.8 2.9 1.3 4.4 1.9 11 4.2 19.3 5.2s18.3.9 29.1-1.3c1.4-.2 2.7-.6 4.1-.9 1.4-.3 2.7-.6 4.1-1 1.4-.4 2.8-.8 4.2-1.3.7-.2 1.4-.5 2.2-.7l2.2-.8c5.9-2.2 12.2-5.3 18.4-8.9 12.5-7.2 25.1-16.7 36.2-26.8 11.1-10.1 20.7-20.7 28.3-30.1 7.6-9.4 13-17.6 16.4-23.2 1.7-2.8 3-5 3.8-6.5 1.3-1.4 1.7-2.2 1.7-2.2zm96.5 8c.4 1.4.2 9.4-1.8 21.4-2 12-5.8 27.8-12 45.4-12.4 35.2-34.5 77.6-66.5 114.5-4 4.6-8.2 9.1-12.4 13.5-4.3 4.4-8.7 8.7-13.3 12.8-4.6 4.1-9.2 8-13.9 11.6-2.3 1.9-4.8 3.6-7.1 5.3-2.4 1.7-4.8 3.4-7.2 4.9-4.8 3.2-9.7 6.1-14.6 8.8-4.9 2.6-9.8 5.1-14.6 7.2-9.7 4.3-19.3 7.3-28.2 9.4-9 2.1-17.3 3.1-24.7 3.5-7.4.4-13.9 0-19.1-.4-1.3-.1-2.6-.3-3.7-.4-1.2-.1-2.3-.3-3.3-.4-2-.3-3.7-.5-5.1-.8-2.8-.5-4.2-.8-4.2-.8s1-5.3 2.1-13c.6-3.9 1.2-8.5 1.7-13.3.3-2.4.5-4.9.7-7.5l.3-3.9.2-1.9.2-1.8c.5-4.7.8-9.5 1.1-14 .2-4.5.4-8.8.4-12.5v-8.9c0-2.2-.1-3.4-.1-3.4s.3.1.8.3c.5.2 1.3.4 2.3.7 1 .3 2.3.6 3.8 1 1.5.3 3.2.7 5.2 1.1 7.8 1.5 19.3 2.8 33 1.5 13.7-1.3 29.6-5.1 46-12.1 16.4-6.9 33.4-17 49.7-29.2 16.2-12.2 31.6-26.4 45-41.1 13.4-14.7 24.9-29.9 34-44.1 9.1-14.1 15.6-27.3 19.8-37.1 2.1-4.9 3.6-9 4.5-11.8.5-3 1-4.5 1-4.5zm96.5 7.9c.1.5.1 1.6.1 3.3 0 .8-.1 1.8-.1 2.9-.1 1.1-.1 2.4-.3 3.7-.1 1.3-.3 2.8-.4 4.3l-.3 2.4-.3 2.5c-.2 1.7-.5 3.6-.7 5.5-.3 1.9-.6 3.9-1 6-1.4 8.3-3.4 17.7-6 27.9-2.6 10.1-5.9 21-9.9 32.2-4 11.3-8.6 22.9-14 34.9-5.4 11.9-11.5 24.1-18.4 36.4-13.8 24.5-30.6 49.5-51.2 73.6-5.1 6-10.6 12-16.2 17.8-5.7 5.9-11.6 11.6-17.8 17.3-6.1 5.5-12.3 10.8-18.6 15.7-3.1 2.5-6.3 4.8-9.5 7.2-3.2 2.3-6.4 4.6-9.6 6.7-6.4 4.4-12.9 8.4-19.4 12.1-6.5 3.7-13 7-19.4 10.1-12.8 6.1-25.4 10.7-37.2 14.2-11.8 3.5-22.8 5.8-32.6 7.2-9.8 1.5-18.3 2-25.3 2.3-1.7.1-3.4.1-5 .2h-4.4c-2.7 0-5 0-6.8-.1-3.7-.2-5.7-.2-5.7-.2s1.7-5.5 3.8-13.7c1.1-4.1 2.3-8.9 3.4-14 1.2-5.1 2.3-10.6 3.3-16.1 1-5.4 1.9-11 2.7-16.1.8-5.1 1.4-9.9 1.8-14 .5-4.1.8-7.5 1-9.9.2-2.4.3-3.8.3-3.8s.4.1 1.1.2c.8.1 1.9.3 3.4.5s3.3.4 5.4.7c2.1.2 4.6.4 7.4.6 5.6.3 12.3.4 20.1-.2 7.8-.5 16.6-1.6 26-3.7 18.9-4 40.5-11.6 62.5-23.4 2.8-1.4 5.5-3 8.3-4.6 2.8-1.6 5.6-3.3 8.4-5 2.7-1.7 5.6-3.5 8.3-5.3l4.1-2.7 4-2.8c10.8-7.6 21.2-15.7 31.2-24.3 19.9-17.2 38-36.1 53.7-55.4 15.7-19.3 29.1-39.2 39.6-58.1 5.3-9.4 9.9-18.7 13.7-27.3 3.8-8.7 7-16.8 9.4-23.8 2.4-7.1 4.1-13 5.2-17.2 1.3-4.4 1.9-6.7 1.9-6.7zm96.5 8c.1.7.1 2.1 0 4.3 0 1.1-.1 2.4-.2 3.8-.1 1.5-.2 3.1-.4 4.8-.2 1.7-.4 3.6-.6 5.6-.1 1-.2 2.1-.4 3.2-.1 1-.3 2.1-.4 3.3-.3 2.2-.6 4.6-1 7.1-.4 2.4-.8 5-1.2 7.7-1.8 10.6-4.3 22.5-7.6 35.1-3.3 12.6-7.3 25.9-12.1 39.7-4.8 13.7-10.4 27.8-16.9 42.2-6.5 14.4-13.8 29-22 43.7-16.5 29.5-36.6 59.5-61.9 89.2-6.3 7.4-13.1 14.8-20 22.1-7.1 7.3-14.5 14.6-22.3 21.7-2 1.8-3.8 3.4-5.8 5.1-1.9 1.7-3.8 3.4-5.8 5-3.9 3.3-7.8 6.5-11.7 9.6-3.9 3.1-7.9 6.1-11.9 9.1-4 2.9-8 5.8-12 8.5-32 22.1-65.2 37.7-94.5 47.5-14.6 4.9-28.3 8.4-40.4 11-12.1 2.6-22.8 4-31.5 5-2.2.2-4.2.5-6.2.7-1.9.2-3.8.3-5.4.4-3.4.3-6.3.5-8.6.5-4.6.2-7.1.3-7.1.3s2.3-5.8 5.5-14.4c1.6-4.3 3.4-9.4 5.1-14.7 1.8-5.3 3.6-11.2 5.3-16.9 1.7-5.7 3.3-11.5 4.6-16.9 1.4-5.3 2.6-10.4 3.5-14.7 1-4.3 1.7-7.9 2.2-10.4l.8-4h1.5c1 0 2.4.1 4.3.1s4.3 0 7-.1c2.8-.1 5.9-.2 9.5-.4 7.1-.5 15.8-1.3 25.7-3 9.9-1.6 21.1-4 33.1-7.6 24-7 51.4-18.5 78.9-35.1 3.5-2 6.9-4.2 10.3-6.4 3.5-2.2 7-4.7 10.5-7.1l10.3-7.3c1.7-1.2 3.4-2.5 5.1-3.8l5-3.8c13.2-10.2 25.7-21 37.5-32.1 23.6-22.2 44.5-45.8 62.5-69.7 18-23.9 33.2-48.4 45.3-72 6-11.8 11.3-23.4 15.7-34.5 4.4-11 8-21.5 10.7-30.6.7-2.3 1.3-4.6 1.9-6.6.3-1 .6-2.1.9-3l.8-3c.5-1.9.9-3.7 1.3-5.3.2-.8.4-1.6.6-2.3.2-.8.3-1.5.5-2.2 1.3-5.4 2-8.4 2-8.4zm-273.7-597.9c-.6.5-2.7 1.5-6.3 3-1.8.7-3.9 1.6-6.4 2.6-2.6 1-5.4 2.1-8.6 3.3-3.3 1.3-6.9 2.6-10.8 4.1-2 .8-4 1.5-6.1 2.3-2.2.9-4.5 1.7-6.8 2.7-2.4.9-4.8 1.9-7.3 2.8-2.6 1-5.2 2.1-8 3.2-5.3 2.1-11.3 4.7-17.5 7.3l-2.3 1-2.4 1.1c-1.6.7-3.2 1.5-4.9 2.2-1.6.7-3.3 1.5-5 2.2-.8.4-1.7.8-2.5 1.1l-2.6 1.2c-3.5 1.7-7 3.4-10.6 5.1-1.8.8-3.6 1.8-5.5 2.8-1.8 1-3.7 1.9-5.6 2.9l-5.6 3-5.7 3.2-5.8 3.3c-1.9 1.1-3.9 2.2-5.8 3.4l-11.8 7.3c-2 1.2-4 2.6-5.9 3.9l-6 4-6 4.1-5.9 4.3-5.9 4.4-3 2.2-2.9 2.3c-3.8 3.1-7.7 6.2-11.6 9.3-3.8 3.2-7.5 6.5-11.2 9.7l-2.8 2.5c-.9.8-1.9 1.7-2.7 2.5l-5.4 5.1c-1.8 1.7-3.6 3.4-5.3 5.1l-2.7 2.6-2.3 2.3c-3 3.1-6.1 6.2-9.2 9.3-3 3.1-6 6.3-9 9.5l-4.5 4.8-4.4 4.8c-2.9 3.2-5.8 6.5-8.6 9.7l-8.4 9.9-4.2 5-4.1 5.1c-2.7 3.4-5.4 6.8-8 10.1-2.6 3.5-5.2 6.9-7.8 10.3-1.3 1.7-2.6 3.4-3.8 5.1-1.3 1.7-2.5 3.5-3.7 5.2-2.5 3.5-4.9 7-7.3 10.4-19.1 27.8-35.2 56.7-47.5 83.7-1.5 3.4-3 6.7-4.4 10-.7 1.6-1.4 3.3-2.1 5-.7 1.7-1.3 3.3-2 4.9-2.5 6.5-5 12.5-7 18.7-1 3-2 6-3 8.8l-1.4 4.2-1.3 4.1c-1.6 5.5-3 10.6-4.2 15.2-.6 2.3-1.2 4.5-1.7 6.5-.5 2.1-.9 4.2-1.3 6-.8 3.8-1.4 6.9-2 9.5-1 5.2-1.6 8-1.6 8s-1.2-1.2-3.3-3.2c-2.1-2.1-5-5-8.5-8.7-3.5-3.7-7.5-8.1-11.8-12.9-2.1-2.4-4.3-5-6.5-7.6-2.2-2.5-4.4-5.1-6.5-7.8-4.3-5.3-8.6-10.7-12.6-15.9-3.9-5.2-7.6-10.3-10.6-14.3-3-4.2-5.5-7.7-7.2-10.2-1.7-2.5-2.7-3.9-2.7-3.9s1.3-2.7 3.6-7.8c.6-1.3 1.3-2.7 2-4.2s1.6-3.1 2.5-4.8c1.8-3.5 3.9-7.4 6.3-11.8 1.2-2.2 2.4-4.5 3.7-6.9 1.3-2.4 2.8-4.7 4.2-7.2 3-5 6.2-10.3 9.7-16 3.5-5.4 7.3-11.1 11.4-17 1-1.5 2-3 3.1-4.5 1.1-1.4 2.1-2.9 3.2-4.4 2.2-2.9 4.4-5.9 6.6-9 18.2-24.3 40.3-49.3 64.8-73 24.5-23.7 51.5-46.1 79.8-66.6l6-4.4 6.2-4.5 6.2-4.4c2.1-1.5 4.3-2.9 6.4-4.3 4.3-2.8 8.5-5.7 12.8-8.4 4.4-2.7 8.8-5.4 13.1-8 4.3-2.7 8.8-5.1 13.2-7.5l6.6-3.6 3.3-1.8 3.3-1.7c4.4-2.2 8.8-4.4 13.2-6.5 4.4-2.1 8.7-4 13.1-5.9 2.2-.9 4.3-1.9 6.4-2.8l6.3-2.5 6.3-2.5c2.1-.8 4.2-1.7 6.2-2.3 4.1-1.4 8.1-2.8 12-4.2l3-1 2.9-.9 5.7-1.8 5.6-1.7c.9-.3 1.8-.6 2.8-.8l2.7-.7c3.5-1 7-1.9 10.4-2.8 3.5-1 6.6-1.6 9.8-2.4 3.2-.7 6.3-1.5 9.3-2.2 2.9-.6 5.8-1.2 8.6-1.8l4.2-.9c.7-.1 1.4-.3 2-.4.6-.1 1.3-.2 1.9-.4 2.6-.5 5-.9 7.5-1.4l3.6-.6c.6-.1 1.2-.2 1.7-.3l1.7-.3c4.4-.7 8.4-1.3 12.2-1.9 3.6-.5 7-1 10-1.4 1.5-.2 2.9-.4 4.3-.6 1.3-.2 2.5-.3 3.6-.5 2.2-.3 4.1-.5 5.7-.7 3.4-.5 5-.7 5-.7zm33 91c-.6.5-2.7 1.5-6.2 3-1.8.7-3.9 1.6-6.3 2.5-2.5 1-5.3 2-8.3 3.2-12.4 4.8-29.8 11.2-51.1 20.3-10.6 4.6-22.2 9.9-34.3 16.3-1.5.8-3 1.6-4.6 2.4l-4.6 2.6c-3.1 1.8-6.2 3.4-9.3 5.3-3.1 1.9-6.2 3.8-9.4 5.8-3.1 2-6.2 4.1-9.4 6.2-1.6 1.1-3.2 2.1-4.7 3.2l-4.6 3.4-4.7 3.4-2.3 1.7-2.3 1.8c-3 2.4-6.1 4.9-9.2 7.3-3 2.5-5.9 5.1-8.9 7.7-3 2.6-5.8 5.3-8.7 8l-4.3 4.1-2.1 2-2 2-7.9 8c-2.6 2.7-5.2 5.4-7.8 8.2l-3.9 4.1-3.8 4.2-7.5 8.4c-2.4 2.9-4.8 5.7-7.3 8.5-1.2 1.4-2.4 2.8-3.6 4.3-1.2 1.5-2.3 2.9-3.5 4.3l-6.9 8.7-6.6 8.8-3.3 4.4c-1.1 1.5-2.1 3-3.2 4.4-2.1 3-4.2 5.9-6.2 8.8-16.2 23.5-29.5 47.2-39.4 68.9-1.2 2.7-2.4 5.4-3.6 8-1.2 2.6-2.1 5.3-3.2 7.8-2 5.1-4 9.9-5.5 14.7-1.6 4.7-3.1 9.1-4.4 13.2-1.2 4.2-2.2 8.1-3.2 11.6-.5 1.8-.9 3.4-1.3 5-.3 1.6-.7 3.1-1 4.5-.6 2.8-1.1 5.2-1.5 7.1-.8 3.9-1.2 5.9-1.2 5.9s-1.2-.9-3.4-2.6c-2.1-1.6-5.2-4-8.8-7-3.6-3-7.8-6.5-12.3-10.5-2.2-2-4.5-4.1-6.8-6.2-2.3-2.1-4.5-4.3-6.8-6.5-4.6-4.4-9.1-9-13.2-13.4-4.2-4.4-8.1-8.7-11.2-12.2-3.2-3.6-5.8-6.7-7.7-8.8-1.8-2.2-2.9-3.4-2.9-3.4s1.1-2.2 3.1-6.3l1.7-3.4c.6-1.2 1.4-2.5 2.2-3.9 1.6-2.8 3.4-6 5.4-9.6 1-1.8 2.1-3.7 3.2-5.6 1.1-1.9 2.4-3.9 3.7-5.9 2.6-4.1 5.4-8.5 8.4-13.1 3.1-4.5 6.4-9.1 9.9-14l2.7-3.7 2.8-3.6c1.9-2.4 3.8-4.9 5.8-7.5 16-20.2 35.5-41.3 57.4-61.5 21.9-20.2 46.1-39.3 71.2-56.6l10.3-7 5.2-3.5 5.3-3.3c3.6-2.2 7.1-4.4 10.6-6.5l10.8-6.1c14.5-7.8 29-14.8 43.2-20.3l5.3-2.1c1.8-.6 3.5-1.3 5.2-1.9 3.5-1.2 6.9-2.5 10.3-3.6 3.4-1.1 6.7-2.1 10-3.1 3.3-1.1 6.5-1.9 9.7-2.8 1.6-.4 3.2-.9 4.7-1.3.8-.2 1.6-.4 2.3-.6l2.3-.6 9-2.1c2.9-.7 5.8-1.3 8.6-1.9 2.8-.6 5.5-1.1 8.2-1.7 5.3-1 10.3-1.9 15-2.7 4.7-.8 9.2-1.5 13.3-2.1 4.1-.6 8-1.2 11.5-1.7s6.7-.9 9.6-1.3c11.7-1.6 18.3-2.5 18.3-2.5zm33 91c-.6.5-2.7 1.5-6.2 3-1.7.7-3.8 1.6-6.2 2.5-2.4.9-5.1 2-8 3.1-11.8 4.6-28 10.6-45.8 18.1-8.8 3.9-18.1 8-27.3 12.9-9.3 4.9-18.6 10.2-27.7 16.5-1.1.8-2.3 1.5-3.5 2.3-1.1.8-2.2 1.6-3.4 2.5-1.1.8-2.3 1.6-3.4 2.5l-1.7 1.2-1.7 1.3-6.7 5.3-6.6 5.7c-2.2 1.8-4.4 3.9-6.5 5.9l-3.2 3-1.6 1.5-1.7 1.7-6.7 6.7-6.6 6.9-3.3 3.4-3.2 3.5-6.3 7-6.1 7.2-3 3.6-2.9 3.6-5.8 7.2-5.5 7.3-2.7 3.6-2.6 3.6-5.1 7.2c-13.3 19.1-23.8 37.8-31.3 54l-2.7 6c-.9 1.9-1.6 3.9-2.3 5.7-1.5 3.7-3 7.2-4.1 10.6-1.1 3.3-2.3 6.4-3.2 9.3-.8 2.9-1.6 5.5-2.2 7.9-.3 1.2-.7 2.3-1 3.4-.2 1.1-.4 2.1-.6 3-.4 1.8-.8 3.4-1 4.7l-.9 3.9s-1.3-.7-3.5-1.9-5.4-3-9.1-5.3c-3.8-2.3-8.1-5-12.8-8.1-2.3-1.5-4.7-3.2-7.1-4.8-2.4-1.7-4.7-3.4-7.1-5.2-4.8-3.6-9.5-7.3-13.9-10.9-4.4-3.6-8.5-7.1-11.8-10.1-3.4-3-6.2-5.6-8.1-7.4-1.9-1.8-3-2.9-3-2.9s.9-1.7 2.6-4.8c.4-.8.9-1.6 1.4-2.6.5-.9 1.2-1.9 1.8-3 1.3-2.2 2.9-4.6 4.6-7.4.9-1.4 1.8-2.8 2.7-4.3 1-1.5 2.1-3 3.1-4.6 2.2-3.1 4.6-6.6 7.1-10.2 2.7-3.5 5.5-7.2 8.5-11.1l2.3-2.9 2.4-2.9c1.6-1.9 3.3-3.9 5-6 13.7-16.1 30.7-33.3 49.9-49.9s40.6-32.5 62.7-46.7c2.8-1.8 5.6-3.4 8.4-5.1l4.2-2.5c1.4-.8 2.8-1.6 4.3-2.4 2.8-1.6 5.6-3.1 8.4-4.6 2.9-1.4 5.7-2.8 8.5-4.2 11.4-5.4 22.6-10 33.8-13.6l4.1-1.4c1.4-.4 2.8-.8 4.1-1.2 2.8-.8 5.4-1.6 8.1-2.4 5.4-1.4 10.7-2.8 15.9-3.9 10.3-2.4 20.3-4.1 29.5-5.6 18.5-2.9 34.3-4.9 45.6-6.3 11.2-1.3 17.7-2.1 17.7-2.1zm33 91c-.5.5-2.7 1.5-6.1 2.9-1.7.7-3.8 1.6-6.2 2.5-2.3.9-4.9 1.9-7.7 3-11.3 4.4-26.2 9.9-40.4 16l-1.4.6-1.3.6-2.6 1.2c-.9.4-1.8.8-2.6 1.2l-1.3.6-1.2.6c-1.7.8-3.3 1.6-5.1 2.4-.9.4-1.6.8-2.4 1.2l-2.4 1.2c-.8.4-1.6.8-2.5 1.2l-2.3 1.3-2.3 1.3c-.8.4-1.6.8-2.3 1.3-1.5.9-2.9 1.8-4.5 2.7-.8.4-1.5.9-2.2 1.4-.7.5-1.4.9-2.2 1.4l-2.2 1.4-2.1 1.5c-.7.5-1.4 1-2.2 1.5l-1.1.8-1 .8c-1.4 1.1-2.8 2.2-4.3 3.3-1.4 1.2-2.8 2.4-4.3 3.6l-1.1.9c-.4.3-.7.6-1.1 1l-2.2 2-2.2 2-1.1 1-1.4 1.4c-1.8 1.8-3.6 3.6-5.5 5.4-1.8 1.8-3.6 3.7-5.4 5.6l-2.7 2.8c-.9.9-1.7 1.9-2.6 2.9l-5.2 5.7-5 5.8-2.5 2.9c-.8 1-1.6 1.9-2.3 2.9l-4.7 5.7-4.4 5.7-2.2 2.8c-.7.9-1.4 1.9-2 2.8-1.4 1.9-2.7 3.7-4 5.6-10.4 14.8-18 28.4-23.2 39.2-.6 1.3-1.3 2.7-1.9 3.9l-.8 1.9-.7 1.8c-.9 2.3-2.1 4.6-2.6 6.5-.7 1.9-1.4 3.8-2 5.4-.4 1.6-.9 3-1.3 4.3l-.6 1.8-.3 1.5c-.2.9-.4 1.7-.6 2.3-.3 1.2-.5 1.9-.5 1.9s-1.3-.5-3.6-1.2c-2.3-.8-5.5-2-9.4-3.5-3.9-1.5-8.4-3.4-13.3-5.6-2.4-1.1-4.9-2.3-7.4-3.5l-7.4-3.9c-5-2.7-9.9-5.5-14.5-8.4-4.6-2.8-8.9-5.5-12.4-8-3.5-2.4-6.5-4.5-8.5-6l-3.2-2.4 2.1-3.3c.3-.5.7-1.1 1.1-1.8.4-.6 1-1.3 1.5-2.1 1.1-1.5 2.4-3.2 3.8-5.2.7-1 1.4-2 2.2-3 .8-1.1 1.7-2.1 2.6-3.3 1.8-2.3 3.8-4.7 5.8-7.3 2.2-2.5 4.6-5.2 7.1-8.1.6-.7 1.2-1.4 1.9-2.1.7-.7 1.4-1.4 2-2.2 1.4-1.4 2.8-2.9 4.2-4.4 11.5-12 26-25.3 42.5-38.3 16.5-13 35.2-25.7 54.1-36.8.6-.4 1.1-.6 1.7-.9l1.6-.8 3.2-1.6 3.2-1.6 3.2-1.4 6.3-2.7c2.1-.8 4.2-1.5 6.2-2.3 8.3-2.9 16.2-5.2 24.3-6.9 1-.2 2-.4 3-.7l3-.6c2-.4 3.9-.8 6-1.1l6-1 1.5-.2 1.5-.2 3-.4 3-.4 1.5-.2 1.5-.2 6-.8c4.1-.5 8.1-1 11.9-1.5 17.3-2 31.7-3.6 41.8-4.8 11.3-1.4 17.7-2.2 17.7-2.2zm33 91c-.5.5-2.6 1.5-6.1 2.9-1.7.7-3.8 1.5-6.1 2.5-2.2.9-4.7 1.8-7.4 2.9-10.8 4.2-24.4 9.3-35.1 13.9l-1.1.4-.9.4-1.8.8c-.6.3-1.2.5-1.9.8l-.9.4-.8.4c-1 .5-2.1 1-3.2 1.5-.6.2-1 .5-1.4.7l-1.4.7c-.5.2-.9.4-1.4.7-.4.2-.8.4-1.1.6l-1.2.6c-.4.2-.8.4-1.1.6-.6.4-1.3.8-2 1.1-.4.2-.6.4-.9.6l-.9.6-.9.5c-.3.2-.6.4-.8.6l-.9.6-.5.3-.4.4c-.6.5-1.2.9-1.8 1.3-.6.5-1.3 1.1-2 1.6l-.5.4-.3.2-.3.3-1.1 1-1.1 1-.6.5-1 1-4.2 4.2c-1.4 1.4-2.8 2.9-4.1 4.3l-2.1 2.1-2 2.2-4 4.4-3.8 4.4-1.9 2.2-1.8 2.2-3.6 4.3-3.3 4.2-1.6 2.1c-.5.7-1 1.4-1.5 2-1 1.3-2 2.7-2.9 4-7.5 10.5-12.3 19-15.1 24.3-.3.7-.7 1.3-1 1.9-.2.3-.3.6-.4.8l-.3.7c-.4.9-1.1 1.9-1.2 2.4-.1.3-.2.6-.4.8l-.2.4c-.1.1-.2.3-.2.3 0 .2-.2.4-.3.6l-.2.2v-.1h-.1l-.6-.1c-.4-.1-.8-.2-1.1-.2-.7-.2-1.5-.3-2.1-.4-1.4-.3-2.6-.5-3.8-.7-2.3-.4-4-.7-5.2-.8-1.2-.2-1.8-.2-1.8-.2s.8.1 2.3.3c.7.1 1.6.2 2.6.4.1 0 .3 0 .4.1h.2-.1-.2l-1.3-.3c-.9-.2-1.9-.4-2.9-.6-4-.8-8.7-1.9-13.8-3.2-2.5-.7-5.1-1.3-7.7-2.1-2.6-.8-5.1-1.7-7.7-2.6-5.2-1.8-10.3-3.8-15.2-5.8-4.8-2-9.4-4-13-5.9-3.7-1.9-6.8-3.5-8.9-4.6-2.2-1.2-3.4-1.8-3.4-1.8s.6-.6 1.6-1.7c.3-.3.5-.6.9-.9l1.2-1.2 2.9-2.9 1.7-1.7c.6-.6 1.4-1.3 2.1-2 1.4-1.4 2.9-2.8 4.6-4.4 1.8-1.6 3.6-3.3 5.6-5.1.5-.4 1-.9 1.5-1.4.5-.5 1.1-.9 1.7-1.4 1.1-1 2.2-1.9 3.4-2.9 9.3-7.9 21.2-17.3 35-26.8 13.8-9.4 29.7-18.9 45.5-26.8l.4-.2c.1-.1.2-.1.3-.1l.6-.2 1.1-.3 2.2-.6 2.2-.6c.7-.2 1.4-.3 2.1-.4l4.1-.8c1.4-.1 2.7-.3 3.9-.4 1.2-.2 2.6-.2 3.8-.2l1.8-.1h5.4l3.7.1c2.6.1 5.1.1 7.5.2 1.4 0 2.7 0 4 .1h8.5c1.5 0 3.1-.1 4.5-.1.8 0 1.6-.1 2.3-.1l2.4-.1c1.6-.1 3.2-.2 4.7-.2l5.1-.3 2.4-.2 2.5-.2c1.7-.1 3.4-.3 5-.4l2.4-.2 1.2-.1 1.3-.1c3.4-.3 6.5-.6 9.4-.9 3.1-.3 6-.6 8.6-.9 1.3-.1 2.5-.3 3.7-.4 1.2-.1 2.4-.3 3.5-.4 2.2-.3 4-.5 5.5-.7 3-1 4.6-1.2 4.6-1.2z" fill="#8F2046"/></svg>