<svg xmlns="http://www.w3.org/2000/svg" xmlns:xlink="http://www.w3.org/1999/xlink" viewBox="0 0 144 144" enable-background="new 0 0 144 144"><image overflow="visible" opacity=".15" width="106" height="118" xlink:href="EEDAC60EF35BA08F.png" transform="translate(19 13)"/><path fill="#571062" d="M118.6 37l-37.2-21.5c-3.9-2.2-8.6-2.2-12.5 0l-37.2 21.5c-3.9 2.2-6.2 6.4-6.2 10.8v43c0 4.5 2.4 8.6 6.2 10.8l37.2 21.5c1.9 1.1 4.1 1.7 6.2 1.7 2.2 0 4.3-.6 6.2-1.7l37.2-21.5c3.9-2.2 6.2-6.4 6.2-10.8v-43c.2-4.4-2.2-8.6-6.1-10.8z"/><path d="M70.4 68s4.7-.4 4.7-5.9-3.8-8.2-8.7-8.2h-16.1v30.8h16.1s9.8.3 9.8-9.1c-.1.1.4-7.6-5.8-7.6zm-13-8.6h9s2.2 0 2.2 3.2-1.3 3.7-2.7 3.7h-8.4v-6.9zm8.5 19.9h-8.5v-8.3h9s3.2 0 3.2 4.2c0 3.7-2.4 4.1-3.7 4.1zm27.9-15.4c1.6.6 2.9 1.7 3.9 3 .9 1.2 1.5 2.6 1.8 4.3.2.9.5 2.7.5 4.5h-16.9c.1 2.1 1.2 3.2 2.6 4 .9.5 2 .8 3.2.8 1.3 0 2.4-.3 3.3-.9.5-.3 1-.6 1.3-1.2h6.4c-.2 1.2-1.4 2.2-2.7 3.5-2 2-4.8 3-8.4 3-3 0-5.6-.8-7.9-2.5-2.3-1.7-3.4-4.4-3.4-8.2 0-3.6 1-6.3 3.1-8.2 2.1-1.9 4.7-2.9 8-2.9 1.9-.2 3.6.1 5.2.8zm-8.8 4.6c-.8.8-1.3 1.8-1.6 3.2h10.1c-.1-1.4-.6-2.5-1.6-3.3-.9-.7-2.1-1.1-3.5-1.1s-2.6.4-3.4 1.2zm9.8-9h-13l-.1-3.1h13.1v3.1z" fill="#fff"/></svg>