<?xml version="1.0" encoding="utf-8"?>
<!-- Generator: Adobe Illustrator 17.1.0, SVG Export Plug-In . SVG Version: 6.00 Build 0)  -->
<!DOCTYPE svg PUBLIC "-//W3C//DTD SVG 1.1//EN" "http://www.w3.org/Graphics/SVG/1.1/DTD/svg11.dtd">
<svg version="1.1" id="Layer_1" xmlns="http://www.w3.org/2000/svg" xmlns:xlink="http://www.w3.org/1999/xlink" x="0px" y="0px"
	 viewBox="0 0 144 144" enable-background="new 0 0 144 144" xml:space="preserve">
<g>
	
		<image overflow="visible" opacity="0.15" width="106" height="118" xlink:href="EEDAC60EF35BA08F.png"  transform="matrix(1 0 0 1 19 13)">
	</image>
	<g>
		<path fill="#571062" d="M118.6,37L81.4,15.5c-3.9-2.2-8.6-2.2-12.5,0L31.7,37c-3.9,2.2-6.2,6.4-6.2,10.8v43
			c0,4.5,2.4,8.6,6.2,10.8l37.2,21.5c1.9,1.1,4.1,1.7,6.2,1.7c2.2,0,4.3-0.6,6.2-1.7l37.2-21.5c3.9-2.2,6.2-6.4,6.2-10.8v-43
			C124.9,43.4,122.5,39.2,118.6,37z"/>
	</g>
</g>
<g>
	<path fill="#FFFFFF" d="M70.4,68c0,0,4.7-0.4,4.7-5.9s-3.8-8.2-8.7-8.2h-9h-0.3h-6.8v30.8h6.8h0.3h9c0,0,9.8,0.3,9.8-9.1
		C76.1,75.7,76.6,68,70.4,68z M57.4,59.4h7.8h1.2c0,0,2.2,0,2.2,3.2c0,3.2-1.3,3.7-2.7,3.7h-8.4V59.4z M65.9,79.3
		c-0.2,0-0.4,0-0.6,0h-7.9V71h9c0,0,3.2,0,3.2,4.2C69.6,78.9,67.2,79.3,65.9,79.3z"/>
	<path fill="#FFFFFF" d="M93.8,63.9c1.6,0.6,2.9,1.7,3.9,3c0.9,1.2,1.5,2.6,1.8,4.3c0.2,0.9,0.5,2.7,0.5,4.5l-16.9,0
		c0.1,2.1,1.2,3.2,2.6,4c0.9,0.5,2,0.8,3.2,0.8c1.3,0,2.4-0.3,3.3-0.9c0.5-0.3,1-0.6,1.3-1.2h6.4c-0.2,1.2-1.4,2.2-2.7,3.5
		c-2,2-4.8,3-8.4,3c-3,0-5.6-0.8-7.9-2.5c-2.3-1.7-3.4-4.4-3.4-8.2c0-3.6,1-6.3,3.1-8.2c2.1-1.9,4.7-2.9,8-2.9
		C90.5,62.9,92.2,63.2,93.8,63.9z M85,68.5c-0.8,0.8-1.3,1.8-1.6,3.2h10.1c-0.1-1.4-0.6-2.5-1.6-3.3c-0.9-0.7-2.1-1.1-3.5-1.1
		C87,67.3,85.8,67.7,85,68.5z"/>
	<path fill="#FFFFFF" d="M94.8,59.5l-13,0l-0.1-3.1l13.1,0V59.5z"/>
</g>
</svg>
