<?xml version="1.0" encoding="utf-8"?>
<!-- Generator: Adobe Illustrator 17.1.0, SVG Export Plug-In . SVG Version: 6.00 Build 0)  -->
<!DOCTYPE svg PUBLIC "-//W3C//DTD SVG 1.1//EN" "http://www.w3.org/Graphics/SVG/1.1/DTD/svg11.dtd">
<svg version="1.1" id="Layer_1" xmlns="http://www.w3.org/2000/svg" xmlns:xlink="http://www.w3.org/1999/xlink" x="0px" y="0px"
	 viewBox="0 0 792 1224" enable-background="new 0 0 792 1224" xml:space="preserve">
<g>
	
		<image overflow="visible" opacity="0.15" enable-background="new    " width="106" height="118" xlink:href="EEDAC60EF35BA08C.png"  transform="matrix(5.5 0 0 5.5 104.5 287.5)">
	</image>
	<g>
		<path fill="#571062" d="M652.6,419.6L447.7,301.3c-21.3-12.3-47.5-12.3-68.8,0L174.2,419.6c-21.3,12.3-34.4,35-34.4,59.5v236.5
			c0,24.6,13.1,47.3,34.4,59.5L379,893.4c10.6,6.1,22.5,9.2,34.4,9.2s23.7-3.1,34.4-9.2l204.8-118.2c21.3-12.3,34.4-35,34.4-59.5
			V479.1C686.9,454.5,673.8,431.8,652.6,419.6z"/>
	</g>
	<path fill="#FFFFFF" d="M387,590c0,0,25.9-1.9,25.9-32.3s-21.2-45.1-48-45.1h-49.3h-1.4h-37.4v169.5h37.4h1.4h49.3
		c0,0,53.8,1.7,53.8-50C418.7,632.1,421.1,590,387,590z M315.6,542.8h43h6.3c0,0,12,0,12,17.6c0,17.6-7.1,20.2-15,20.2h-46.3
		L315.6,542.8L315.6,542.8z M362.4,652c-1.3,0-2.4,0-3.2,0h-43.7v-45.3h49.3c0,0,17.9-0.2,17.9,23.3
		C382.8,649.8,369.4,651.9,362.4,652z"/>
	<path fill="#FFFFFF" d="M515.8,567.3c8.6,3.6,15.7,9.1,21.3,16.8c5.1,6.8,8.3,14.6,9.8,23.4c0.9,5.2,2.8,14.9,2.6,24.7l-92.9-0.2
		c0.5,11.4,6.4,17.3,14.5,21.9c4.9,2.8,10.9,4.3,17.8,4.3c7.3,0,13.3-1.7,17.9-5.2c2.5-1.9,5.4-3.1,7.3-6.5h35.2
		c-0.9,6.7-7.8,12.2-14.9,19.1c-11.1,11-26.5,16.5-46.4,16.5c-16.4,0-30.9-4.6-43.4-14c-12.5-9.3-18.8-24.4-18.8-45.4
		c0-19.6,5.6-34.7,17-45.2c11.3-10.5,26-15.7,44.1-15.7C497.5,562,507.2,563.7,515.8,567.3z M467.5,592.9
		c-4.5,4.3-7.4,10.2-8.6,17.5h55.6c-0.6-7.9-3.5-13.8-8.6-17.9c-5.1-4.1-11.5-6.1-19.1-6.1C478.5,586.4,472.1,588.5,467.5,592.9z"/>
	<path fill="#FFFFFF" d="M521.2,543.2l-71.7,0.2l-0.4-17l72.1,0.2L521.2,543.2L521.2,543.2z"/>
</g>
</svg>
