<?xml version="1.0" encoding="utf-8"?>
<!-- Generator: Adobe Illustrator 17.1.0, SVG Export Plug-In . SVG Version: 6.00 Build 0)  -->
<!DOCTYPE svg PUBLIC "-//W3C//DTD SVG 1.1//EN" "http://www.w3.org/Graphics/SVG/1.1/DTD/svg11.dtd">
<svg version="1.1" id="Layer_1" xmlns="http://www.w3.org/2000/svg" xmlns:xlink="http://www.w3.org/1999/xlink" x="0px" y="0px"
	 viewBox="0 0 576 576" enable-background="new 0 0 576 576" xml:space="preserve">
<g>
	<rect fill="#CCCCCC" width="576" height="576"/>
	<g id="XMLID_1_">
		<g>
			<path fill="#329E9B" d="M556,250c12.1,16.4,11.9,34.1,5.9,52.5c-1.3,4-2.8,7.8-4.5,12.6c-1.2-7-1.8-13.3-3.6-19.2
				c-1.7-5.9-3.9-12.1-11.9-13.7c-2.2,8.3-4.3,16.3-6.6,24.9c-3.5-7.2-6.5-13.9-9.8-20.4c-5.7-11.1-13.5-20.1-25.9-24
				c-1.4-0.4-2.8-0.7-4.9-1.3c7.5,11.6,7.5,22.8,0.9,34.7c-9.9-20.2-22.4-36.6-46.7-40c3.3,12.8,4.6,25.5,3.2,38.8
				c-6.4-9.3-11.9-18.5-18.7-26.8c-6.7-8.2-14.3-15.7-22.2-22.7c-3.5-3.2-8.8-4.4-13.8-5.9c6.7,13,9.1,26.3,7,41.8
				c-5.4-15.5-14.5-26.7-26.9-35.1c-9.4-6.4-19.8-10.9-31.4-13.3c6.2,8.5,12.1,17.2,18.6,25.5c17.3,21.9,36.1,42.6,57.1,61
				c20.5,18.1,44.7,27.7,72.7,26.9c8.1-0.2,16.5,0.6,24.5,2.1c9.4,1.8,19.1,8.9,24.4,16.7c-15.6-8.5-32.2-12.6-50.2-10.7
				c4.2,1.2,8.4,2.4,12.5,3.8c14.1,4.5,23.5,13.7,28.2,28.7c-0.9-0.7-1.3-0.9-1.6-1.2c-10.4-13.9-24.6-20.8-41.6-23
				c-26.9-3.4-50.4-15-71.3-31.5c-13.5-10.6-25.9-22.7-38.3-34.6c-16.7-16-32.8-32.5-49.2-48.8c-1.1-1.1-2.4-2.2-4.5-2.9
				c1,4.7,1.8,9.5,3.1,14.1c4.1,14.3,10.6,27.6,18.5,40.1c4.7,7.5,12.2,11.9,19.8,15.8c7.3,3.7,14.9,6.7,22.1,9.8
				c-8.9,1.6-18.3,5.1-28.1,0.1c4.2,12.9,12.5,23.5,26.6,25.2c6.9,0.8,13.8,1.5,21,2.9c-8,3-16,5.9-23.9,8.9
				c9.4,7.2,28.5,12.4,42.3,4.7c-0.8,5-6.2,10-16.3,14.5c9.2,1.6,17.4,3,26.5,4.5c-19.7,4.4-38.3,7.2-55.5-5.1
				c-13.5-9.7-27.6-18.6-40.3-29.1c-18.6-15.4-28.4-36.6-35.3-59.2c-1.4-4.4-2.9-8.8-4.2-13.2c-3.3-11.9-11.8-19.9-21.1-27.2
				c-0.9-0.7-3.1-0.4-4.3,0.1c-15.6,6.6-27.8,17.5-37.6,31.1c-8,11-13.8,23.1-17,36.3c-3.8,15.9,0.3,30.8,6.4,45.3
				c8.2,19.4,22.6,32.7,40.9,42.4c24.7,13,49.5,25.9,73.9,39.5c22.6,12.6,43.5,27.6,60.4,47.6c17.1,20.2,26.1,43.4,24.7,70.1
				c-0.2,4.3-1.1,8.6-1.7,12.9h-279c0.5-15.8-0.9-31.4-7.4-46.1c-2.2-4.9-5.1-9.5-8-14c-12.2-19.2-24.5-38.3-37-57.6
				c-9.8,2.3-16.2,8.7-21.1,16.8c-6.4,10.7-9.3,22.6-11.2,34.7c-1,6.8-1.6,13.6-2.5,21.2c-1.6-22.4-2.6-44,3.2-65.4
				c2.9-10.6,7.9-20,15.2-28.1c1.9-2.1,2-3.8,0.8-6.3c-7.5-15.5-12.6-31.9-15.8-48.8c-0.7-3.5-2-3.6-4.8-3.1
				c-7.5,1.4-12.5,6.3-16.8,12c-8.7,11.6-13.3,25.2-18.3,38.8c0.3-2.9,0.5-5.8,0.8-8.8c0.3-3.1,0.7-6.2,1.2-9.3
				c2.9-17.9,7.8-35,19.1-49.6c2.7-3.4,5.4-7,8.8-9.6c4.3-3.3,5.6-7.1,5.6-12.5c0-18.8,2.7-37.2,9.6-54.9c0.5-1.2,0.8-2.5,1.4-4.1
				c-9.8-4-19.1-3.4-28.3,0.9c-13.4,6.2-22.8,16.8-31.2,28.4c-0.4,0.6-0.8,1.2-1.3,1.8c-0.1,0.1-0.2,0.2-0.8,0.5
				c5-15.4,12.9-28.5,25.2-38.7c15.1-12.5,33.1-18.8,51.2-25.1c2.6-0.9,5.4-2.7,7-4.8c12.6-16.9,28.4-30.4,45.2-42.9
				c0.7-0.5,1.4-1.1,2.3-1.8c-6.2-8.2-14.9-11-24.3-11.7c-23.1-1.6-44.1,6-64.9,14.8c-2.8,1.2-5.6,2.5-8.5,3.6
				c17.5-17.9,37.8-30.9,62.5-36.4c25.7-5.8,51.1-2.9,76.4,2.9c2.3,0.5,5.2,0.5,7.2-0.5c24.3-12.5,49.8-21.5,77.2-28
				c-1.5-0.8-2.2-1.3-3-1.6c-33.6-13.7-66.1-29.5-95.3-51.3c-23.1-17.3-43.4-37.3-55.8-64c-3.7-7.9-6.3-16.3-9.4-24.5
				c0.4-0.2,0.8-0.4,1.2-0.5c1,1.6,2,3.2,2.9,4.9C122.3,33.1,142,53,165.4,69.2c41,28.5,86.5,46.9,134.9,58.2
				c11.8,2.7,24,3.9,36,0.3c3.6-1.1,7.3-2.9,10.3-5.3c11-8.7,11.6-20.7,2-31.7c-9-10.3-20.6-16.8-32.8-22.3
				c-19.3-8.6-39.5-14.4-60.4-17.4c-0.2,0-0.4-0.4-0.7-0.7c8.4,0,16.8-0.5,25,0.1c18.7,1.4,37,4.8,54.5,12
				c22.1,9,41.1,22.8,57.9,39.4c12.3,12.2,24,25.2,36,37.7c5.1,5.3,10.6,10.1,15.9,15.3c3.5,3.4,7.1,6.9,10.2,10.7
				c4.4,5.5,5.1,11.9,1.7,18.1c-2.2,3.9-1.3,7,1.9,8.9c8.4,5.1,16.8,10.2,25.7,14.4c14.5,6.7,29.5,12.2,43.9,19
				C538.8,231.5,548.4,239.6,556,250z"/>
		</g>
		<g>
		</g>
	</g>
	<g>
		<path fill="#329E9B" d="M149.3,576.9c0.5-15.8-0.8-31.4-7.4-46.1c-2.2-4.9-5.1-9.4-8-14c-12.2-19.2-24.5-38.3-37-57.6
			c-9.8,2.3-16.2,8.7-21.1,16.8c-6.4,10.7-9.3,22.6-11.2,34.7c-1,6.8-1.6,13.6-2.5,21.2c-1.6-22.4-2.6-44,3.2-65.4
			c2.9-10.6,7.9-20,15.2-28.1c1.9-2.1,2-3.8,0.8-6.3c-7.5-15.5-12.6-31.9-15.8-48.8c-0.7-3.4-2-3.6-4.9-3.1
			c-7.5,1.4-12.5,6.3-16.7,12c-8.7,11.6-13.3,25.2-18.4,38.8c0.3-2.9,0.5-5.8,0.8-8.8c0.3-3.1,0.7-6.2,1.2-9.3
			c2.9-17.9,7.8-35,19.1-49.6c2.6-3.4,5.4-7,8.8-9.6c4.3-3.3,5.6-7.1,5.7-12.5c0-18.8,2.7-37.2,9.6-54.9c0.5-1.2,0.8-2.5,1.4-4.1
			c-9.8-4-19.1-3.3-28.3,0.9c-13.4,6.2-22.8,16.8-31.2,28.4c-0.4,0.6-0.8,1.2-1.3,1.8c-0.1,0.1-0.3,0.2-0.8,0.5
			c5-15.4,12.9-28.5,25.2-38.7c15.1-12.5,33.1-18.8,51.2-25.1c2.6-0.9,5.4-2.7,7-4.8c12.6-16.9,28.4-30.4,45.2-42.9
			c0.7-0.5,1.4-1.1,2.3-1.9c-6.2-8.2-14.9-11-24.3-11.7c-23.1-1.6-44.1,6-64.9,14.8c-2.8,1.2-5.6,2.5-8.5,3.6
			c17.5-17.9,37.8-30.9,62.5-36.4c25.7-5.8,51.1-2.9,76.4,2.9c2.3,0.5,5.2,0.5,7.2-0.5c24.3-12.5,49.8-21.5,77.2-28
			c-1.5-0.8-2.2-1.3-3-1.6c-33.6-13.7-66.1-29.5-95.3-51.3c-23.2-17.3-43.4-37.3-55.9-64c-3.7-7.9-6.3-16.3-9.4-24.5
			c0.4-0.2,0.8-0.4,1.2-0.5c1,1.6,2,3.2,2.9,4.9C122.3,33.1,142,53,165.4,69.2c41,28.5,86.5,46.9,134.9,58.2c11.8,2.7,24,3.9,36,0.3
			c3.6-1.1,7.3-2.9,10.3-5.3c11-8.7,11.6-20.7,2-31.7c-9-10.3-20.6-16.8-32.8-22.3c-19.3-8.6-39.5-14.4-60.4-17.4
			c-0.2,0-0.4-0.4-0.7-0.7c8.4,0,16.8-0.5,25,0.1c18.7,1.4,37,4.9,54.4,12c22.1,9,41.1,22.8,57.9,39.4c12.3,12.2,23.9,25.2,36,37.7
			c5.1,5.3,10.6,10.1,15.9,15.3c3.5,3.5,7.1,6.9,10.2,10.7c4.4,5.5,5.1,11.9,1.7,18.1c-2.2,3.9-1.3,7,1.9,8.9
			c8.4,5.1,16.8,10.2,25.7,14.3c14.5,6.7,29.5,12.2,43.9,19c11.5,5.5,21.1,13.6,28.7,24c12.1,16.4,11.9,34.1,5.9,52.5
			c-1.3,3.9-2.8,7.8-4.5,12.6c-1.2-7-1.8-13.3-3.6-19.2c-1.7-5.9-3.9-12.1-11.9-13.7c-2.2,8.3-4.3,16.3-6.6,24.9
			c-3.5-7.2-6.5-13.9-9.8-20.5c-5.7-11.1-13.5-20.1-25.9-24c-1.4-0.4-2.8-0.7-4.9-1.3c7.5,11.6,7.5,22.8,0.9,34.7
			c-9.9-20.2-22.4-36.6-46.7-40c3.3,12.8,4.6,25.5,3.2,38.8c-6.4-9.3-12-18.5-18.7-26.8c-6.7-8.2-14.3-15.7-22.2-22.7
			c-3.5-3.2-8.8-4.4-13.8-5.9c6.7,13,9.1,26.3,7.1,41.8c-5.4-15.5-14.5-26.6-26.9-35.1c-9.4-6.4-19.8-10.9-31.4-13.3
			c6.2,8.5,12.1,17.2,18.6,25.5c17.3,21.9,36.1,42.6,57.1,61c20.5,18.1,44.7,27.7,72.7,26.9c8.1-0.2,16.5,0.6,24.5,2.1
			c9.4,1.8,19.1,8.9,24.4,16.7c-15.6-8.5-32.2-12.6-50.2-10.7c4.2,1.2,8.4,2.4,12.5,3.8c14.1,4.5,23.5,13.7,28.2,28.7
			c-0.9-0.7-1.4-0.9-1.6-1.2c-10.4-13.9-24.6-20.8-41.6-22.9c-26.9-3.4-50.4-15-71.3-31.5c-13.5-10.6-25.9-22.7-38.3-34.6
			c-16.6-16-32.8-32.5-49.2-48.8c-1.1-1.1-2.3-2.2-4.5-2.9c1,4.7,1.8,9.5,3.1,14.1c4.1,14.3,10.7,27.6,18.5,40.1
			c4.7,7.5,12.2,11.9,19.8,15.7c7.3,3.7,14.9,6.7,22.1,9.8c-8.9,1.6-18.3,5.1-28.1,0.1c4.2,12.9,12.5,23.5,26.6,25.2
			c6.9,0.8,13.8,1.5,21,2.9c-8,3-16,5.9-23.9,8.9c9.4,7.2,28.5,12.4,42.3,4.7c-0.8,5-6.2,10-16.3,14.5c9.2,1.6,17.4,3,26.5,4.5
			c-19.7,4.4-38.3,7.2-55.5-5.2c-13.5-9.7-27.6-18.6-40.3-29.1c-18.6-15.4-28.4-36.6-35.3-59.2c-1.4-4.4-2.9-8.8-4.2-13.2
			c-3.3-11.9-11.8-19.9-21-27.2c-0.9-0.7-3.1-0.4-4.3,0.1c-15.6,6.6-27.8,17.5-37.6,31.1c-8,11-13.8,23.1-17,36.3
			c-3.8,15.9,0.3,30.8,6.4,45.3c8.2,19.4,22.6,32.7,40.9,42.4c24.7,13,49.6,25.9,73.9,39.5c22.6,12.6,43.5,27.6,60.4,47.6
			c17.1,20.2,26.1,43.4,24.7,70.1c-0.2,4.3-1.1,8.6-1.7,12.9C335.3,576.9,242.3,576.9,149.3,576.9z M362.7,154.5
			c4.2,3,8.4,5.5,12.2,8.6c3.8,3.1,7,7.1,11,9.9c3.5,2.5,7.7,4.8,11.8,5.5c6.6,1.1,13.6-0.1,20.2,5.3
			C406.3,155.1,385.2,149.8,362.7,154.5z M538,250.4c-0.2-9.3-13.4-17.5-23.1-13.8C521.4,243.3,527.3,251.1,538,250.4z"/>
		<g>
			<path d="M149.3,576.9c0-2.7,0.1-5.5,0-8.2c0-1.4,0-2.7-0.1-4.1l-0.3-4.1c-0.1-1.4-0.3-2.7-0.4-4.1c-0.2-1.4-0.3-2.7-0.5-4.1
				l-0.7-4.1c-0.2-1.3-0.6-2.7-0.9-4l-0.5-2c-0.2-0.7-0.4-1.3-0.6-2l-1.2-3.9l-1.5-3.8c-0.3-0.6-0.5-1.3-0.8-1.9l-0.9-1.8
				c-0.6-1.2-1.3-2.4-1.9-3.6c-0.7-1.2-1.4-2.4-2.1-3.5c-1.4-2.3-2.9-4.6-4.4-6.9l-35.6-55.3l0.3,0.1c-1.7,0.5-3.4,0.9-5,1.7
				c-1.7,0.6-3.1,1.6-4.7,2.5l-2.1,1.6c-0.7,0.5-1.3,1.2-2,1.8c-0.3,0.3-0.6,0.6-1,0.9l-0.9,1c-0.6,0.7-1.2,1.3-1.7,2l-1.6,2.1
				l-1.4,2.2c-0.5,0.7-0.9,1.5-1.3,2.3l-1.3,2.3c-0.8,1.6-1.5,3.2-2.2,4.8l-1,2.5l-0.5,1.2l-0.4,1.3c-0.6,1.7-1.1,3.4-1.6,5.1
				c-0.2,0.9-0.5,1.7-0.7,2.6l-0.6,2.6c-0.4,1.7-0.7,3.5-1.1,5.2c-0.3,1.8-0.6,3.5-0.9,5.3l-1.3,10.6L62.7,532l-0.8,0
				c-0.3-4.7-0.7-9.5-0.9-14.2c-0.2-2.4-0.2-4.7-0.3-7.1l-0.1-3.6l0-3.6c0-2.4,0-4.7,0.1-7.1l0.2-3.6c0.1-1.2,0.1-2.4,0.2-3.6
				c0.2-2.4,0.5-4.7,0.7-7.1l1.1-7c1-4.6,2-9.3,3.6-13.8c1.6-4.5,3.6-8.9,6.1-13c1.3-2,2.6-4,4-5.9c0.4-0.5,0.7-1,1.1-1.4l1.2-1.4
				c0.8-0.9,1.6-1.8,2.2-2.7c0.6-0.9,0.8-1.9,0.5-2.9l-0.2-0.8l-0.3-0.8l-0.7-1.6c-1-2.2-2-4.3-2.9-6.5l-1.4-3.3
				c-0.5-1.1-0.9-2.2-1.3-3.3l-1.3-3.3l-1.2-3.4c-1.5-4.5-2.9-9.1-4.1-13.7c-0.6-2.3-1.1-4.6-1.7-6.9c-0.5-2.3-1-4.7-1.5-7
				c-0.1-0.6-0.2-1.1-0.5-1.6c-0.2-0.5-0.5-0.8-0.8-1c-0.7-0.4-2-0.2-3,0.1l-1.7,0.4c-0.3,0.1-0.6,0.1-0.8,0.2l-0.8,0.3
				c-0.5,0.2-1.1,0.4-1.6,0.6l-1.5,0.8c-0.5,0.3-1,0.6-1.5,0.9c-0.5,0.3-1,0.6-1.4,1c-0.9,0.8-1.8,1.5-2.6,2.3
				c-1.6,1.6-3.1,3.5-4.5,5.3c-1.3,2-2.8,3.9-3.9,5.9c-0.6,1-1.2,2-1.8,3l-1.6,3.1c-0.6,1-1.1,2.1-1.5,3.2l-1.5,3.2
				c-0.9,2.2-1.9,4.3-2.7,6.6c-1.7,4.4-3.3,8.9-5,13.3L25,431c0.3-3.3,0.6-6.6,1-10l0.6-4.9l0.3-2.5L27,413c0-0.3,0.1-0.4,0.1-0.6
				l0.2-1.2l0.9-4.9l1.1-4.9c0.3-1.6,0.8-3.3,1.2-4.9c0.4-1.6,0.8-3.2,1.4-4.8l1.6-4.8l1.8-4.7c0.6-1.6,1.3-3.1,2.1-4.6
				c0.8-1.5,1.4-3.1,2.3-4.5l2.5-4.4c0.9-1.4,1.9-2.8,2.9-4.1c0.5-0.7,0.9-1.4,1.5-2.1l1.5-2c0.5-0.7,1.1-1.3,1.6-2l0.8-1l0.9-0.9
				c0.6-0.6,1.1-1.3,1.8-1.8l1.9-1.7c0.5-0.5,1.3-1.1,1.8-1.6l0.8-0.8c0.3-0.3,0.4-0.6,0.7-0.9c0.9-1.3,1.5-2.7,1.8-4.3
				c0.2-0.8,0.2-1.6,0.3-2.3l0.1-2.4c0.1-3.3,0.1-6.6,0.3-10c0.1-3.4,0.5-6.7,0.8-10c0.2-1.7,0.5-3.3,0.7-5l0.4-2.5l0.5-2.5
				c0.3-1.6,0.6-3.3,1-4.9l1.2-4.9c0.4-1.6,0.9-3.2,1.4-4.8c0.5-1.6,0.9-3.2,1.5-4.8l1.7-4.7c0.5-1.5,1-3.1,1.6-4.7l0.6,1.3
				l-2.2-0.7c-0.7-0.2-1.4-0.5-2.2-0.7l-2.2-0.5c-0.7-0.2-1.5-0.2-2.2-0.3l-1.1-0.1c-0.4-0.1-0.8-0.1-1.1-0.1l-2.3,0
				c-0.8-0.1-1.5,0.1-2.3,0.1c-0.8,0.1-1.5,0.1-2.3,0.3c-1.5,0.3-3,0.5-4.4,1.1c-0.7,0.2-1.5,0.4-2.2,0.7l-2.1,0.9
				c-0.3,0.1-0.8,0.3-1,0.4l-1,0.5l-2.1,1.1c-0.7,0.4-1.4,0.7-2,1.1l-1.9,1.2l-1.9,1.2l-1.8,1.4c-1.2,0.9-2.5,1.8-3.6,2.9l-1.7,1.5
				c-0.6,0.5-1.1,1-1.7,1.6c-1.1,1.1-2.2,2.2-3.2,3.3l-3.1,3.5l-2.9,3.6c-1,1.2-1.9,2.5-2.8,3.7c-0.5,0.6-0.9,1.3-1.4,1.9l-0.7,1
				l-0.1,0.1l0,0c-0.1,0.1,0.2-0.2-0.2,0.2l0,0l-0.1,0c-0.1,0.1-0.2,0.1-0.3,0.2l-0.6,0.4l-2.6,1.5l1-2.8l1.9-5.3
				c0.7-1.7,1.4-3.5,2.2-5.2c0.7-1.7,1.7-3.4,2.5-5.1c0.4-0.9,0.9-1.7,1.4-2.5l1.4-2.4c2-3.2,4.2-6.3,6.6-9.2
				c1.1-1.5,2.5-2.8,3.8-4.2c1.3-1.4,2.7-2.6,4.1-3.9c0.7-0.6,1.3-1.3,2.2-1.9l2.2-1.7c1.5-1.1,2.9-2.3,4.5-3.3l4.8-3.1l4.9-2.7
				c1.6-1,3.3-1.7,5-2.5l2.5-1.2c0.8-0.4,1.7-0.7,2.6-1.1c1.7-0.7,3.4-1.5,5.2-2.2l5.2-2c3.5-1.3,7-2.6,10.5-3.8l2.6-0.9
				c0.4-0.2,0.9-0.3,1.3-0.5l0.6-0.3l0.6-0.3c1.5-0.7,3-1.7,4.2-2.9c0.3-0.3,0.5-0.6,0.8-1l0.9-1.1l1.7-2.2c1.2-1.5,2.3-2.9,3.5-4.3
				l3.7-4.2c1.3-1.4,2.6-2.7,3.9-4.1l1.9-2l2-1.9c1.4-1.3,2.7-2.6,4.1-3.9c2.8-2.5,5.5-5,8.4-7.4c2.8-2.4,5.8-4.7,8.7-7l4.4-3.4
				l2.2-1.7l2.2-1.7l-0.2,1.7c-2.5-3.3-5.8-6-9.5-7.8c-3.7-1.8-7.9-2.7-12.1-3.2l-1.6-0.1c-0.5,0-1.1-0.1-1.6-0.1
				c-1.1,0-2.2-0.1-3.2-0.1l-3.2,0c-1.1,0-2.1,0.1-3.2,0.1l-1.6,0.1l-1.6,0.1c-1.1,0.1-2.1,0.2-3.2,0.3l-3.2,0.4l-3.2,0.5
				c-1.1,0.2-2.1,0.4-3.2,0.6c-1.1,0.2-2.1,0.4-3.1,0.7c-1,0.3-2.1,0.5-3.1,0.8l-3.1,0.9c-2.1,0.6-4.1,1.2-6.2,1.9
				c-2.1,0.7-4.1,1.4-6.1,2.1c-4.1,1.5-8.1,3.1-12.1,4.8c-2,0.8-4,1.7-6,2.6c-2,0.9-4.1,1.7-6.1,2.5l-1.4-2.2
				c3.5-3.6,7.2-7.1,11.1-10.3c3.8-3.3,7.9-6.3,12.1-9.1c4.2-2.8,8.5-5.4,13.1-7.7c4.5-2.3,9.2-4.3,14-6l3.6-1.2l3.6-1.1
				c1.2-0.4,2.4-0.6,3.7-1l1.8-0.5c0.7-0.2,1.3-0.2,1.9-0.4l7.4-1.4c2.5-0.4,5-0.6,7.6-0.9c2.5-0.3,5.1-0.4,7.6-0.5
				c2.5-0.1,5.1-0.2,7.6-0.1c2.5,0.1,5.1,0.1,7.6,0.2l7.5,0.6c1.3,0.1,2.5,0.3,3.8,0.4l3.7,0.5l3.7,0.5l3.7,0.7l3.7,0.7
				c1.2,0.2,2.5,0.4,3.7,0.7l7.4,1.6c1.2,0.3,2.2,0.4,3.4,0.4c1.1,0,2.2-0.2,3-0.6l6.7-3.3c2.2-1.1,4.5-2.2,6.8-3.2
				c2.3-1,4.6-2.1,6.9-3.1l7-2.9c2.3-0.9,4.7-1.8,7-2.7l3.5-1.3l3.6-1.2c2.4-0.8,4.7-1.7,7.1-2.4l7.2-2.2c2.4-0.8,4.8-1.4,7.2-2.1
				c4.8-1.4,9.7-2.5,14.6-3.8l-0.4,2.9L265,146c-0.5-0.3-0.9-0.5-1.4-0.7l-3.2-1.3l-6.5-2.7c-2.2-0.9-4.3-1.8-6.4-2.8l-6.4-2.8
				c-2.2-0.9-4.3-1.9-6.4-2.9l-6.4-3c-4.2-2-8.4-4.2-12.6-6.3c-4.2-2.1-8.2-4.5-12.4-6.7c-4.1-2.3-8.1-4.8-12.1-7.1
				c-4-2.5-7.9-5.1-11.8-7.6l-11.5-8.2c-3.7-2.8-7.5-5.7-11.1-8.7c-3.6-3-7.2-6.1-10.6-9.3c-3.4-3.2-6.7-6.6-9.9-10
				c-3.2-3.5-6.2-7.1-9.1-10.8c-2.9-3.7-5.5-7.6-8.1-11.6c-1.2-2-2.5-4-3.6-6.1l-1.7-3.1l-1.6-3.2l-0.8-1.6l-0.7-1.7l-1.4-3.2
				c-0.9-2.1-1.7-4.4-2.6-6.6l-4.8-13.1l-0.5-1.5l1.4-0.7l1.2-0.5l1.4-0.6l0.8,1.3c1.1,1.9,2.3,3.9,3.4,5.7l3.5,5.6
				c0.6,0.9,1.2,1.9,1.8,2.8l1.9,2.7l3.8,5.3c5.4,6.9,11.1,13.7,17.5,19.8c6.2,6.3,13,11.9,19.9,17.3l5.3,3.9l2.7,1.9
				c0.8,0.6,1.8,1.2,2.7,1.8l11.1,7.3c1.8,1.3,3.8,2.3,5.7,3.4l5.7,3.3l5.7,3.3c1.9,1.1,3.9,2,5.9,3.1c3.9,2,7.8,4.1,11.8,6
				l12.1,5.5c4,1.9,8.2,3.4,12.2,5.1c4.1,1.6,8.2,3.4,12.4,4.7l12.5,4.3c4.2,1.3,8.5,2.5,12.7,3.8c2.1,0.6,4.2,1.3,6.4,1.9l6.4,1.6
				l6.4,1.6l3.2,0.8l1.6,0.4l1.6,0.3c1.1,0.2,2.2,0.5,3.2,0.7l3.2,0.5c1.1,0.2,2.2,0.3,3.2,0.4l1.6,0.2c0.5,0,1.1,0.1,1.6,0.1
				c4.3,0.4,8.7,0.2,12.9-0.4l3.2-0.5l3.1-0.8l0.8-0.2l0.4-0.1l0.3-0.1l1.6-0.6l0.8-0.3l0.7-0.3l1.4-0.6c0.9-0.4,1.8-1,2.7-1.5
				l1.3-0.9l0.6-0.4l0.3-0.2l0.3-0.3c0.8-0.7,1.7-1.4,2.4-2.2c0.7-0.7,1.3-1.5,2-2.3c1.2-1.7,2.1-3.5,2.7-5.4
				c0.6-1.9,0.7-3.9,0.6-5.9c-0.3-4-2.2-7.8-4.7-11.2l-1-1.2l-0.5-0.6l-0.5-0.6l-2.3-2.4c-0.8-0.8-1.6-1.5-2.4-2.2
				c-0.8-0.7-1.5-1.5-2.4-2.1c-1.7-1.3-3.4-2.7-5.2-3.9c-1.8-1.3-3.6-2.4-5.5-3.5c-7.5-4.4-15.6-7.9-23.8-11.2
				c-8.2-3.2-16.6-6-25.1-8.1c-2.1-0.6-4.3-1-6.4-1.6l-3.2-0.7l-3.2-0.6c-2.2-0.4-4.3-0.9-6.5-1.2l-3.3-0.5l-1.6-0.3l-0.4-0.1
				l-0.2,0c-1-0.3-0.3-0.1-0.6-0.2l-0.1-0.1c-0.3-0.1-0.5-0.4-0.8-0.6l-0.2-0.2l-0.2-0.2l-2.8-3.1l4.1-0.1l14.2-0.2
				c2.4,0,4.8,0,7.2,0.1l3.6,0.2l3.6,0.3c9.5,0.8,19,2.2,28.3,4.4c9.3,2.2,18.4,5.1,27.2,9.1c4.3,1.8,8.6,4.1,12.9,6.3l6.2,3.6
				c1,0.6,2,1.3,3,1.9l3,2c7.9,5.3,15.5,11.2,22.5,17.6c1.8,1.6,3.5,3.3,5.2,4.9l1.3,1.2l0.7,0.6l0.6,0.6l2.5,2.6l9.9,10.2l4.9,5.1
				l4.9,5.2l9.7,10.3l2.4,2.6l1.2,1.3l1.3,1.2l5.1,4.9l10.3,9.8c1.7,1.6,3.4,3.3,5.1,5.1c0.8,0.9,1.7,1.7,2.5,2.7l1.2,1.4l0.6,0.7
				l0.1,0.2l0.1,0.1l0.1,0.2l0.3,0.4l1,1.5c0.3,0.5,0.6,1.2,1,1.8l0.5,0.9l0.3,0.9c0.2,0.6,0.5,1.2,0.6,1.9c0.7,2.6,0.5,5.4-0.1,7.9
				l-0.6,1.9c-0.2,0.6-0.5,1.2-0.8,1.8l-0.4,0.9c-0.1,0.2-0.3,0.5-0.4,0.8c-0.1,0.2-0.2,0.4-0.3,0.6c-0.1,0.2-0.2,0.4-0.2,0.7
				c-0.5,1.8,0,3,1.5,4.1c0.2,0.1,0.4,0.2,0.6,0.4l0.8,0.5l1.5,0.9l3,1.8l6.1,3.6c2,1.2,4.1,2.3,6.1,3.4c1,0.6,2.1,1.1,3.1,1.6
				l3.1,1.6l1.6,0.8l1.6,0.7l3.2,1.4l6.5,2.9l13,5.5c4.4,1.8,8.7,3.6,13.1,5.6l6.5,2.9c2.2,1.2,4.2,2.1,6.4,3.4
				c2.2,1.2,4.1,2.6,6.1,4c1.9,1.5,3.9,2.9,5.6,4.6c1.9,1.6,3.5,3.3,5.2,5.1c1.6,1.8,3.2,3.6,4.7,5.5l1.1,1.4l0.3,0.4l0.1,0.1
				l0.1,0.1l0.1,0.2l0.5,0.7l1,1.5l0.5,0.7l0.5,0.8c1.3,2.1,2.5,4.3,3.4,6.6c2,4.5,3.3,9.3,3.8,14.2c0.6,4.9,0.4,9.8-0.2,14.6
				c-0.7,4.8-1.8,9.5-3.3,14.1c-1.5,4.6-3.2,8.9-4.7,13.4l-3.8-0.3c-0.5-3.2-1-6.4-1.5-9.6c-0.1-0.8-0.3-1.6-0.4-2.4l-0.4-2.3
				c-0.2-0.8-0.4-1.5-0.5-2.3l-0.6-2.3c-0.2-0.8-0.5-1.5-0.7-2.3c-0.2-0.7-0.5-1.5-0.8-2.2c-0.6-1.4-1.2-2.7-2.1-3.8
				c-0.4-0.6-0.9-1.1-1.4-1.5c-0.2-0.2-0.5-0.5-0.8-0.6c-0.3-0.2-0.5-0.4-0.8-0.6c-0.3-0.2-0.6-0.3-0.9-0.5c-0.3-0.1-0.6-0.3-1-0.4
				c-0.6-0.3-1.3-0.4-2-0.6l2.3-1.4l-6.6,24.9l-1.4,5.2l-2.3-4.9l-6.9-14.4l-1.7-3.6l-0.9-1.8l-0.2-0.5l-0.1-0.2l-0.1-0.2l-0.5-0.9
				c-0.3-0.6-0.6-1.2-0.9-1.7c-0.3-0.6-0.6-1.1-1-1.7c-0.7-1.1-1.4-2.2-2.1-3.2l-1.1-1.6l-1.2-1.5c-0.8-1-1.7-1.9-2.6-2.8
				c-0.4-0.5-0.9-0.9-1.4-1.3c-0.5-0.4-0.9-0.9-1.4-1.3c-0.5-0.4-1-0.8-1.5-1.2c-0.5-0.4-1-0.8-1.5-1.1c-1-0.7-2.1-1.3-3.2-2
				l-1.7-0.8c-0.6-0.3-1.2-0.5-1.7-0.7c-0.6-0.3-1.2-0.4-1.8-0.7l-0.9-0.3l-1-0.3l-3.9-1l2.2-3l1.2,2.1c0.4,0.7,0.8,1.4,1.1,2.1
				c0.4,0.7,0.7,1.5,1,2.2c0.3,0.7,0.6,1.5,0.9,2.3c0.3,0.8,0.5,1.6,0.7,2.3c0.2,0.8,0.4,1.6,0.5,2.4c0.2,0.8,0.2,1.6,0.4,2.4
				c0.1,0.8,0.1,1.6,0.2,2.5c0,0.8,0,1.6,0,2.5c-0.1,0.8-0.1,1.6-0.2,2.4c-0.1,0.8-0.2,1.6-0.4,2.4c-0.2,0.8-0.4,1.6-0.6,2.4
				c-0.3,0.8-0.5,1.6-0.7,2.3c-0.3,0.7-0.6,1.5-0.9,2.2c-0.3,0.7-0.6,1.5-1,2.2l-1.1,2.1l-1.7,3.3l-1.7-3.4l-1.8-3.5l-1.9-3.5
				l-2-3.4c-0.7-1.1-1.4-2.2-2.1-3.3c-0.7-1.1-1.5-2.2-2.2-3.2c-0.8-1-1.6-2.1-2.4-3.1l-2.6-3c-0.9-0.9-1.8-1.9-2.7-2.8
				c-1-0.8-1.9-1.7-2.9-2.6c-1-0.8-2-1.6-3.1-2.3c-1.1-0.7-2.1-1.5-3.3-2.1l-1.7-0.9c-0.6-0.3-1.1-0.6-1.7-0.9l-1.8-0.8
				c-0.6-0.3-1.2-0.5-1.8-0.7c-1.2-0.4-2.4-0.9-3.7-1.2c-1.3-0.3-2.5-0.7-3.8-0.9l-3.8-0.7l2.1-2.4l1.2,4.8l1,4.9l0.8,4.9l0.5,5
				l0.3,5l0.1,5l-0.2,5l-0.4,5l-0.4,5.5l-3.1-4.6l-5.6-8.3l-2.8-4.1c-0.9-1.4-1.9-2.7-2.8-4.1l-2.8-4l-3-3.9l-1.5-1.9
				c-0.4-0.6-1.1-1.2-1.6-1.9l-3.3-3.8c-1.1-1.3-2.2-2.4-3.4-3.6c-1.1-1.2-2.2-2.4-3.4-3.5l-3.5-3.5c-1.2-1.2-2.4-2.3-3.6-3.4
				l-3.6-3.3c-0.7-0.5-1.3-1.1-1.9-1.4c-0.5-0.4-1.3-0.7-1.9-1c-1.4-0.6-2.9-1.2-4.4-1.7c-1.5-0.5-3.1-0.9-4.7-1.4l2.2-2.7l2.3,5
				l2,5.2l0.8,2.7c0.3,0.9,0.5,1.8,0.8,2.7l0.6,2.7c0.2,0.9,0.4,1.8,0.5,2.7l0.4,2.7c0.1,0.9,0.3,1.8,0.3,2.8l0.1,2.8
				c0,0.9,0.1,1.8,0.1,2.8l-0.1,2.8c0,0.9,0,1.8-0.1,2.8l-0.5,5.5l-3.7,0.4l-1.8-4.5c-0.3-0.8-0.6-1.5-1-2.2l-1.1-2.2
				c-0.4-0.7-0.7-1.5-1.1-2.1l-1.2-2.1l-1.2-2.1c-0.4-0.7-0.9-1.3-1.4-2c-0.9-1.3-1.8-2.6-2.9-3.8l-1.6-1.8l-0.8-0.9l-0.9-0.9
				c-1.2-1.1-2.2-2.3-3.5-3.4c-1.2-1-2.4-2.1-3.7-3.1l-3.9-2.9c-1.3-0.9-2.7-1.8-4.1-2.7c-1.4-0.8-2.7-1.6-4.2-2.4
				c-1.4-0.7-2.9-1.5-4.3-2.1l-2.2-1l-2.3-0.9c-1.5-0.6-3-1.1-4.6-1.6c-1.5-0.5-3.1-0.9-4.7-1.4c-1.6-0.4-3.2-0.7-4.7-1.1l1.9-2.9
				l9.1,12.7l9.3,12.4l9.9,12c3.2,4.1,6.7,7.9,10.2,11.8l5.2,5.8c0.9,1,1.7,2,2.6,2.9l2.7,2.8l10.8,11.1c3.7,3.6,7.6,7.1,11.3,10.6
				l2.8,2.6l1.4,1.3c0.4,0.4,1,0.8,1.5,1.2c1,0.8,2,1.7,3,2.5l3,2.3c4.1,3,8.4,5.9,12.9,8.3c4.5,2.4,9.1,4.6,13.9,6.3
				c4.8,1.8,9.7,3.1,14.7,4.1c2.5,0.5,5,0.8,7.6,1.2c2.5,0.2,5.1,0.5,7.6,0.6c1.3,0.1,2.6,0.1,3.8,0.1l3.9,0l3.9,0l1.9,0l2,0.1
				l4,0.2c1.3,0.1,2.6,0.3,3.9,0.4c2.6,0.2,5.2,0.8,7.8,1.2l0.5,0.1l0.2,0l0.1,0l0.1,0l0.2,0l0.9,0.2l1.9,0.5
				c0.6,0.1,1.3,0.4,1.9,0.7l2,0.8c1.3,0.5,2.4,1.2,3.7,1.8c1.2,0.7,2.3,1.4,3.4,2.1c4.4,3.1,8.4,6.8,11.6,11.3l-2.3,2.6l-5.7-2.9
				l-5.9-2.5l-6-2.1l-6.2-1.6l-3.1-0.6c-1-0.2-2.1-0.4-3.1-0.6l-3.2-0.3c-1.1-0.1-2.1-0.2-3.2-0.3l-3.2,0c-1.1,0-2.1,0-3.2,0
				l-6.4,0.4l0.3-3.5l6.6,2l3.3,1c1.1,0.4,2.2,0.6,3.3,1c1.1,0.4,2.2,0.7,3.3,1.2c1.1,0.4,2.2,1,3.3,1.5c1.1,0.5,2.1,1.1,3.1,1.7
				c1,0.6,2,1.3,3,2c1,0.7,1.9,1.5,2.8,2.2c0.5,0.4,0.9,0.8,1.3,1.2c0.4,0.4,0.9,0.8,1.3,1.3l1.2,1.3l1.1,1.4
				c0.8,0.9,1.4,1.9,2.1,2.9c0.6,1,1.3,2,1.8,3.1l0.8,1.6c0.3,0.5,0.5,1.1,0.8,1.6c0.5,1.1,0.9,2.2,1.4,3.3c0.4,1.1,0.8,2.2,1.2,3.3
				l1.8,5.1l-4.5-3.2l-0.8-0.5c-0.1-0.1-0.3-0.2-0.5-0.3c-0.1-0.1-0.2-0.1-0.3-0.2c-0.1-0.1-0.3-0.3-0.4-0.4l-1.2-1.6
				c-0.8-1.1-1.7-2-2.5-2.9c-1.8-1.9-3.6-3.7-5.6-5.3c-4-3.3-8.5-5.9-13.3-7.9c-4.8-2-9.8-3.3-15-4.2l-7.9-1.2c-2.7-0.5-5.4-1-8-1.6
				c-5.3-1.2-10.5-2.8-15.5-4.6c-5.1-1.9-10-4-14.9-6.4c-4.8-2.4-9.5-5.1-14.1-8c-4.5-2.9-9-6-13.2-9.3c-0.5-0.4-1-0.8-1.6-1.3
				l-1.5-1.3l-3.1-2.6c-2-1.7-4.1-3.4-6.1-5.1l-6-5.4c-1-0.9-2-1.8-3-2.7l-2.9-2.7l-5.9-5.5l-5.8-5.5c-3.9-3.7-7.7-7.5-11.5-11.2
				l-11.4-11.2l-5.7-5.6l-5.7-5.7L338,256.6l-5.7-5.7l-1.4-1.4l-0.4-0.4l-0.3-0.3c-0.2-0.2-0.5-0.5-0.7-0.7
				c-0.8-0.7-1.8-1.2-2.9-1.7l2.1-1.9l1.3,6.7l1.5,6.5l0.2,0.8l0.3,0.8l0.5,1.6c0.3,1.1,0.7,2.2,1,3.2l1.1,3.1
				c0.4,1,0.8,2.1,1.2,3.1l1.3,3.1c0.4,1,0.9,2,1.3,3.1c0.9,2.1,1.9,4.1,2.9,6.1c1,2,2.1,4,3.1,6c1.1,1.9,2.2,3.9,3.3,5.8l1.7,2.9
				l0.4,0.7l0.1,0.1l0,0l0,0c0,0-0.1-0.1,0-0.1l0.1,0.2l0.2,0.3l1,1.4l0.5,0.7c0.2,0.2,0.3,0.4,0.5,0.6l1,1.2
				c0.3,0.4,0.7,0.8,1.1,1.1l1.2,1.1c0.8,0.7,1.7,1.4,2.5,2.1c0.9,0.7,1.8,1.3,2.7,1.9l2.8,1.7l2.9,1.6c1,0.5,2,1.1,2.9,1.5l3.1,1.4
				l6.2,2.8c2,1,4.1,1.8,6.2,2.7l6.2,2.7l4.7,2l-5,0.9c-4.6,0.8-9.3,2.2-14.3,2.6c-0.6,0-1.2,0.1-1.9,0.1c-0.6,0-1.3,0-1.9,0
				c-0.6,0-1.3,0-1.9-0.1c-0.6-0.1-1.3-0.1-1.9-0.2c-0.6-0.1-1.3-0.2-1.9-0.4c-0.6-0.2-1.2-0.3-1.8-0.5c-0.6-0.2-1.2-0.4-1.8-0.7
				l-1.7-0.8l2.1-1.8c0.4,1.1,0.8,2.3,1.2,3.4c0.4,1.1,1,2.2,1.5,3.3c0.6,1.1,1.1,2.2,1.7,3.2c0.6,1.1,1.3,2,2,3l1.1,1.4
				c0.4,0.5,0.8,0.9,1.2,1.3c0.4,0.5,0.8,0.9,1.3,1.3c0.4,0.4,0.8,0.8,1.3,1.2c0.5,0.4,0.9,0.8,1.4,1.1l1.5,1c1,0.6,2,1.2,3.1,1.7
				c1.1,0.5,2.2,0.9,3.3,1.3c1.2,0.3,2.3,0.6,3.5,0.8c1.1,0.2,2.4,0.3,3.7,0.5l3.7,0.4l3.7,0.4c1.2,0.2,2.5,0.4,3.7,0.6l7.5,1.2
				l5.4,0.9l-5.2,1.9l-23.9,8.8l0.4-2.5c0.7,0.5,1.4,1.1,2.2,1.5c0.8,0.5,1.5,1,2.3,1.4c0.8,0.4,1.6,0.8,2.4,1.2
				c0.8,0.4,1.6,0.7,2.5,1l1.3,0.5l1.3,0.4l1.3,0.4l1.3,0.3c0.9,0.2,1.8,0.5,2.6,0.6c0.9,0.2,1.8,0.4,2.7,0.4
				c0.9,0.1,1.8,0.3,2.7,0.3c0.9,0,1.8,0.1,2.7,0.1c0.9,0,1.8,0,2.7-0.1c0.9-0.1,1.8-0.1,2.7-0.3c0.9-0.2,1.8-0.3,2.6-0.5
				c0.9-0.2,1.7-0.4,2.6-0.7c0.8-0.3,1.7-0.6,2.5-0.9l2.4-1.2l2.7-1.3l-0.6,2.7c-0.1,0.5-0.2,1.1-0.4,1.6c-0.2,0.5-0.4,1-0.6,1.5
				c-0.5,0.9-1,1.8-1.7,2.6c-0.3,0.4-0.6,0.8-1,1.2c-0.3,0.4-0.7,0.7-1.1,1.1c-0.4,0.4-0.7,0.7-1.1,1c-0.4,0.3-0.8,0.6-1.2,0.9
				c-0.8,0.6-1.6,1.2-2.4,1.7c-0.8,0.5-1.7,1-2.5,1.5c-0.8,0.5-1.7,0.9-2.6,1.3c-0.9,0.4-1.7,0.8-2.6,1.2l-0.3-2.6l26.5,4.6l0.1,2.6
				c-6.9,1.5-13.9,2.9-21.1,3.5c-3.6,0.2-7.2,0.4-10.8,0c-3.6-0.3-7.2-0.9-10.7-2c-0.9-0.2-1.7-0.6-2.6-0.9l-1.3-0.5
				c-0.4-0.2-0.8-0.4-1.2-0.6c-0.8-0.4-1.7-0.7-2.5-1.1l-2.4-1.3c-0.8-0.4-1.5-1-2.3-1.4c-0.7-0.5-1.5-1-2.2-1.5l-4.3-3.1L360.5,366
				l-8.6-6.2l-8.4-6.5l-1-0.8c-0.4-0.3-0.7-0.6-1-0.9l-2-1.7c-1.3-1.2-2.6-2.5-3.9-3.7c-2.5-2.6-4.9-5.2-7-8.1
				c-4.4-5.7-8.1-11.8-11.3-18.2c-3.2-6.4-5.8-13-8.1-19.7c-1.2-3.3-2.2-6.8-3.3-10.1c-1.1-3.3-2.1-6.7-3.2-10.1
				c-1.8-6.7-5.4-12.7-10.1-17.7c-2.4-2.5-4.9-4.9-7.6-7.1l-2-1.7l-1-0.8c0.2,0.2,0,0,0,0l-0.1-0.1c-0.1-0.1-0.1-0.1-0.2-0.1
				c0,0,0,0-0.1,0l-0.2,0c-0.7-0.1-1.5,0.1-2.2,0.3c-0.2,0.1-0.4,0.1-0.5,0.2l-0.6,0.3l-1.2,0.6l-2.4,1.1c-0.8,0.4-1.6,0.7-2.3,1.2
				c-1.5,0.9-3,1.7-4.5,2.6l-4.3,2.9c-1.4,1-2.8,2.1-4.1,3.2c-5.4,4.4-10.3,9.5-14.6,14.9c-1.1,1.4-2.2,2.8-3.2,4.2
				c-1,1.5-2,2.9-3,4.4c-0.9,1.5-1.9,2.9-2.7,4.4c-0.8,1.5-1.8,3-2.5,4.6c-3.2,6.2-5.8,12.7-7.6,19.5c-1,3.4-1.6,6.8-1.9,10.2
				c-0.3,3.4-0.3,6.9,0,10.4c0.6,6.9,2.5,13.7,4.9,20.3c0.6,1.6,1.2,3.3,1.9,4.9l0.5,1.2l0.2,0.6l0.3,0.6l1.1,2.4
				c1.5,3.1,3.1,6.2,5.1,9.1c0.5,0.7,0.9,1.5,1.5,2.2c0.5,0.7,1,1.4,1.5,2.1c1.1,1.4,2.1,2.8,3.3,4.1c1.1,1.3,2.3,2.6,3.5,3.9
				c1.3,1.2,2.5,2.5,3.8,3.6c5.2,4.7,11,8.7,17,12.2c3,1.7,6.2,3.3,9.3,5l9.4,4.9l18.7,9.9c12.4,6.7,24.8,13.5,37.2,20.2
				c12.4,6.8,24.4,14.3,35.6,23.1l4.1,3.3c1.4,1.1,2.8,2.2,4.1,3.4l4,3.5l2,1.8l1.9,1.9c2.5,2.5,5.1,4.9,7.4,7.6l3.5,4
				c1.2,1.3,2.2,2.7,3.4,4.1c8.8,11.1,15.5,24,19.1,37.7c1.8,6.9,2.7,14,2.9,21c0,1.8,0.1,3.5,0,5.3l-0.1,2.7
				c-0.1,0.9-0.1,1.8-0.2,2.7c-0.4,3.5-1,7-1.5,10.5l-0.1,0.4l-0.4,0L149.3,576.9z M149.3,576.9l279-0.5l-0.5,0.4
				c0.5-3.5,1.1-7,1.5-10.5c0.1-0.9,0.2-1.8,0.2-2.6l0.1-2.6c0.1-1.8,0-3.5,0-5.3c-0.2-7-1.2-14-3-20.8c-3.5-13.6-10.3-26.3-19-37.2
				c-8.9-10.9-19.1-20.7-30.2-29.3c-11.1-8.6-23.1-16.1-35.5-22.8c-12.4-6.7-24.8-13.5-37.3-20.1l-18.8-9.8l-9.4-4.9
				c-3.1-1.6-6.3-3.3-9.4-5c-6.2-3.5-12.1-7.6-17.4-12.3c-1.4-1.2-2.6-2.4-3.9-3.7c-1.2-1.3-2.5-2.6-3.6-3.9
				c-1.2-1.3-2.3-2.8-3.4-4.2c-0.5-0.7-1-1.5-1.6-2.2c-0.5-0.7-1-1.5-1.5-2.2c-2-3-3.7-6.1-5.3-9.4l-1.1-2.4l-0.3-0.6l-0.3-0.6
				l-0.5-1.2c-0.7-1.6-1.3-3.3-1.9-5c-2.5-6.7-4.4-13.6-5.1-20.8c-0.3-3.6-0.4-7.2,0-10.8c0.3-3.6,1-7.1,2-10.6
				c1.8-6.9,4.5-13.6,7.7-19.9c0.8-1.6,1.7-3.1,2.6-4.7c0.9-1.6,1.9-3,2.8-4.6c1-1.5,2-2.9,3-4.4c1.1-1.5,2.2-2.8,3.2-4.3
				c4.4-5.6,9.4-10.8,14.9-15.3c1.4-1.1,2.8-2.2,4.2-3.3l4.4-3c1.5-0.9,3.1-1.8,4.7-2.7c0.8-0.5,1.6-0.8,2.4-1.2l2.4-1.1l1.2-0.6
				l0.6-0.3c0.3-0.1,0.5-0.2,0.8-0.3c1-0.3,2-0.5,3.1-0.4l0.4,0c0.2,0,0.4,0.1,0.5,0.2c0.2,0.1,0.4,0.1,0.4,0.2l0.1,0.1
				c0.1,0.1,0,0,0.3,0.2l1,0.8l2.1,1.7c2.7,2.3,5.4,4.7,7.8,7.3c4.9,5.2,8.9,11.6,10.7,18.6c1,3.4,2.1,6.7,3.2,10.1
				c1.1,3.4,2.1,6.7,3.3,10c4.6,13.2,10.5,26.1,19.1,37.1c2.1,2.8,4.5,5.4,6.9,7.9c1.3,1.2,2.4,2.4,3.8,3.6l2,1.7
				c0.3,0.3,0.7,0.6,1,0.8l1,0.8l8.3,6.5l8.6,6.2l17.4,12.1l4.3,3c0.7,0.5,1.4,1,2.2,1.5c0.7,0.5,1.4,1,2.2,1.4l2.3,1.2
				c0.8,0.4,1.6,0.7,2.3,1.1c0.4,0.2,0.8,0.4,1.2,0.5l1.2,0.4c0.8,0.3,1.6,0.6,2.4,0.8c3.3,1,6.7,1.6,10.1,1.9
				c3.4,0.3,6.9,0.2,10.4-0.1c6.9-0.6,13.8-2,20.7-3.5l0.1,2.6l-26.5-4.5l-4.2-0.7l3.9-1.9c0.8-0.4,1.7-0.8,2.5-1.2
				c0.8-0.4,1.6-0.8,2.4-1.3c0.8-0.5,1.6-0.9,2.3-1.4c0.8-0.5,1.5-1,2.2-1.6c0.4-0.3,0.7-0.5,1.1-0.8c0.3-0.3,0.7-0.6,1-0.9
				c0.3-0.3,0.6-0.6,0.9-0.9c0.3-0.3,0.6-0.6,0.8-1c0.5-0.7,1-1.4,1.4-2.1c0.2-0.4,0.3-0.7,0.5-1.1c0.2-0.4,0.2-0.8,0.3-1.2l2,1.4
				l-2.6,1.3c-0.9,0.4-1.8,0.7-2.7,1c-0.9,0.3-1.9,0.5-2.8,0.8c-0.9,0.2-1.9,0.3-2.9,0.5c-1,0.2-1.9,0.2-2.9,0.3
				c-1,0.1-1.9,0.1-2.9,0.1c-1,0-1.9-0.1-2.9-0.1c-1,0-1.9-0.2-2.9-0.3c-1-0.1-1.9-0.3-2.8-0.5c-0.9-0.2-1.9-0.4-2.8-0.6l-1.4-0.4
				l-1.4-0.4L397,369l-1.3-0.5c-0.9-0.3-1.8-0.7-2.7-1.1c-0.9-0.4-1.7-0.8-2.6-1.3c-0.9-0.4-1.7-1-2.5-1.5c-0.8-0.5-1.6-1.1-2.4-1.7
				l-2.2-1.5l2.6-1l23.9-8.9l0.2,2.8l-7.3-1.2c-1.2-0.2-2.4-0.4-3.7-0.6l-3.7-0.4l-3.7-0.4c-1.3-0.2-2.5-0.3-3.8-0.5
				c-1.3-0.2-2.6-0.5-3.8-0.8c-1.2-0.4-2.5-0.8-3.7-1.4c-1.2-0.5-2.4-1.2-3.5-1.9l-1.6-1.1c-0.5-0.4-1-0.8-1.5-1.2
				c-0.5-0.4-1-0.9-1.5-1.3c-0.5-0.4-1-0.9-1.4-1.4c-0.4-0.5-0.9-1-1.3-1.5l-1.2-1.5c-0.7-1.1-1.5-2.1-2.2-3.2
				c-0.7-1.1-1.3-2.3-1.9-3.4c-0.5-1.2-1.1-2.3-1.6-3.5c-0.5-1.2-0.9-2.4-1.3-3.6l-1.2-3.3l3.3,1.5l1.5,0.7c0.5,0.2,1.1,0.4,1.6,0.6
				c0.5,0.2,1.1,0.3,1.6,0.5c0.5,0.2,1.1,0.2,1.6,0.3c0.5,0.1,1.1,0.1,1.7,0.2c0.6,0.1,1.1,0.1,1.7,0.1c0.6,0,1.1,0,1.7,0
				c0.6,0,1.1-0.1,1.7-0.1c4.6-0.4,9.2-1.7,14-2.6l-0.3,2.9l-6.3-2.7c-2.1-0.9-4.2-1.7-6.2-2.7l-6.2-2.8l-3.1-1.4
				c-1.1-0.5-2.1-1.1-3.1-1.6l-3-1.7l-3-1.8c-1-0.7-1.9-1.3-2.9-2c-0.9-0.7-1.9-1.4-2.7-2.2l-1.3-1.2c-0.4-0.4-0.9-0.8-1.3-1.3
				l-1.2-1.4c-0.2-0.2-0.4-0.5-0.6-0.7l-0.5-0.7l-1-1.4l-0.2-0.3l-0.1-0.2l-0.2-0.3l-0.4-0.7l-1.8-2.9c-1.2-2-2.3-4-3.4-5.9
				c-1.1-2-2.2-4-3.2-6.1c-1-2-2-4.1-2.9-6.2c-0.5-1-1-2.1-1.4-3.1l-1.3-3.2c-0.4-1.1-0.8-2.1-1.2-3.2l-1.2-3.3
				c-0.4-1.1-0.7-2.2-1-3.2l-0.5-1.6l-0.3-0.8l-0.2-0.9c-0.5-2.2-1.1-4.5-1.6-6.7l-1.4-6.6l-0.6-3l2.7,1.1c1.4,0.6,2.8,1.2,4,2.3
				c0.3,0.3,0.5,0.5,0.8,0.7l0.4,0.4l0.4,0.4l1.4,1.4l5.7,5.7l11.3,11.3l5.7,5.7l5.7,5.6l11.4,11.2c3.8,3.7,7.6,7.5,11.4,11.2
				l5.8,5.5l5.8,5.5l2.9,2.7c1,0.9,2,1.8,3,2.7l5.9,5.3c2,1.8,4.1,3.4,6.1,5.1l3.1,2.5l1.5,1.3c0.5,0.4,1,0.8,1.5,1.2
				c4.2,3.2,8.5,6.3,13,9.1c4.5,2.8,9,5.5,13.8,7.8c4.7,2.4,9.6,4.5,14.5,6.3c4.9,1.8,10,3.3,15.1,4.5c2.6,0.6,5.1,1.1,7.7,1.6
				l7.9,1.2c5.4,0.9,10.7,2.3,15.8,4.4c5.1,2.1,9.9,4.9,14.1,8.4c2.2,1.7,4.1,3.6,6,5.6c0.9,1,1.9,2.1,2.7,3.1l1.3,1.6c0,0,0,0,0,0
				c0,0,0.1,0,0.1,0.1c0.1,0,0.2,0.1,0.3,0.2l0.9,0.6l-2.7,1.9c-0.4-1-0.7-2.1-1.1-3.1c-0.4-1-0.8-2.1-1.3-3.1
				c-0.2-0.5-0.5-1-0.7-1.5l-0.8-1.5c-0.5-1-1.1-1.9-1.7-2.8c-0.7-0.9-1.2-1.8-2-2.6l-1-1.3l-1.1-1.2c-0.4-0.4-0.8-0.8-1.2-1.2
				c-0.4-0.4-0.8-0.8-1.2-1.1c-0.8-0.7-1.7-1.4-2.6-2c-0.9-0.7-1.8-1.2-2.7-1.8c-0.9-0.6-1.9-1.1-2.9-1.6c-1-0.5-2-1-3-1.4
				c-1-0.4-2.1-0.8-3.1-1.2c-1-0.4-2.2-0.7-3.2-1l-3.3-1l-6.6-2l0.3-3.5l6.6-0.4c1.1,0,2.2,0,3.3,0l3.3,0.1c1.1,0.1,2.2,0.2,3.3,0.3
				l3.3,0.3c1.1,0.2,2.2,0.4,3.3,0.6l3.3,0.6l6.4,1.7l6.3,2.2l6.1,2.6l5.9,3l-2.3,2.6c-2.8-4-6.5-7.6-10.6-10.4
				c-1.1-0.6-2.1-1.4-3.2-2c-1.1-0.5-2.2-1.2-3.3-1.6l-1.7-0.7c-0.6-0.2-1.1-0.5-1.7-0.6l-1.9-0.5l-0.9-0.2l-0.8-0.1
				c-2.5-0.4-5-0.9-7.6-1.1c-1.3-0.1-2.5-0.3-3.8-0.4l-3.8-0.2l-1.9-0.1l-1.9,0l-3.9,0l-3.9,0c-1.3,0-2.6,0-4-0.1
				c-2.6-0.1-5.3-0.3-7.9-0.6c-2.6-0.4-5.2-0.7-7.8-1.2c-5.2-1-10.3-2.4-15.3-4.2c-5-1.8-9.8-4-14.4-6.5c-4.6-2.6-9.1-5.5-13.3-8.6
				l-3.1-2.4c-1-0.8-2-1.7-3-2.5c-0.5-0.4-1-0.8-1.5-1.3l-1.4-1.3l-2.9-2.7c-3.8-3.6-7.7-7.1-11.5-10.7l-10.9-11.2l-2.7-2.8
				c-0.9-0.9-1.7-1.9-2.6-2.9l-5.2-5.9c-3.5-3.9-7-7.8-10.2-11.8l-9.9-12.1l-9.4-12.6l-9.1-12.7l-2.9-4.1l4.8,1.1
				c1.6,0.4,3.3,0.7,4.9,1.2c1.6,0.5,3.3,0.9,4.9,1.4c1.6,0.5,3.2,1.1,4.8,1.7l2.4,0.9l2.3,1c1.6,0.7,3,1.5,4.5,2.2
				c1.5,0.8,3,1.7,4.4,2.5c1.4,0.9,2.8,1.7,4.2,2.7l4.1,3c1.3,1.1,2.6,2.2,3.9,3.3c1.3,1.1,2.4,2.4,3.6,3.6l0.9,0.9l0.8,1l1.7,1.9
				c1.1,1.3,2.1,2.7,3.1,4.1c0.5,0.7,1,1.4,1.5,2.1l1.3,2.2l1.3,2.2c0.5,0.7,0.8,1.5,1.2,2.3l1.1,2.3c0.4,0.8,0.7,1.5,1,2.3l1.9,4.7
				l-3.7,0.4l0.5-5.2c0.1-0.9,0.1-1.7,0.1-2.6l0.1-2.6c0-0.9-0.1-1.7-0.1-2.6l-0.1-2.6c0-0.9-0.2-1.7-0.3-2.6l-0.3-2.6
				c-0.1-0.9-0.4-1.7-0.5-2.6l-0.5-2.6c-0.2-0.8-0.5-1.7-0.7-2.5l-0.7-2.5l-1.9-4.9l-2.2-4.8l-1.8-3.9l4.1,1.2
				c3.2,0.9,6.4,1.8,9.7,3.2c1.5,0.7,3.4,1.9,4.6,2.9l0.1,0.1l0.2,0.1l0.1,0.1l0.2,0.2l0.5,0.4l0.9,0.8l1.8,1.7
				c1.2,1.1,2.5,2.2,3.7,3.4l3.6,3.5c1.2,1.1,2.3,2.4,3.5,3.6c1.1,1.2,2.4,2.4,3.4,3.7l3.3,3.8c0.6,0.7,1.1,1.2,1.6,1.9l1.5,2l3.1,4
				l2.9,4.1c1,1.4,1.9,2.7,2.8,4.1l2.8,4.2l5.5,8.2l-3.5,0.9l0.4-4.8l0.2-4.8l-0.1-4.8l-0.3-4.8l-0.5-4.8l-0.7-4.8l-0.9-4.7
				l-1.1-4.7l-0.7-2.9l2.8,0.5l4.1,0.7c1.4,0.3,2.7,0.7,4,1c1.3,0.3,2.6,0.9,4,1.3c0.7,0.2,1.3,0.5,1.9,0.8l1.9,0.8
				c0.6,0.3,1.3,0.6,1.9,0.9l1.8,1c1.2,0.7,2.4,1.5,3.5,2.2c1.2,0.8,2.2,1.7,3.3,2.5c1.1,0.9,2.1,1.8,3.1,2.7c1,1,1.9,2,2.9,3
				l2.7,3.1c0.8,1.1,1.7,2.2,2.5,3.3c0.8,1.1,1.6,2.2,2.3,3.4c0.7,1.2,1.5,2.3,2.2,3.5l2.1,3.5l1.9,3.6l1.8,3.6l-3.5-0.1l1-2
				c0.3-0.7,0.6-1.3,0.9-2c0.3-0.7,0.5-1.4,0.8-2c0.3-0.7,0.4-1.4,0.7-2.1c0.2-0.7,0.3-1.4,0.5-2.1c0.2-0.7,0.2-1.4,0.4-2.1
				c0.1-0.7,0.1-1.4,0.2-2.1l0-2.1c-0.1-0.7-0.1-1.4-0.1-2.1c-0.1-0.7-0.2-1.4-0.3-2.1c-0.2-0.7-0.3-1.4-0.5-2.1
				c-0.2-0.7-0.4-1.4-0.6-2.1c-0.3-0.7-0.5-1.4-0.8-2c-0.3-0.7-0.6-1.3-0.9-2c-0.3-0.6-0.7-1.3-1-1.9l-1.1-1.9l-2.5-4.2l4.8,1.3
				l3.9,1l1,0.3l1,0.4c0.7,0.2,1.3,0.4,2,0.7c0.6,0.3,1.3,0.5,1.9,0.8l1.9,0.9c1.2,0.7,2.5,1.4,3.6,2.2c0.6,0.4,1.1,0.8,1.7,1.2
				c0.6,0.4,1.1,0.9,1.6,1.3c0.5,0.4,1.1,0.9,1.6,1.4c0.5,0.5,1,0.9,1.5,1.5c1,1,1.9,2,2.8,3.1l1.3,1.6l1.2,1.7
				c0.8,1.1,1.5,2.3,2.3,3.5c0.4,0.6,0.7,1.2,1.1,1.8c0.4,0.6,0.7,1.2,1,1.8l0.5,0.9l0.1,0.2l0.1,0.3l0.2,0.5l0.9,1.8l1.7,3.6
				l7,14.5l-3.7,0.3l6.6-24.9l0.5-1.9l1.8,0.4c0.9,0.2,1.8,0.4,2.6,0.7c0.4,0.1,0.9,0.3,1.3,0.5c0.4,0.2,0.8,0.4,1.2,0.7
				c0.4,0.2,0.8,0.5,1.2,0.8c0.4,0.3,0.7,0.6,1.1,0.9c0.7,0.6,1.3,1.3,1.9,2.1c1.1,1.5,1.9,3.1,2.6,4.7c0.3,0.8,0.6,1.6,0.9,2.4
				c0.3,0.8,0.5,1.6,0.7,2.4l0.6,2.4c0.2,0.8,0.4,1.6,0.6,2.4l0.4,2.4c0.1,0.8,0.3,1.6,0.4,2.4c0.5,3.2,1,6.4,1.5,9.6l-3.8-0.3
				c1.6-4.4,3.2-8.9,4.7-13.3c1.4-4.4,2.5-8.9,3.1-13.5c0.6-4.5,0.7-9.1,0.2-13.6c-0.5-4.5-1.7-8.9-3.5-13.1c-0.9-2.1-2-4.1-3.1-6
				l-0.4-0.7l-0.5-0.7l-1-1.5l-0.5-0.7l-0.1-0.2c0,0,0,0,0,0l-0.1-0.1l-0.3-0.3l-1.1-1.4c-1.4-1.9-3-3.5-4.5-5.3
				c-1.6-1.6-3.2-3.3-5-4.8c-1.7-1.6-3.5-2.9-5.3-4.4c-1.9-1.3-3.8-2.7-5.7-3.8c-1.9-1.2-4.1-2.3-6.1-3.3l-6.4-2.9
				c-4.3-2-8.6-3.8-13-5.6l-13.1-5.5l-6.5-2.9l-3.2-1.4l-1.6-0.7l-1.6-0.8l-3.2-1.6c-1.1-0.5-2.1-1.1-3.2-1.7
				c-2.1-1.2-4.2-2.3-6.2-3.5l-6.1-3.6l-3-1.8l-1.5-0.9l-0.8-0.5c-0.3-0.2-0.6-0.4-0.9-0.6c-1.2-0.8-2.3-2.1-2.9-3.6
				c-0.3-0.8-0.4-1.6-0.4-2.4c0-0.8,0.1-1.6,0.3-2.3c0.1-0.4,0.2-0.7,0.3-1c0.1-0.3,0.3-0.7,0.4-1l0.4-0.8l0.3-0.7
				c0.2-0.5,0.5-1,0.6-1.4l0.5-1.5c0.4-2,0.6-4.1,0.1-6.1c-0.1-0.5-0.3-1-0.5-1.5l-0.2-0.7l-0.3-0.7c-0.2-0.4-0.4-0.9-0.7-1.4
				l-1-1.5l-0.3-0.4c0,0-0.1-0.2,0,0l-0.1-0.1l-0.1-0.2l-0.6-0.7l-1.1-1.3c-0.7-0.9-1.6-1.7-2.3-2.5c-1.6-1.7-3.3-3.3-5-5l-10.3-9.8
				l-5.1-4.9l-1.3-1.2l-1.3-1.3l-2.4-2.6l-9.7-10.3l-4.9-5.2l-4.9-5.1l-9.8-10.2l-2.5-2.6l-0.6-0.6l-0.6-0.6l-1.3-1.2
				c-1.7-1.6-3.4-3.3-5.1-4.8c-6.9-6.3-14.3-12.1-22.1-17.3l-2.9-1.9c-1-0.6-1.9-1.3-3-1.9l-6.1-3.5c-4.1-2.1-8.2-4.3-12.6-6.2
				c-8.5-3.8-17.4-6.7-26.5-8.8c-9.1-2.1-18.4-3.5-27.7-4.4l-3.5-0.3l-3.5-0.2c-2.3-0.1-4.7-0.1-7-0.1l-14.2,0.2l1.3-3.2
				c0.1,0.1,0.3,0.3,0.4,0.4l0.1,0.1c-0.1-0.1-0.3-0.2-0.5-0.3c-0.1,0,0,0,0,0c-0.2,0,0.5,0.2-0.4-0.1l0.2,0l0.4,0.1l1.7,0.3
				l3.3,0.5c2.2,0.3,4.4,0.8,6.6,1.2l3.3,0.6l3.3,0.8c2.2,0.5,4.4,1,6.5,1.6c8.7,2.2,17.2,5,25.6,8.3c8.3,3.3,16.5,6.9,24.3,11.5
				c1.9,1.2,3.9,2.3,5.7,3.7c1.9,1.2,3.7,2.7,5.4,4.1c0.9,0.7,1.7,1.5,2.6,2.3c0.8,0.8,1.8,1.5,2.5,2.4l2.3,2.4l0.6,0.7l0.6,0.7
				l1.1,1.4c2.8,3.7,5,8.2,5.4,13.1c0.2,2.4,0,4.9-0.7,7.3c-0.7,2.3-1.9,4.5-3.3,6.5c-1.4,1.9-3.3,3.7-4.9,5.1l-0.3,0.3
				c0,0-0.1,0.1-0.1,0.1l-0.1,0.1l-0.2,0.1l-0.7,0.5l-1.4,1c-1,0.6-2,1.2-3.1,1.7l-1.6,0.7l-0.8,0.4l-0.8,0.3l-1.6,0.6l-0.5,0.2
				l-0.4,0.1l-0.8,0.2l-3.3,0.8l-3.4,0.6c-4.5,0.6-9.1,0.8-13.7,0.4c-0.6,0-1.1-0.1-1.7-0.1l-1.7-0.2c-1.1-0.1-2.3-0.2-3.4-0.4
				l-3.4-0.6c-1.1-0.2-2.2-0.5-3.3-0.7l-1.6-0.3l-1.7-0.4l-3.2-0.8l-6.5-1.6l-6.5-1.6c-2.1-0.6-4.3-1.3-6.4-1.9
				c-4.3-1.3-8.6-2.5-12.8-3.9l-12.6-4.4c-4.2-1.4-8.3-3.2-12.5-4.8c-4.1-1.7-8.3-3.2-12.4-5.1l-12.2-5.5c-4-2-7.9-4.1-11.9-6.1
				c-2-1-4-2-5.9-3.1l-5.8-3.4l-5.8-3.4c-1.9-1.1-3.9-2.2-5.7-3.5L167,72.4c-0.9-0.6-1.8-1.2-2.8-1.9l-2.7-2l-5.4-4
				c-7-5.5-14-11.2-20.3-17.6c-6.5-6.2-12.2-13.1-17.8-20.1l-3.9-5.5l-2-2.8c-0.6-0.9-1.2-1.9-1.8-2.8l-3.5-5.6
				c-1.2-2-2.3-3.8-3.5-5.7l2.2,0.7l-1.2,0.5l0.9-2.2l4.8,13.2l1.2,3.2c0.4,1.1,0.8,2.1,1.3,3.2l1.4,3.2l0.7,1.6l0.8,1.5l1.5,3.1
				l1.6,3c1.1,2,2.3,4,3.5,6c2.5,3.9,5,7.7,7.9,11.4c2.8,3.7,5.8,7.2,8.9,10.6c3.1,3.4,6.4,6.7,9.8,9.9c3.4,3.2,6.8,6.2,10.4,9.2
				c3.6,3,7.2,5.8,10.9,8.6l11.3,8.1c3.9,2.5,7.8,5.1,11.7,7.6c4,2.4,8,4.8,12,7.1c4.1,2.2,8.1,4.5,12.3,6.7
				c4.2,2.1,8.3,4.3,12.5,6.3l6.3,3c2.1,1,4.2,2,6.3,2.9l6.4,2.8c2.1,0.9,4.2,1.9,6.4,2.8l6.5,2.7l3.2,1.4c0.5,0.3,1.2,0.6,1.7,0.9
				l1.5,0.8l3.5,1.9l-3.9,1c-4.8,1.2-9.7,2.3-14.5,3.7c-2.4,0.7-4.8,1.3-7.2,2l-7.1,2.2c-2.4,0.7-4.7,1.6-7.1,2.4l-3.5,1.2l-3.5,1.3
				c-2.3,0.9-4.7,1.7-7,2.7l-6.9,2.9c-2.3,0.9-4.5,2-6.8,3c-2.3,1-4.5,2-6.8,3.2l-6.8,3.3c-1.4,0.7-2.9,0.8-4.3,0.9
				c-1.4,0-2.8-0.2-4.1-0.5l-7.3-1.6c-1.2-0.3-2.4-0.5-3.7-0.7l-3.7-0.7l-3.7-0.7l-3.7-0.5l-3.7-0.5c-1.2-0.2-2.5-0.4-3.7-0.4
				l-7.4-0.6c-2.5-0.1-5-0.2-7.4-0.2c-2.5-0.1-5,0-7.4,0.1c-2.5,0.1-5,0.1-7.4,0.5c-2.4,0.3-4.9,0.5-7.3,0.8l-7.4,1.4
				c-0.6,0.1-1.3,0.2-1.8,0.3l-1.8,0.4c-1.2,0.3-2.4,0.6-3.6,0.9l-3.6,1l-3.5,1.2c-4.7,1.6-9.2,3.6-13.6,5.8
				c-4.4,2.2-8.7,4.8-12.8,7.5c-4.1,2.8-8.1,5.7-11.9,8.9c-3.8,3.2-7.4,6.6-10.9,10.1l-1.4-2.2c2-0.8,3.9-1.5,5.9-2.4
				c2-0.9,4-1.7,6-2.6c4-1.7,8.1-3.3,12.2-4.8c2.1-0.7,4.1-1.5,6.2-2.1c2.1-0.7,4.2-1.3,6.3-1.9l3.2-0.9c1.1-0.3,2.1-0.5,3.2-0.8
				c1.1-0.3,2.1-0.5,3.2-0.7c1.1-0.2,2.1-0.5,3.2-0.6l3.3-0.5l3.3-0.4c1.1-0.2,2.2-0.2,3.3-0.3l1.6-0.1l1.6-0.1
				c1.1,0,2.2-0.1,3.3-0.1l3.3,0c1.1,0,2.2,0.1,3.3,0.1c0.6,0,1.1,0,1.7,0.1l1.7,0.1c4.4,0.5,8.9,1.4,13,3.4c4.1,2,7.7,5,10.4,8.6
				l0.7,1l-1,0.8l-2.2,1.7l-2.2,1.7l-4.4,3.4c-2.9,2.3-5.8,4.6-8.6,7c-2.9,2.3-5.6,4.8-8.4,7.3c-1.4,1.2-2.7,2.5-4,3.8l-2,1.9
				l-1.9,2c-1.3,1.3-2.6,2.6-3.8,4l-3.6,4.1c-1.2,1.3-2.4,2.8-3.5,4.3l-1.7,2.2l-0.9,1.1c-0.3,0.3-0.6,0.8-1,1.1
				c-1.4,1.5-3.1,2.6-4.9,3.4c-0.5,0.2-0.9,0.4-1.3,0.6c-0.5,0.2-0.9,0.3-1.3,0.5l-2.6,0.9c-3.5,1.2-7,2.5-10.5,3.8l-5.2,2
				c-1.7,0.7-3.4,1.4-5.1,2.1c-0.8,0.4-1.7,0.7-2.5,1.1l-2.5,1.2c-1.6,0.8-3.4,1.5-4.9,2.5l-4.8,2.7l-4.6,3c-1.6,0.9-3,2.2-4.5,3.2
				l-2.2,1.7c-0.7,0.5-1.4,1.2-2,1.8c-1.4,1.2-2.8,2.4-4,3.8c-1.2,1.3-2.6,2.6-3.7,4.1c-2.4,2.8-4.5,5.8-6.4,8.9l-1.4,2.4
				c-0.5,0.8-0.9,1.6-1.3,2.4c-0.8,1.6-1.7,3.3-2.4,4.9c-0.7,1.7-1.5,3.4-2.1,5.1l-1.9,5.2l-1.6-1.3l0.4-0.2c0.1,0,0.1-0.1,0.2-0.1
				l0.1,0l0,0c-0.3,0.3-0.1,0.1-0.1,0.2l0,0l0.1-0.1l0.7-1c0.4-0.6,0.9-1.3,1.4-1.9c1-1.3,1.9-2.5,2.8-3.8l3-3.7l3.1-3.6
				c1.1-1.2,2.2-2.3,3.3-3.4c0.5-0.6,1.1-1.1,1.7-1.6l1.8-1.6c1.1-1.1,2.4-2,3.7-3l1.9-1.4l2-1.3l2-1.3c0.7-0.5,1.4-0.7,2.1-1.1
				l2.1-1.1l1-0.5c0.4-0.2,0.8-0.3,1.1-0.5l2.2-0.9c0.7-0.3,1.5-0.5,2.3-0.7c1.5-0.5,3.1-0.8,4.7-1.1c0.8-0.2,1.6-0.2,2.4-0.3
				c0.8-0.1,1.6-0.2,2.4-0.2l2.4,0c0.4,0,0.8,0,1.2,0.1l1.2,0.2c0.8,0.1,1.6,0.1,2.4,0.4l2.3,0.6c0.8,0.2,1.5,0.4,2.3,0.7l2.3,0.8
				l0.9,0.3l-0.3,1c-0.5,1.6-1,3.1-1.6,4.7l-1.7,4.7c-0.6,1.5-1,3.1-1.5,4.7c-0.5,1.6-1,3.1-1.3,4.8l-1.2,4.8
				c-0.4,1.6-0.6,3.2-1,4.9l-0.5,2.4l-0.4,2.5c-0.2,1.6-0.5,3.3-0.7,4.9c-0.3,3.3-0.7,6.6-0.8,9.9c-0.3,3.3-0.3,6.6-0.3,9.9
				l-0.1,2.5c-0.1,0.9-0.1,1.7-0.4,2.6c-0.3,1.7-1,3.4-2,4.9c-0.3,0.4-0.5,0.7-0.8,1.1l-0.9,1c-0.6,0.7-1.2,1.1-1.9,1.7l-1.8,1.6
				c-0.6,0.5-1.1,1.2-1.7,1.7l-0.8,0.9l-0.8,0.9c-0.5,0.6-1.1,1.2-1.6,1.9l-1.5,2c-0.5,0.6-1,1.3-1.4,2c-0.9,1.3-1.9,2.7-2.8,4
				l-2.5,4.3c-0.9,1.4-1.5,2.9-2.3,4.4c-0.7,1.5-1.5,2.9-2,4.5l-1.8,4.6l-1.5,4.7c-0.6,1.6-0.9,3.2-1.4,4.8
				c-0.4,1.6-0.9,3.2-1.2,4.8l-1.1,4.8l-0.9,4.9l-0.2,1.2c0,0.2-0.1,0.4-0.1,0.6l-0.1,0.6l-0.3,2.5l-0.6,4.9c-0.4,3.3-0.7,6.6-1,9.9
				l-1.5-0.3c1.7-4.4,3.3-8.9,5-13.3c0.8-2.2,1.8-4.4,2.7-6.6l1.5-3.2c0.5-1.1,1-2.2,1.6-3.2l1.7-3.2c0.6-1,1.2-2.1,1.8-3.1
				c1.2-2.1,2.6-4,3.9-5.9c1.4-2,2.9-3.8,4.7-5.5c0.8-0.9,1.8-1.6,2.7-2.4c0.5-0.4,1-0.7,1.5-1.1c0.5-0.3,1-0.7,1.5-1l1.6-0.9
				c0.6-0.3,1.2-0.5,1.7-0.7l0.9-0.3c0.3-0.1,0.6-0.2,0.9-0.2l1.7-0.4c0.7-0.2,1.2-0.2,1.9-0.3c0.6,0,1.4,0,2.1,0.3
				c0.7,0.4,1.2,1,1.4,1.7c0.3,0.6,0.4,1.3,0.5,1.8c0.5,2.3,0.9,4.6,1.4,7c0.6,2.3,1,4.6,1.7,6.9c1.2,4.6,2.5,9.1,4,13.6l1.1,3.4
				l1.2,3.3c0.4,1.1,0.8,2.2,1.3,3.3l1.4,3.3c0.9,2.2,1.9,4.3,2.9,6.5l0.7,1.6l0.4,0.9l0.3,0.9c0.1,0.3,0.1,0.6,0.1,1
				c0,0.3,0,0.7-0.1,1c-0.1,0.3-0.1,0.7-0.3,1l-0.2,0.5l-0.3,0.4l-0.3,0.4l-0.3,0.3l-0.6,0.7l-1.1,1.3l-1.1,1.3
				c-0.4,0.5-0.7,0.9-1.1,1.4c-1.5,1.8-2.7,3.8-4,5.8c-2.5,4-4.4,8.3-6,12.7c-1.6,4.4-2.6,9.1-3.6,13.7l-1.2,7
				c-0.3,2.3-0.5,4.7-0.7,7c-0.1,1.2-0.2,2.4-0.2,3.5l-0.2,3.5c-0.2,2.4-0.1,4.7-0.2,7.1l0,3.5l0.1,3.5c0.1,2.4,0.1,4.7,0.2,7.1
				c0.2,4.7,0.5,9.5,0.8,14.2l-0.8,0l1.2-10.7l1.4-10.6c0.3-1.8,0.6-3.5,0.9-5.3c0.4-1.8,0.7-3.5,1.1-5.3l0.6-2.6
				c0.2-0.9,0.5-1.7,0.7-2.6c0.4-1.7,1-3.4,1.6-5.1l0.4-1.3l0.5-1.3l1-2.5c0.7-1.7,1.5-3.3,2.3-4.9l1.3-2.3c0.4-0.8,0.9-1.6,1.4-2.3
				l1.5-2.3l1.6-2.2c0.5-0.7,1.2-1.4,1.7-2.1l0.9-1c0.3-0.3,0.7-0.6,1-0.9c0.7-0.6,1.3-1.3,2-1.8l2.2-1.6c1.6-0.9,3.1-1.9,4.8-2.6
				c1.6-0.8,3.4-1.2,5.1-1.7l0.2-0.1l0.1,0.2l35.4,55.5c1.5,2.3,3,4.6,4.4,7c0.7,1.2,1.4,2.3,2.1,3.5c0.7,1.2,1.4,2.4,1.9,3.6
				l0.9,1.9c0.3,0.6,0.5,1.3,0.8,1.9l1.5,3.8l1.2,3.9c0.2,0.7,0.4,1.3,0.6,2l0.5,2c0.3,1.3,0.7,2.7,0.9,4l0.7,4.1
				c0.3,1.3,0.3,2.7,0.5,4.1c0.1,1.4,0.3,2.7,0.4,4.1l0.2,4.1c0.1,1.4,0.1,2.7,0.1,4.1C149.5,571.4,149.3,574.2,149.3,576.9z"/>
			<path d="M362.7,154.5c2.3,1.3,4.6,2.7,6.9,4.1l3.4,2.2l1.7,1.1c0.3,0.2,0.5,0.3,0.9,0.6l0.8,0.6c1,0.8,2.1,1.7,3.1,2.6
				c1,0.9,2,1.8,3,2.7l1.5,1.3l1.5,1.1c0.5,0.4,1,0.8,1.5,1.1c0.6,0.4,1.1,0.7,1.7,1c1.1,0.7,2.2,1.3,3.4,1.8c1.2,0.5,2.3,1,3.5,1.3
				c0.6,0.2,1.2,0.3,1.8,0.4c0.3,0,0.6,0.1,0.9,0.2l1,0.1c1.2,0.1,2.5,0.2,3.9,0.3c2.7,0.1,5.5,0.3,8.3,1.1c1.4,0.4,2.8,0.9,4.1,1.6
				c1.3,0.6,2.5,1.5,3.7,2.4l-3.1,2.3l-1.7-3.8c-0.5-1.3-1.3-2.5-1.9-3.7l-1-1.8l-1.1-1.7c-0.8-1.2-1.5-2.3-2.4-3.4
				c-0.9-1.1-1.6-2.2-2.6-3.2c-1-1-1.8-2.1-2.9-2.9c-1.1-0.9-2.1-1.8-3.2-2.6l-1.7-1.2c-0.6-0.4-1.2-0.7-1.8-1l-1.8-1l-1.9-0.8
				c-0.6-0.3-1.3-0.6-1.9-0.8l-2-0.6c-1.3-0.5-2.7-0.7-4.1-1c-0.3-0.1-0.7-0.2-1-0.2l-1-0.1l-2.1-0.3c-1.4-0.2-2.8-0.2-4.2-0.3
				c-1.4,0-2.8,0-4.3,0L367,154L362.7,154.5z M362.7,154.5l4.2-1.1l4.3-0.8c1.4-0.2,2.9-0.3,4.3-0.4c1.5,0,2.9-0.2,4.4-0.1l2.2,0.1
				l1.1,0.1c0.4,0,0.7,0.1,1.1,0.2c1.5,0.2,2.9,0.4,4.4,0.8l2.2,0.5c0.7,0.2,1.4,0.5,2.1,0.7l2.1,0.8l2,1c0.7,0.3,1.4,0.6,2,1
				l1.9,1.2c1.3,0.8,2.4,1.8,3.6,2.7c1.2,0.9,2.2,2,3.3,3.1c1.1,1,2,2.2,3,3.4c1,1.1,1.8,2.4,2.6,3.6l1.2,1.9l1.1,1.9
				c0.7,1.3,1.5,2.6,2.1,3.9l1.8,4l-3.1,2.3c-0.9-0.7-1.9-1.5-3-2c-1.1-0.6-2.2-1-3.3-1.3c-2.3-0.7-4.9-0.9-7.5-1.1
				c-1.3-0.1-2.7-0.2-4.1-0.4l-1-0.2c-0.4,0-0.7-0.2-1.1-0.2c-0.7-0.1-1.4-0.4-2.1-0.6c-0.7-0.2-1.3-0.5-2-0.8
				c-0.6-0.3-1.3-0.6-1.9-0.9c-1.2-0.7-2.4-1.4-3.6-2.2c-0.6-0.4-1.1-0.8-1.7-1.2c-0.6-0.4-1.1-0.9-1.6-1.3l-1.6-1.4l-1.4-1.5
				c-1-1-1.9-1.9-2.8-2.9c-0.9-1-1.9-1.9-2.8-2.8l-0.7-0.7c-0.2-0.2-0.5-0.4-0.7-0.6l-1.5-1.3l-3.1-2.5c-1-0.8-2.1-1.6-3.2-2.5
				L362.7,154.5z"/>
			<path d="M538,250.4c-0.2-0.6-0.3-1.3-0.5-1.9c-0.3-0.6-0.5-1.1-0.8-1.7c-0.4-0.5-0.6-1.1-1-1.5c-0.4-0.5-0.7-1-1.2-1.4
				c-0.4-0.4-0.8-0.9-1.3-1.3c-0.5-0.4-0.9-0.8-1.4-1.1c-0.5-0.3-0.9-0.7-1.5-1c-0.5-0.3-1-0.6-1.6-0.9c-0.5-0.2-1.1-0.5-1.6-0.7
				c-0.6-0.2-1.1-0.4-1.7-0.6c-0.6-0.1-1.1-0.3-1.7-0.4c-0.6-0.1-1.1-0.2-1.7-0.3l-1.7-0.1l-1.7,0.1l-1.6,0.3
				c-0.5,0.2-1,0.3-1.6,0.5l0.7-3.2c1.6,1.7,3.2,3.5,4.7,5.2c0.8,0.8,1.6,1.7,2.3,2.5l1.2,1.2l1.2,1.1c0.4,0.3,0.9,0.7,1.3,1
				c0.5,0.3,0.9,0.7,1.3,1c0.5,0.3,0.9,0.6,1.4,0.8c0.5,0.2,1,0.5,1.5,0.7c0.5,0.2,1,0.5,1.6,0.6c0.5,0.1,1.1,0.4,1.6,0.5
				c0.6,0.1,1.1,0.3,1.7,0.4L538,250.4z M538,250.4c-0.6,0.1-1.2,0.2-1.8,0.3c-0.6,0.1-1.2,0.1-1.8,0.1c-0.6,0-1.2,0-1.8-0.1
				c-0.6,0-1.2-0.2-1.8-0.3c-0.6-0.1-1.2-0.3-1.8-0.5c-0.6-0.2-1.2-0.4-1.7-0.7c-0.6-0.2-1.1-0.5-1.7-0.8c-0.5-0.3-1.1-0.6-1.6-0.9
				l-1.5-1.1c-0.5-0.4-1-0.7-1.4-1.1l-1.4-1.2l-1.3-1.2c-1.7-1.6-3.3-3.4-4.9-5l-2.2-2.3l3-0.9c0.7-0.2,1.4-0.4,2.1-0.6l2.1-0.3
				c0.7,0,1.4,0,2.1,0c0.7,0.1,1.4,0.1,2.1,0.2c0.7,0.1,1.4,0.3,2.1,0.5c0.7,0.2,1.3,0.4,2,0.7c0.6,0.2,1.3,0.6,1.9,0.9
				c0.6,0.3,1.2,0.7,1.8,1c0.6,0.3,1.1,0.8,1.7,1.2c0.6,0.4,1,0.9,1.5,1.4c0.5,0.5,0.9,1,1.4,1.5c0.5,0.5,0.8,1.1,1.2,1.7
				c0.4,0.5,0.6,1.2,0.9,1.8c0.2,0.3,0.3,0.6,0.4,0.9c0.1,0.3,0.2,0.6,0.3,1c0.2,0.6,0.2,1.4,0.3,2
				C538.1,249.1,538.1,249.7,538,250.4z"/>
		</g>
	</g>
	<path fill="#7F002B" d="M362.7,154.5c22.5-4.7,43.7,0.6,55.2,29.2c-6.6-5.5-13.6-4.3-20.2-5.3c-4.1-0.7-8.3-3-11.8-5.5
		c-4-2.8-7.2-6.8-11-9.9C371.1,160,366.9,157.4,362.7,154.5z"/>
	<path fill="#926798" d="M538,250.4c-10.7,0.7-16.6-7.1-23.1-13.8C524.6,232.9,537.8,241.1,538,250.4z"/>
</g>
</svg>
